<svg width="107" height="23" viewBox="0 0 107 23" fill="none" xmlns="http://www.w3.org/2000/svg">
<g clip-path="url(#clip0_72_3720)">
<path d="M28.8354 18.953V19.9401H23.9952V18.953C23.9952 18.953 24.0982 18.4594 24.4071 18.4594C24.4071 18.4594 24.4071 18.4594 24.5101 18.4594C24.5101 18.4594 24.6131 18.4594 24.8191 18.4594C24.922 18.4594 25.128 18.4594 25.334 18.4594V13.2277C25.334 13.2277 24.922 13.2277 24.8191 13.2277C24.7161 13.2277 24.6131 13.2277 24.5101 13.2277C24.5101 13.2277 24.5101 13.2277 24.4071 13.2277C24.0982 13.2277 23.9952 13.0303 23.9952 12.7341V11.747H27.4966V18.6569C27.4966 18.6569 27.9086 18.6569 28.0115 18.6569C28.1145 18.6569 28.2175 18.6569 28.3205 18.6569C28.3205 18.6569 28.3205 18.6569 28.4235 18.6569C28.7324 18.6569 28.8354 18.8543 28.8354 19.1504V18.953ZM27.7026 9.3779C27.7026 9.3779 27.4966 9.67404 27.3936 9.77275C27.2907 9.87146 27.0847 9.97017 26.9817 10.0689C26.7757 10.0689 26.6728 10.1676 26.4668 10.1676C26.2608 10.1676 26.0549 10.1676 25.9519 10.0689C25.7459 10.0689 25.6429 9.87146 25.5399 9.77275C25.437 9.67404 25.334 9.47661 25.231 9.3779C25.231 9.18047 25.128 9.08176 25.128 8.88434C25.128 8.68691 25.128 8.48949 25.231 8.39077C25.231 8.19335 25.437 8.09464 25.5399 7.99592C25.6429 7.89721 25.8489 7.7985 25.9519 7.69979C26.1578 7.69979 26.2608 7.60107 26.4668 7.60107C26.6728 7.60107 26.8787 7.60107 26.9817 7.69979C27.1877 7.69979 27.2907 7.89721 27.3936 7.99592C27.4966 8.09464 27.5996 8.29206 27.7026 8.39077C27.7026 8.5882 27.8056 8.68691 27.8056 8.88434C27.8056 9.08176 27.8056 9.18047 27.7026 9.3779Z" fill="#368AFE"/>
<path d="M38.6189 19.94H36.0443H35.7353C35.7353 19.94 35.5294 19.7425 35.5294 19.6438L35.3234 18.8541C35.3234 18.8541 34.4995 19.5451 34.0876 19.8413C33.5727 20.0387 33.0577 20.2361 32.4398 20.2361C31.9249 20.2361 31.513 20.2361 31.1011 19.94C30.6891 19.7425 30.3802 19.4464 30.0712 19.0516C29.7623 18.6567 29.5563 18.2619 29.3503 17.6696C29.1444 17.0773 29.1444 16.485 29.1444 15.794C29.1444 15.1031 29.1444 14.5108 29.4533 14.0172C29.6593 13.4249 29.8653 13.0301 30.2772 12.6352C30.5861 12.2404 30.9981 11.9443 31.513 11.6481C32.0279 11.4507 32.5428 11.352 33.0577 11.352C33.5727 11.352 33.9846 11.352 34.3965 11.5494C34.7055 11.7468 35.0144 11.9443 35.3234 12.1417V9.27903C35.3234 9.27903 34.9114 9.27903 34.8085 9.27903C34.7055 9.27903 34.6025 9.27903 34.4995 9.27903C34.4995 9.27903 34.4995 9.27903 34.3965 9.27903C34.0876 9.27903 33.9846 9.0816 33.9846 8.78546V7.79834H37.486V18.558C37.486 18.558 37.795 18.558 37.898 18.558C38.001 18.558 38.1039 18.558 38.1039 18.558C38.1039 18.558 38.1039 18.558 38.2069 18.558C38.5159 18.558 38.6189 18.7554 38.6189 19.0516V20.0387V19.94ZM35.3234 13.5237C35.3234 13.5237 34.8085 13.0301 34.4995 12.9314C34.1906 12.8327 33.8816 12.734 33.5727 12.734C33.2637 12.734 32.9548 12.734 32.6458 12.9314C32.3369 13.0301 32.1309 13.2275 31.9249 13.4249C31.719 13.6224 31.616 14.0172 31.513 14.3134C31.513 14.7082 31.41 15.1031 31.41 15.5966C31.41 16.0902 31.41 16.485 31.513 16.8799C31.513 17.2747 31.719 17.4722 31.9249 17.7683C32.1309 17.9657 32.2339 18.1631 32.5428 18.2619C32.7488 18.3606 33.0577 18.4593 33.2637 18.4593C33.6756 18.4593 34.0876 18.4593 34.3965 18.1631C34.7055 17.9657 35.0144 17.7683 35.3234 17.3734V13.5237Z" fill="#368AFE"/>
<path d="M48.5053 19.94H45.9307H45.6218C45.6218 19.94 45.4158 19.7425 45.4158 19.6438L45.2098 18.8541C45.2098 18.8541 44.3859 19.5451 43.974 19.8413C43.4591 20.0387 42.9442 20.2361 42.3263 20.2361C41.8114 20.2361 41.3994 20.2361 40.9875 19.94C40.5756 19.7425 40.2666 19.4464 39.9577 19.0516C39.6487 18.6567 39.4427 18.2619 39.2368 17.6696C39.0308 17.0773 39.0308 16.485 39.0308 15.794C39.0308 15.1031 39.0308 14.5108 39.3398 14.0172C39.5457 13.4249 39.7517 13.0301 40.1636 12.6352C40.5756 12.2404 40.8845 11.9443 41.3994 11.6481C41.9143 11.4507 42.4293 11.352 42.9442 11.352C43.4591 11.352 43.871 11.352 44.283 11.5494C44.5919 11.7468 45.0039 11.9443 45.2098 12.1417V9.27903C45.2098 9.27903 44.7979 9.27903 44.6949 9.27903C44.5919 9.27903 44.4889 9.27903 44.3859 9.27903C44.3859 9.27903 44.386 9.27903 44.283 9.27903C43.974 9.27903 43.871 9.0816 43.871 8.78546V7.79834H47.3725V18.558C47.3725 18.558 47.6814 18.558 47.7844 18.558C47.8874 18.558 47.9904 18.558 47.9904 18.558C47.9904 18.558 47.9904 18.558 48.0934 18.558C48.4023 18.558 48.5053 18.7554 48.5053 19.0516V20.0387V19.94ZM45.1068 13.5237C45.1068 13.5237 44.5919 13.0301 44.283 12.9314C43.974 12.8327 43.6651 12.734 43.3561 12.734C43.0472 12.734 42.7382 12.734 42.4293 12.9314C42.1203 13.0301 41.9143 13.2275 41.7084 13.4249C41.5024 13.6224 41.3994 14.0172 41.2964 14.3134C41.2964 14.7082 41.1935 15.1031 41.1935 15.5966C41.1935 16.0902 41.1935 16.485 41.2964 16.8799C41.2964 17.2747 41.5024 17.4722 41.7084 17.7683C41.9143 17.9657 42.0173 18.1631 42.3263 18.2619C42.5322 18.3606 42.8412 18.4593 43.0472 18.4593C43.4591 18.4593 43.871 18.4593 44.18 18.1631C44.4889 17.9657 44.7979 17.7683 45.1068 17.3734V13.5237Z" fill="#368AFE"/>
<path d="M54.7873 11.4507C54.7873 11.4507 55.7142 11.8455 56.0231 12.2404C56.3321 12.5365 56.641 13.0301 56.847 13.4249C57.0529 13.9185 57.1559 14.412 57.1559 15.103C57.1559 15.3005 57.1559 15.3992 57.1559 15.4979C57.1559 15.5966 57.1559 15.6953 57.1559 15.6953C57.1559 15.6953 57.1559 15.794 57.0529 15.794C57.0529 15.794 56.95 15.794 56.847 15.794H51.2859C51.2859 16.6824 51.5948 17.3734 52.0067 17.7683C52.4187 18.1631 53.0366 18.3605 53.7575 18.3605C54.0664 18.3605 54.3754 18.3605 54.6843 18.2618C54.8903 18.2618 55.1992 18.0644 55.3022 17.9657C55.5082 17.9657 55.6112 17.7683 55.8171 17.6696C55.9201 17.6696 56.1261 17.5708 56.2291 17.5708H56.435C56.435 17.5708 56.538 17.5708 56.641 17.6696L57.2589 18.4593C57.2589 18.4593 56.744 18.9528 56.435 19.1502C56.1261 19.3477 55.8171 19.4464 55.5082 19.5451C55.1992 19.6438 54.8903 19.7425 54.4783 19.7425C54.1694 19.7425 53.8604 19.7425 53.5515 19.7425C52.9336 19.7425 52.3157 19.7425 51.8008 19.4464C51.2859 19.249 50.7709 18.9528 50.359 18.558C49.9471 18.1631 49.6381 17.6696 49.4322 17.0773C49.2262 16.485 49.1232 15.794 49.1232 15.103C49.1232 14.5108 49.1232 13.9185 49.4322 13.4249C49.6381 12.9314 49.9471 12.4378 50.256 12.0429C50.668 11.6481 51.0799 11.352 51.5948 11.1545C52.1097 10.9571 52.7276 10.8584 53.4485 10.8584C53.9634 10.8584 54.5813 10.8584 54.9933 11.1545L54.7873 11.4507ZM51.8008 13.2275C51.8008 13.2275 51.1829 14.0172 51.0799 14.7082H55.0962C55.0962 14.7082 55.0963 14.2146 54.9933 13.9185C54.9933 13.7211 54.7873 13.4249 54.6843 13.3262C54.4783 13.1288 54.3754 13.0301 54.0664 12.9314C53.8604 12.8326 53.5515 12.7339 53.2425 12.7339C52.6246 12.7339 52.1097 12.9314 51.8008 13.2275Z" fill="#368AFE"/>
<path d="M67.9692 18.9527V19.9398H64.4678V14.5106C64.4678 14.017 64.3648 13.6222 64.0558 13.3261C63.8499 13.0299 63.4379 12.9312 62.923 12.9312C62.5111 12.9312 62.2021 12.9312 61.8932 13.1286C61.5842 13.3261 61.2753 13.5235 60.9663 13.8196V18.3604C60.9663 18.3604 61.3783 18.3604 61.4812 18.3604C61.5842 18.3604 61.6872 18.3604 61.7902 18.3604C61.7902 18.3604 61.7902 18.3604 61.8932 18.3604C62.2021 18.3604 62.3051 18.5578 62.3051 18.854V19.8411H57.4649V18.854C57.4649 18.854 57.5679 18.3604 57.8768 18.3604C57.8768 18.3604 57.8768 18.3604 57.9798 18.3604C57.9798 18.3604 58.0828 18.3604 58.2887 18.3604C58.3917 18.3604 58.5977 18.3604 58.8037 18.3604V13.1286C58.8037 13.1286 58.3917 13.1286 58.2887 13.1286C58.1858 13.1286 58.0828 13.1286 57.9798 13.1286C57.9798 13.1286 57.9798 13.1286 57.8768 13.1286C57.5679 13.1286 57.4649 12.9312 57.4649 12.6351V11.6479H60.1425C60.1425 11.6479 60.6574 11.7467 60.6574 12.0428V12.7338C60.6574 12.7338 61.1723 12.4376 61.3783 12.2402C61.5842 12.1415 61.7902 11.9441 61.9962 11.8454C62.2021 11.7467 62.5111 11.6479 62.717 11.6479C62.923 11.6479 63.232 11.6479 63.5409 11.6479C64.0558 11.6479 64.4678 11.648 64.8797 11.8454C65.2916 12.0428 65.6006 12.2402 65.8065 12.5364C66.0125 12.8325 66.2185 13.1286 66.4244 13.5235C66.5274 13.9183 66.6304 14.4119 66.6304 14.8067V18.6565C66.6304 18.6565 67.0424 18.6565 67.1453 18.6565C67.2483 18.6565 67.3513 18.6565 67.4543 18.6565C67.4543 18.6565 67.4543 18.6565 67.5573 18.6565C67.8662 18.6565 67.9692 18.854 67.9692 19.1501V18.9527Z" fill="#368AFE"/>
<path d="M74.8691 7.79834V18.3606C74.8691 18.3606 75.281 18.3606 75.384 18.3606C75.487 18.3606 75.59 18.3606 75.693 18.3606C75.693 18.3606 75.693 18.3606 75.796 18.3606C76.1049 18.3606 76.2079 18.558 76.2079 18.8541V19.8413H71.1617V18.8541C71.1617 18.8541 71.2647 18.3606 71.5736 18.3606C71.5736 18.3606 71.5736 18.3606 71.6766 18.3606C71.6766 18.3606 71.7796 18.3606 71.9856 18.3606C72.0885 18.3606 72.2945 18.3606 72.5005 18.3606V7.79834H74.8691Z" fill="#368AFE"/>
<path d="M87.3301 18.953V19.9401H85.2704C85.2704 19.9401 84.8585 19.9401 84.7555 19.9401C84.6525 19.9401 84.5496 19.7427 84.4466 19.5453L84.2406 18.953C84.2406 18.953 83.8287 19.3478 83.5197 19.4466C83.3138 19.644 83.1078 19.7427 82.7988 19.8414C82.5929 19.9401 82.2839 20.0388 82.078 20.0388C81.769 20.0388 81.563 20.0388 81.2541 20.0388C80.8422 20.0388 80.5332 20.0388 80.2243 19.9401C79.9153 19.9401 79.6064 19.7427 79.4004 19.5453C79.1944 19.3478 78.9884 19.1504 78.8855 18.8543C78.7825 18.5581 78.6795 18.262 78.6795 17.8672C78.6795 17.571 78.6795 17.1762 78.9884 16.88C79.1944 16.5839 79.5034 16.2878 79.9153 15.9916C80.3272 15.6955 80.8422 15.4981 81.563 15.3993C82.2839 15.2019 83.1078 15.1032 84.1376 15.1032V14.6096C84.1376 14.0174 84.0346 13.6225 83.7257 13.3264C83.5197 13.0302 83.1078 12.9315 82.5929 12.9315C82.2839 12.9315 81.975 12.9315 81.769 13.0302C81.563 13.0302 81.3571 13.2277 81.1511 13.3264C80.9451 13.3264 80.8422 13.5238 80.6362 13.6225C80.5332 13.6225 80.3272 13.7212 80.1213 13.7212C80.0183 13.7212 79.8123 13.7212 79.7093 13.6225C79.6063 13.6225 79.5034 13.4251 79.5034 13.3264L79.0914 12.6354C80.1213 11.747 81.3571 11.2534 82.7988 11.2534C83.3138 11.2534 83.8287 11.2534 84.2406 11.5496C84.6526 11.747 84.9615 11.9444 85.2704 12.2405C85.5794 12.5367 85.7854 12.9315 85.8884 13.3264C85.9913 13.7212 86.0943 14.2148 86.0943 14.7084V18.5581C86.0943 18.5581 86.4033 18.5581 86.5062 18.5581C86.6092 18.5581 86.7122 18.5581 86.7122 18.5581C87.0212 18.5581 87.1242 18.7556 87.1242 19.0517L87.3301 18.953ZM84.1376 16.2878C83.5197 16.2878 83.0048 16.2878 82.5929 16.3865C82.1809 16.3865 81.872 16.5839 81.563 16.6826C81.3571 16.7813 81.1511 16.9787 81.0481 17.0775C80.9451 17.2749 80.8422 17.3736 80.8422 17.571C80.8422 17.9659 80.9451 18.1633 81.1511 18.3607C81.3571 18.5581 81.666 18.5581 82.078 18.5581C82.2839 18.5581 82.4899 18.5581 82.6959 18.5581C82.9018 18.5581 83.1078 18.5581 83.2108 18.3607C83.4167 18.3607 83.5197 18.1633 83.7257 18.0646C83.9317 17.9659 84.0346 17.8672 84.2406 17.6697V16.189L84.1376 16.2878Z" fill="#368AFE"/>
<path d="M92.6853 11.3517C92.6853 11.3517 93.3032 11.5491 93.6121 11.6479H96.1867V12.4376C96.1867 12.4376 96.1867 12.635 96.0837 12.7337C96.0837 12.7337 95.8778 12.8324 95.7748 12.9311H94.9509C94.9509 12.9311 95.0539 13.326 95.0539 13.5234C95.0539 13.7208 95.0539 13.8195 95.0539 14.017C95.0539 14.4118 95.0539 14.8067 94.7449 15.2015C94.539 15.4976 94.333 15.7938 94.0241 16.0899C93.7151 16.2873 93.3032 16.4848 92.8912 16.6822C92.4793 16.7809 91.9644 16.8796 91.4495 16.8796C91.1405 16.8796 90.8316 16.8796 90.4196 16.8796C90.1107 17.077 90.0077 17.1758 90.0077 17.4719C90.0077 17.6693 90.0077 17.768 90.2137 17.8667C90.4196 17.8667 90.6256 17.9655 90.8316 18.0642C91.1405 18.0642 91.4495 18.0642 91.7584 18.0642C92.0674 18.0642 92.4793 18.0642 92.7883 18.0642C93.2002 18.0642 93.5091 18.0642 93.8181 18.1629C94.127 18.1629 94.436 18.3603 94.7449 18.459C95.0539 18.6564 95.2599 18.8539 95.3629 19.0513C95.5688 19.3474 95.5688 19.6436 95.5688 20.0384C95.5688 20.4333 95.5688 20.8281 95.2599 21.1243C95.0539 21.5191 94.745 21.8152 94.436 22.1114C94.0241 22.4075 93.6121 22.6049 93.0972 22.8024C92.5823 22.9998 91.9644 23.0985 91.2435 23.0985C90.5226 23.0985 90.0077 23.0985 89.4928 22.9011C88.9779 22.8024 88.5659 22.6049 88.257 22.4075C87.948 22.2101 87.6391 21.914 87.5361 21.7165C87.3301 21.4204 87.3301 21.1243 87.3301 20.8281C87.3301 20.4333 87.4331 20.0384 87.7421 19.841C87.948 19.5449 88.36 19.3474 88.7719 19.15C88.5659 19.0513 88.36 18.8539 88.257 18.6564C88.154 18.459 88.051 18.1629 88.051 17.8667C88.051 17.768 88.051 17.5706 88.051 17.4719C88.051 17.3732 88.154 17.1758 88.257 17.077C88.257 16.9783 88.4629 16.7809 88.6689 16.6822C88.7719 16.5835 88.9779 16.4848 89.1838 16.3861C88.7719 16.1886 88.36 15.7938 88.154 15.3989C87.8451 15.0041 87.7421 14.5105 87.7421 14.017C87.7421 13.6221 87.7421 13.2273 88.051 12.8324C88.257 12.5363 88.4629 12.2401 88.7719 11.944C89.0808 11.7466 89.4928 11.5491 89.9047 11.3517C90.3166 11.253 90.8316 11.1543 91.3465 11.1543C91.7584 11.1543 92.0674 11.1543 92.4793 11.253L92.6853 11.3517ZM93.8181 19.9397C93.8181 19.9397 93.6121 19.7423 93.4062 19.7423C93.2002 19.7423 92.9942 19.6436 92.7883 19.6436C92.5823 19.6436 92.2733 19.6436 92.0674 19.6436C91.7584 19.6436 91.5525 19.6436 91.2435 19.6436C90.9346 19.6436 90.6256 19.6436 90.4196 19.6436C90.2137 19.7423 90.0077 19.9397 89.8017 20.1371C89.6988 20.3346 89.5958 20.532 89.5958 20.7294C89.5958 20.9268 89.5958 21.0255 89.6988 21.1243C89.6988 21.223 89.9047 21.3217 90.1107 21.4204C90.3167 21.4204 90.5226 21.6178 90.7286 21.6178C91.0375 21.6178 91.3465 21.6178 91.7584 21.6178C92.1704 21.6178 92.4793 21.6178 92.7883 21.6178C93.0972 21.6178 93.3032 21.5191 93.5091 21.4204C93.7151 21.3217 93.8181 21.223 93.9211 21.0255C93.9211 20.9268 94.0241 20.7294 94.0241 20.532C94.0241 20.3346 94.0241 20.2358 93.8181 20.1371V19.9397ZM92.2733 15.3989C92.2733 15.3989 92.6853 15.2015 92.7883 15.1028C92.8912 15.0041 92.9942 14.8067 93.0972 14.6092C93.0972 14.4118 93.0972 14.2144 93.0972 14.017C93.0972 13.6221 92.9942 13.2273 92.6853 13.0298C92.3763 12.7337 92.0674 12.635 91.4495 12.635C90.8316 12.635 90.5226 12.7337 90.2137 13.0298C89.9047 13.326 89.8017 13.6221 89.8017 14.017C89.8017 14.2144 89.8017 14.4118 89.8017 14.6092C89.8017 14.8067 90.0077 14.9054 90.1107 15.1028C90.2137 15.2015 90.4196 15.3002 90.6256 15.3989C90.8316 15.3989 91.0375 15.4976 91.3465 15.4976C91.6554 15.4976 91.8614 15.4976 92.0674 15.3989H92.2733Z" fill="#368AFE"/>
<path d="M7.82676 3.55371H2.16265V5.52796H7.72377C7.72377 4.93569 7.72377 4.2447 7.72377 3.55371H7.82676Z" fill="#368AFE"/>
<path d="M14.9326 3.55371C14.9326 3.55371 14.9326 3.94856 14.9326 4.14599C14.9326 4.63955 14.9326 5.13311 14.9326 5.52796H20.4937C20.4937 4.93569 20.4937 4.2447 20.5967 3.55371H14.9326Z" fill="#368AFE"/>
<path d="M17.0953 7.20605H2.26564V9.1803H14.8296H20.3908C20.3908 8.58803 20.3908 7.89704 20.4937 7.20605H17.0953Z" fill="#368AFE"/>
<path d="M16.8893 10.8584H2.26564V12.8326H14.8296H20.3908C20.3908 12.2404 20.3908 11.5494 20.4937 10.8584H16.8893Z" fill="#368AFE"/>
<path d="M9.57748 0C7.62079 0 6.282 0 5.56112 0C4.53128 0 3.08951 0 1.13282 0V1.38197C1.13282 1.38197 1.13282 1.67811 1.13282 1.87554H9.37151C9.37151 1.28326 9.47449 0.690987 9.57748 0Z" fill="#368AFE"/>
<path d="M22.4504 7.96393e-05C20.1848 7.96393e-05 18.743 7.96393e-05 18.3311 7.96393e-05H13.5938C13.5938 0.592354 13.5938 1.08592 13.5938 1.28334C13.5938 1.38205 13.5938 1.57948 13.5938 1.7769H22.2445C22.2445 1.18463 22.3475 0.592354 22.4504 -0.0986328V7.96393e-05Z" fill="#368AFE"/>
<path d="M7.31184 14.5107H1.64774L1.54475 16.485H7.31184V14.5107Z" fill="#368AFE"/>
<path d="M14.4177 14.5107C14.4177 15.2017 14.4177 15.8927 14.3147 16.485H19.9788C19.9788 15.794 19.9788 15.103 19.9788 14.5107H14.3147H14.4177Z" fill="#368AFE"/>
<path d="M12.564 19.94C15.0356 19.94 16.5804 19.94 17.1983 19.94H21.5236C21.5236 19.94 21.5236 18.558 21.6266 18.0645H12.873C12.873 18.558 12.667 19.4464 12.564 19.94Z" fill="#368AFE"/>
<path d="M4.01636 19.94H8.44466L8.65063 18.0645H0.205967L0 19.94C2.16266 19.94 3.50144 19.94 4.01636 19.94Z" fill="#368AFE"/>
<path d="M80.7392 6.41652C80.7392 6.41652 80.5332 6.81137 80.3272 6.81137H69.7199C69.7199 6.81137 69.308 6.61395 69.308 6.41652V3.15901C69.308 3.15901 69.514 2.76416 69.7199 2.76416H80.3272C80.3272 2.76416 80.7392 2.96158 80.7392 3.15901V6.41652Z" fill="#368AFE"/>
<path d="M67.1453 5.72554C67.1453 5.72554 67.3513 6.21911 67.5573 6.21911H68.4841C68.4841 6.21911 68.896 6.02168 68.896 5.72554V3.85001C68.896 3.85001 68.6901 3.35645 68.4841 3.35645H67.5573C67.5573 3.35645 67.1453 3.55387 67.1453 3.85001V5.72554Z" fill="#368AFE"/>
<path d="M66.5274 7.30459C66.5274 7.30459 66.3215 7.69944 66.1155 7.69944H65.1886C65.1886 7.69944 64.7767 7.50202 64.7767 7.30459V2.36897C64.7767 2.36897 64.9827 1.97412 65.1886 1.97412H66.1155C66.1155 1.97412 66.5274 2.17155 66.5274 2.36897V7.30459Z" fill="#368AFE"/>
<path d="M97.7315 10.7594C97.7315 8.58777 99.2762 6.31738 102.366 6.31738C105.455 6.31738 107 8.58777 107 10.7594C107 12.9311 105.455 15.2015 102.366 15.2015C99.2762 15.2015 97.7315 13.0298 97.7315 10.7594ZM99.6882 8.48906C99.1732 9.18004 98.8643 9.96974 98.8643 10.7594C98.8643 11.6479 99.1732 12.635 99.8941 13.2273C99.8941 13.2273 99.8941 13.2273 100.1 13.2273C100.306 13.2273 100.306 13.0298 100.306 12.635V9.18004C100.306 9.18004 100.306 8.68648 100.1 8.58777C99.8941 8.58777 99.7911 8.48906 99.7911 8.39034L99.6882 8.48906ZM104.528 12.7337C104.528 12.7337 104.837 13.0298 105.043 13.1285C105.558 12.4376 105.867 11.6479 105.867 10.7594C105.867 9.08133 104.734 7.30451 102.366 7.30451C101.439 7.30451 100.718 7.60064 100.203 7.99549H102.675C103.602 7.99549 105.146 7.99549 105.146 9.57489C105.146 10.4633 104.322 11.0556 103.602 11.253L104.528 12.7337ZM104.116 13.8195C104.116 13.8195 103.808 13.6221 103.602 13.326L102.16 11.3517H101.439V12.635C101.439 12.635 101.439 13.1285 101.645 13.2273C102.263 13.326 102.16 13.9182 101.645 13.9182H100.821C100.821 13.9182 101.748 14.2144 102.366 14.2144C103.087 14.2144 103.602 14.017 104.116 13.8195ZM102.469 8.78519C102.469 8.78519 101.439 8.78519 101.439 9.08133V10.6607H102.366C103.293 10.6607 103.807 10.2659 103.807 9.67361C103.807 9.08133 103.293 8.88391 102.469 8.88391V8.78519Z" fill="#368AFE"/>
</g>
<defs>
<clipPath id="clip0_72_3720">
<rect width="107" height="23" fill="white"/>
</clipPath>
</defs>
</svg>
