<svg width="68" height="68" viewBox="0 0 68 68" fill="none" xmlns="http://www.w3.org/2000/svg">
<circle cx="34" cy="34" r="34" fill="#367F76"/>
<line x1="9" y1="45.165" x2="58" y2="45.165" stroke="white" stroke-width="1.67"/>
<mask id="mask0_382_22" style="mask-type:luminance" maskUnits="userSpaceOnUse" x="14" y="6" width="40" height="39">
<path d="M53.9755 6.63379H14.1707V44.9632H53.9755V6.63379Z" fill="white"/>
</mask>
<g mask="url(#mask0_382_22)">
<path d="M29.696 37.6142C31.1151 38.2854 32.7053 38.6641 34.3809 38.6641C36.0565 38.6641 37.6467 38.2854 39.0658 37.6142V39.8689H42.9642L40.9808 39.2665V36.4783C43.5114 34.585 45.2212 31.6591 45.4606 28.3029C46.7772 27.9071 47.7518 26.6679 47.7518 25.2049C47.7518 24.2583 47.3243 23.3633 46.6233 22.7609V16.1174C46.6233 14.293 45.7 12.5891 44.2124 11.5736C43.7166 9.68037 42.0238 8.33789 40.0233 8.33789H30.9954C26.1053 8.33789 22.1385 12.3309 22.1385 17.2533V22.7609C21.4375 23.3633 21.01 24.2583 21.01 25.2049C21.01 26.6679 21.9846 27.9071 23.3012 28.3029C23.5406 31.6419 25.2504 34.585 27.7809 36.4783V39.2665L25.7975 39.8689H29.696V37.6142ZM25.1649 27.4596C25.1649 26.926 24.7374 26.4957 24.2074 26.4957C23.4893 26.4957 22.9079 25.9106 22.9079 25.1877C22.9079 24.723 23.1473 24.2927 23.5577 24.0517C23.5748 24.0517 23.5919 24.0173 23.6261 24.0173C23.8141 23.9313 24.0022 23.8796 24.2074 23.8796H25.6437C26.5499 23.8796 27.3364 23.2944 27.6271 22.4511L28.2768 20.4718C30.5167 20.4202 37.5954 20.1104 41.5622 18.1139C42.0409 17.8729 42.229 17.3049 41.9896 16.823C41.7503 16.3411 41.186 16.1518 40.7073 16.3927C36.4498 18.5442 27.6613 18.5614 27.5758 18.5614C27.1654 18.5614 26.8063 18.8195 26.6696 19.2154L25.7975 21.8487C25.7975 21.8487 25.712 21.9692 25.6266 21.9692H24.1903C24.1903 21.9692 24.0706 21.9692 24.0193 21.9692V17.2361C24.0193 13.3808 27.1312 10.2311 30.9783 10.2311H40.0062C41.2031 10.2311 42.2119 11.0917 42.4 12.2965C42.4513 12.5891 42.6223 12.8472 42.8788 12.9849C44.0072 13.6217 44.7083 14.8093 44.7083 16.1002V23.2428C44.7083 23.587 44.8964 23.8968 45.187 24.069C45.5974 24.3099 45.8368 24.723 45.8368 25.2049C45.8368 25.9278 45.2554 26.513 44.5373 26.513C44.0072 26.513 43.5798 26.9432 43.5798 27.4768C43.5798 32.5885 39.442 36.7536 34.3638 36.7536C29.2856 36.7536 25.1478 32.5885 25.1478 27.4768L25.1649 27.4596Z" fill="white"/>
<path d="M34.3809 32.9671C35.5264 32.9671 36.6207 32.4164 37.3731 31.4697C37.6979 31.0567 37.6466 30.4543 37.2363 30.11C36.8259 29.783 36.2275 29.8347 35.8855 30.2477C35.4751 30.7469 34.9451 31.0222 34.3638 31.0222C33.7824 31.0222 33.2524 30.7469 32.842 30.2477C32.5171 29.8347 31.9016 29.7658 31.4912 30.11C31.0809 30.4371 31.0125 31.0567 31.3545 31.4697C32.1239 32.4164 33.2182 32.9671 34.3467 32.9671H34.3809Z" fill="white"/>
<path d="M29.8669 27.2872C30.397 27.2872 30.8244 26.8569 30.8244 26.3234V25.1875C30.8244 24.6539 30.397 24.2236 29.8669 24.2236C29.3369 24.2236 28.9094 24.6539 28.9094 25.1875V26.3234C28.9094 26.8569 29.3369 27.2872 29.8669 27.2872Z" fill="white"/>
<path d="M38.8948 27.2872C39.4248 27.2872 39.8523 26.8569 39.8523 26.3234V25.1875C39.8523 24.6539 39.4248 24.2236 38.8948 24.2236C38.3647 24.2236 37.9373 24.6539 37.9373 25.1875V26.3234C37.9373 26.8569 38.3647 27.2872 38.8948 27.2872Z" fill="white"/>
<path d="M20.3774 42.5192C20.4971 42.9322 20.8733 43.2076 21.2836 43.2076C21.3691 43.2076 21.4717 43.2076 21.5572 43.1732L23.6432 42.5364C24.1732 44.8255 25.4214 46.908 27.2167 48.4571C29.2343 50.1954 31.7991 51.1592 34.4664 51.1592C39.6472 51.1592 44.127 47.5104 45.2897 42.5364L48.7093 43.5691C49.7523 43.8789 50.4363 44.8255 50.4363 45.9098V56.0472H50.2653H45.5803V51.5551L47.7347 47.2178C47.9741 46.7359 47.786 46.168 47.3073 45.927C46.8285 45.686 46.2643 45.8754 46.0249 46.3573L43.7679 50.901C43.6995 51.0387 43.6653 51.1764 43.6653 51.3313V69.5236C43.6653 70.0571 44.0928 70.4874 44.6228 70.4874C45.1529 70.4874 45.5803 70.0571 45.5803 69.5236V57.9749H49.3249V69.5236C49.3249 70.0571 49.7523 70.4874 50.2824 70.4874C50.8124 70.4874 51.2399 70.0571 51.2399 69.5236V57.9749H51.4109C51.9409 57.9749 52.3684 57.5446 52.3684 57.011V45.9098C52.3684 43.9649 51.1202 42.2782 49.2736 41.7275L43.0669 39.8514H39.1685V39.9719C39.1685 42.5708 37.0654 44.6878 34.4835 44.6878C31.9017 44.6878 29.7131 42.5192 29.7131 39.9203V39.7998L25.9002 39.8514L21.0443 41.3144C20.5313 41.4693 20.2577 42.0028 20.4116 42.5192H20.3774Z" fill="white"/>
<path d="M47.8373 41.3321L42.9814 39.8691H39.083V39.9896C39.083 42.5885 36.9799 44.7055 34.398 44.7055C31.8162 44.7055 29.7131 42.5885 29.7131 39.9896V39.8691H25.8147L19.608 41.7452C17.7614 42.2959 16.5132 43.9826 16.5132 45.9275V57.0287C16.5132 57.5623 16.9406 57.9926 17.4707 57.9926H17.6417V69.5413C17.6417 70.0748 18.0691 70.5051 18.5992 70.5051C19.1292 70.5051 19.5567 70.0748 19.5567 69.5413V57.9926H23.3012V69.5413C23.3012 70.0748 23.7287 70.5051 24.2587 70.5051C24.7888 70.5051 25.2162 70.0748 25.2162 69.5413V51.349C25.2162 51.1941 25.182 51.0564 25.1136 50.9188L22.8567 46.375C22.6173 45.8931 22.053 45.7037 21.5743 45.9447C21.0955 46.1857 20.9075 46.7536 21.1468 47.2355L23.3012 51.5728V56.0649H18.4282V45.9275C18.4282 44.8432 19.1292 43.8966 20.1551 43.5868L23.5748 42.5541C24.7375 47.5454 29.2172 51.1769 34.398 51.1769C37.0654 51.1769 39.6301 50.2131 41.6477 48.4748C43.443 46.9257 44.6912 44.8432 45.2213 42.5541L47.3072 43.1909C47.3927 43.2253 47.4953 43.2253 47.5808 43.2253C47.9912 43.2253 48.3673 42.95 48.487 42.5369C48.6409 42.0205 48.3502 41.487 47.8544 41.3321H47.8373Z" fill="white"/>
</g>
<path d="M26.5434 54.59V55.3H31.3234V54.59H26.5434ZM26.5434 52.99V53.67H31.3234V52.99H26.5434ZM25.3434 52H32.5734V56.29H25.3434V52ZM28.3134 52.47H29.5234V55.79H28.3134V52.47ZM24.6734 56.99H32.2334V58.06H24.6734V56.99ZM31.6934 56.99H32.9134C32.9134 56.99 32.91 57.02 32.9034 57.08C32.9034 57.1333 32.9 57.1967 32.8934 57.27C32.8934 57.3433 32.89 57.4067 32.8834 57.46C32.83 58.0733 32.77 58.58 32.7034 58.98C32.6367 59.38 32.56 59.7 32.4734 59.94C32.3934 60.1733 32.2967 60.3433 32.1834 60.45C32.05 60.5833 31.9034 60.6767 31.7434 60.73C31.59 60.79 31.4067 60.8267 31.1934 60.84C31.0134 60.8533 30.78 60.86 30.4934 60.86C30.2067 60.86 29.9067 60.8567 29.5934 60.85C29.58 60.6833 29.5367 60.4967 29.4634 60.29C29.3967 60.0833 29.31 59.9033 29.2034 59.75C29.51 59.7767 29.8067 59.7933 30.0934 59.8C30.38 59.8067 30.59 59.81 30.7234 59.81C30.8234 59.81 30.9067 59.8067 30.9734 59.8C31.0467 59.7867 31.11 59.7567 31.1634 59.71C31.2434 59.6433 31.3134 59.5133 31.3734 59.32C31.44 59.12 31.4967 58.8433 31.5434 58.49C31.5967 58.1367 31.6434 57.69 31.6834 57.15L31.6934 56.99ZM28.1334 56.09H29.3934C29.34 56.5433 29.2667 56.9767 29.1734 57.39C29.08 57.7967 28.94 58.1767 28.7534 58.53C28.5667 58.8833 28.31 59.21 27.9834 59.51C27.6634 59.8033 27.25 60.0667 26.7434 60.3C26.2367 60.5333 25.6134 60.73 24.8734 60.89C24.84 60.7833 24.7867 60.6667 24.7134 60.54C24.6467 60.4133 24.5734 60.2867 24.4934 60.16C24.4134 60.0333 24.33 59.9267 24.2434 59.84C24.9167 59.7133 25.4767 59.56 25.9234 59.38C26.37 59.2 26.73 58.9967 27.0034 58.77C27.2834 58.5433 27.4967 58.2933 27.6434 58.02C27.79 57.74 27.9 57.44 27.9734 57.12C28.0467 56.7933 28.1 56.45 28.1334 56.09ZM35.4534 51.5H36.6534V60.89H35.4534V51.5ZM34.6134 53.43L35.4634 53.55C35.45 53.8367 35.4234 54.15 35.3834 54.49C35.3434 54.83 35.29 55.1633 35.2234 55.49C35.1634 55.8167 35.0934 56.11 35.0134 56.37L34.1234 56.05C34.2034 55.83 34.2734 55.5667 34.3334 55.26C34.4 54.9533 34.4567 54.64 34.5034 54.32C34.5567 54 34.5934 53.7033 34.6134 53.43ZM36.4234 53.5L37.2334 53.16C37.3734 53.4133 37.5067 53.6933 37.6334 54C37.76 54.3067 37.85 54.5667 37.9034 54.78L37.0334 55.18C37.0067 55.0333 36.96 54.8667 36.8934 54.68C36.8267 54.4867 36.7534 54.2867 36.6734 54.08C36.5934 53.8733 36.51 53.68 36.4234 53.5ZM38.3134 51.96L39.4834 52.14C39.4167 52.6333 39.3267 53.1233 39.2134 53.61C39.1067 54.09 38.98 54.54 38.8334 54.96C38.6934 55.3733 38.5367 55.7367 38.3634 56.05C38.29 55.9967 38.1867 55.9333 38.0534 55.86C37.92 55.7867 37.7834 55.72 37.6434 55.66C37.51 55.5933 37.3934 55.54 37.2934 55.5C37.4734 55.22 37.63 54.89 37.7634 54.51C37.8967 54.13 38.0067 53.7233 38.0934 53.29C38.1867 52.85 38.26 52.4067 38.3134 51.96ZM38.6734 53.53H43.2934V54.66H38.3234L38.6734 53.53ZM40.0434 51.56H41.2434V60.09H40.0434V51.56ZM38.0934 56.31H43.0734V57.43H38.0934V56.31ZM37.3434 59.43H43.6034V60.58H37.3434V59.43Z" fill="white"/>
</svg>
