<svg width="82" height="82" viewBox="0 0 82 82" fill="none" xmlns="http://www.w3.org/2000/svg">
<circle cx="41" cy="41" r="41" fill="#368AFE"/>
<line x1="11" y1="54.165" x2="70" y2="54.165" stroke="white" stroke-width="1.67"/>
<path d="M37.6608 60.62H38.9908V65.84H37.6608V60.62ZM38.6308 62.57H40.2208V63.66H38.6308V62.57ZM32.9708 66.26H38.9908V69.79H32.9708V66.26ZM37.7008 67.31H34.2808V68.74H37.7008V67.31ZM32.0808 61.06H33.4108V64.85H32.0808V61.06ZM32.0808 64.28H32.8508C33.4841 64.28 34.1408 64.2567 34.8208 64.21C35.5074 64.1567 36.2141 64.06 36.9408 63.92L37.0908 64.98C36.3441 65.1333 35.6141 65.24 34.9008 65.3C34.1941 65.3533 33.5108 65.38 32.8508 65.38H32.0808V64.28ZM43.06 61.11H44.16V61.93C44.16 62.55 44.0633 63.1333 43.87 63.68C43.6833 64.2267 43.3967 64.7033 43.01 65.11C42.6233 65.5167 42.1267 65.8233 41.52 66.03L40.82 64.96C41.3533 64.7933 41.7833 64.5533 42.11 64.24C42.4367 63.9267 42.6767 63.57 42.83 63.17C42.9833 62.77 43.06 62.3567 43.06 61.93V61.11ZM43.33 61.11H44.41V61.87C44.41 62.2767 44.48 62.67 44.62 63.05C44.76 63.4233 44.9833 63.7567 45.29 64.05C45.5967 64.3367 45.9933 64.56 46.48 64.72L45.79 65.76C45.2233 65.56 44.7567 65.27 44.39 64.89C44.03 64.51 43.7633 64.0633 43.59 63.55C43.4167 63.03 43.33 62.47 43.33 61.87V61.11ZM47.32 60.63H48.66V66.05H47.32V60.63ZM45.52 66.29C46.5 66.29 47.2733 66.45 47.84 66.77C48.4067 67.0833 48.69 67.52 48.69 68.08C48.69 68.6533 48.4067 69.0967 47.84 69.41C47.2733 69.73 46.5 69.89 45.52 69.89C44.54 69.89 43.7667 69.73 43.2 69.41C42.6333 69.0967 42.35 68.6533 42.35 68.08C42.35 67.52 42.6333 67.0833 43.2 66.77C43.7667 66.45 44.54 66.29 45.52 66.29ZM45.52 67.32C45.12 67.32 44.7833 67.3467 44.51 67.4C44.2367 67.4533 44.0267 67.54 43.88 67.66C43.74 67.7733 43.67 67.9133 43.67 68.08C43.67 68.2533 43.74 68.4 43.88 68.52C44.0267 68.6333 44.2367 68.72 44.51 68.78C44.7833 68.8333 45.12 68.86 45.52 68.86C45.92 68.86 46.2567 68.8333 46.53 68.78C46.8033 68.72 47.01 68.6333 47.15 68.52C47.29 68.4 47.36 68.2533 47.36 68.08C47.36 67.9133 47.29 67.7733 47.15 67.66C47.01 67.54 46.8033 67.4533 46.53 67.4C46.2567 67.3467 45.92 67.32 45.52 67.32ZM45.63 62.31H47.52V63.39H45.63V62.31Z" fill="white"/>
<mask id="mask0_131_11" style="mask-type:luminance" maskUnits="userSpaceOnUse" x="17" y="8" width="48" height="47">
<path d="M65 8H17V54.2208H65V8Z" fill="white"/>
</mask>
<g mask="url(#mask0_131_11)">
<path d="M35.7217 45.3585C37.433 46.1679 39.3505 46.6245 41.3711 46.6245C43.3918 46.6245 45.3093 46.1679 47.0206 45.3585V48.0773H51.7217L49.3299 47.3509V43.9887C52.3815 41.7056 54.4433 38.1773 54.732 34.1302C56.3196 33.6528 57.4949 32.1585 57.4949 30.3943C57.4949 29.2528 56.9794 28.1736 56.134 27.4471V19.4358C56.134 17.2358 55.0206 15.1811 53.2268 13.9566C52.6289 11.6736 50.5876 10.0547 48.1753 10.0547H37.2887C31.3918 10.0547 26.6083 14.8698 26.6083 20.8056V27.4471C25.7629 28.1736 25.2474 29.2528 25.2474 30.3943C25.2474 32.1585 26.4227 33.6528 28.0103 34.1302C28.299 38.1566 30.3608 41.7056 33.4124 43.9887V47.3509L31.0206 48.0773H35.7217V45.3585ZM30.2577 33.1132C30.2577 32.4698 29.7423 31.9509 29.1031 31.9509C28.2371 31.9509 27.5361 31.2453 27.5361 30.3736C27.5361 29.8132 27.8248 29.2943 28.3196 29.0037C28.3402 29.0037 28.3608 28.9622 28.4021 28.9622C28.6289 28.8585 28.8557 28.7962 29.1031 28.7962H30.8351C31.9278 28.7962 32.8763 28.0905 33.2268 27.0736L34.0103 24.6868C36.7114 24.6245 45.2474 24.2509 50.0309 21.8434C50.6083 21.5528 50.8351 20.8679 50.5464 20.2868C50.2577 19.7056 49.5773 19.4773 49 19.7679C43.866 22.3622 33.2681 22.383 33.165 22.383C32.6701 22.383 32.2371 22.6943 32.0722 23.1717L31.0206 26.3471C31.0206 26.3471 30.9175 26.4924 30.8144 26.4924H29.0825C29.0825 26.4924 28.9382 26.4924 28.8763 26.4924V20.7849C28.8763 16.1358 32.6289 12.3377 37.2681 12.3377H48.1547C49.5979 12.3377 50.8144 13.3754 51.0413 14.8283C51.1031 15.1811 51.3093 15.4924 51.6186 15.6585C52.9794 16.4264 53.8248 17.8585 53.8248 19.4151V28.0283C53.8248 28.4434 54.0516 28.817 54.4021 29.0245C54.8969 29.3151 55.1856 29.8132 55.1856 30.3943C55.1856 31.266 54.4845 31.9717 53.6186 31.9717C52.9794 31.9717 52.4639 32.4905 52.4639 33.1339C52.4639 39.2981 47.4742 44.3207 41.3505 44.3207C35.2268 44.3207 30.2371 39.2981 30.2371 33.1339L30.2577 33.1132Z" fill="white"/>
<path d="M41.3712 39.7545C42.7526 39.7545 44.0722 39.0904 44.9794 37.9489C45.3712 37.4507 45.3093 36.7243 44.8145 36.3092C44.3196 35.9149 43.598 35.9772 43.1856 36.4753C42.6907 37.0772 42.0516 37.4092 41.3505 37.4092C40.6495 37.4092 40.0103 37.0772 39.5155 36.4753C39.1237 35.9772 38.3815 35.8941 37.8866 36.3092C37.3918 36.7036 37.3093 37.4507 37.7217 37.9489C38.6495 39.0904 39.9691 39.7545 41.3299 39.7545H41.3712Z" fill="white"/>
<path d="M35.9278 32.9058C36.567 32.9058 37.0825 32.3869 37.0825 31.7435V30.3737C37.0825 29.7303 36.567 29.2114 35.9278 29.2114C35.2887 29.2114 34.7732 29.7303 34.7732 30.3737V31.7435C34.7732 32.3869 35.2887 32.9058 35.9278 32.9058Z" fill="white"/>
<path d="M46.8144 32.9058C47.4536 32.9058 47.9691 32.3869 47.9691 31.7435V30.3737C47.9691 29.7303 47.4536 29.2114 46.8144 29.2114C46.1753 29.2114 45.6598 29.7303 45.6598 30.3737V31.7435C45.6598 32.3869 46.1753 32.9058 46.8144 32.9058Z" fill="white"/>
<path d="M24.4846 51.2734C24.6289 51.7715 25.0825 52.1036 25.5774 52.1036C25.6805 52.1036 25.8042 52.1036 25.9073 52.0621L28.4227 51.2941C29.0619 54.0545 30.5671 56.5658 32.732 58.4338C35.165 60.53 38.2578 61.6923 41.4743 61.6923C47.7217 61.6923 53.1238 57.2923 54.5258 51.2941L58.6495 52.5394C59.9073 52.913 60.732 54.0545 60.732 55.3621V67.5866H60.5258H54.8763V62.1696L57.4743 56.9394C57.7629 56.3583 57.5361 55.6734 56.9588 55.3828C56.3815 55.0923 55.7011 55.3206 55.4124 55.9017L52.6908 61.3809C52.6083 61.547 52.5671 61.713 52.5671 61.8998V83.8375C52.5671 84.4809 53.0825 84.9998 53.7217 84.9998C54.3609 84.9998 54.8763 84.4809 54.8763 83.8375V69.9111H59.3918V83.8375C59.3918 84.4809 59.9073 84.9998 60.5464 84.9998C61.1856 84.9998 61.7011 84.4809 61.7011 83.8375V69.9111H61.9073C62.5464 69.9111 63.0619 69.3923 63.0619 68.7489V55.3621C63.0619 53.0168 61.5567 50.9828 59.3299 50.3187L51.8454 48.0564H47.1444V48.2017C47.1444 51.3357 44.6083 53.8885 41.4949 53.8885C38.3815 53.8885 35.7423 51.2734 35.7423 48.1394V47.9941L31.1444 48.0564L25.2887 49.8206C24.6701 50.0073 24.3402 50.6507 24.5258 51.2734H24.4846Z" fill="white"/>
<path d="M57.598 49.8413L51.7423 48.0771H47.0413V48.2224C47.0413 51.3564 44.5052 53.9092 41.3918 53.9092C38.2784 53.9092 35.7423 51.3564 35.7423 48.2224V48.0771H31.0413L23.5567 50.3394C21.3299 51.0036 19.8248 53.0375 19.8248 55.3828V68.7696C19.8248 69.413 20.3402 69.9319 20.9794 69.9319H21.1856V83.8583C21.1856 84.5017 21.7011 85.0205 22.3402 85.0205C22.9794 85.0205 23.4949 84.5017 23.4949 83.8583V69.9319H28.0103V83.8583C28.0103 84.5017 28.5258 85.0205 29.165 85.0205C29.8041 85.0205 30.3196 84.5017 30.3196 83.8583V61.9205C30.3196 61.7338 30.2784 61.5677 30.1959 61.4017L27.4743 55.9224C27.1856 55.3413 26.5052 55.113 25.9279 55.4036C25.3505 55.6941 25.1237 56.379 25.4124 56.9602L28.0103 62.1904V67.6073H22.134V55.3828C22.134 54.0753 22.9794 52.9338 24.2165 52.5602L28.3402 51.3149C29.7423 57.3338 35.1444 61.713 41.3918 61.713C44.6083 61.713 47.7011 60.5507 50.134 58.4545C52.299 56.5866 53.8041 54.0753 54.4433 51.3149L56.9588 52.0828C57.0619 52.1243 57.1856 52.1243 57.2887 52.1243C57.7835 52.1243 58.2371 51.7922 58.3815 51.2941C58.567 50.6715 58.2165 50.0281 57.6186 49.8413H57.598Z" fill="white"/>
</g>
</svg>
