<svg width="107" height="23" viewBox="0 0 107 23" fill="none" xmlns="http://www.w3.org/2000/svg">
<g clip-path="url(#clip0_76_47957)">
<path d="M28.8353 18.953V19.9401H23.9951V18.953C23.9951 18.953 24.0981 18.4594 24.4071 18.4594C24.4071 18.4594 24.4071 18.4594 24.51 18.4594C24.51 18.4594 24.613 18.4594 24.819 18.4594C24.922 18.4594 25.1279 18.4594 25.3339 18.4594V13.2277C25.3339 13.2277 24.922 13.2277 24.819 13.2277C24.716 13.2277 24.613 13.2277 24.51 13.2277C24.51 13.2277 24.51 13.2277 24.4071 13.2277C24.0981 13.2277 23.9951 13.0303 23.9951 12.7341V11.747H27.4966V18.6569C27.4966 18.6569 27.9085 18.6569 28.0115 18.6569C28.1145 18.6569 28.2174 18.6569 28.3204 18.6569C28.3204 18.6569 28.3204 18.6569 28.4234 18.6569C28.7324 18.6569 28.8353 18.8543 28.8353 19.1504V18.953ZM27.7025 9.3779C27.7025 9.3779 27.4966 9.67404 27.3936 9.77275C27.2906 9.87146 27.0846 9.97017 26.9816 10.0689C26.7757 10.0689 26.6727 10.1676 26.4667 10.1676C26.2608 10.1676 26.0548 10.1676 25.9518 10.0689C25.7458 10.0689 25.6429 9.87146 25.5399 9.77275C25.4369 9.67404 25.3339 9.47661 25.2309 9.3779C25.2309 9.18047 25.1279 9.08176 25.1279 8.88434C25.1279 8.68691 25.1279 8.48949 25.2309 8.39077C25.2309 8.19335 25.4369 8.09464 25.5399 7.99592C25.6429 7.89721 25.8488 7.7985 25.9518 7.69979C26.1578 7.69979 26.2608 7.60107 26.4667 7.60107C26.6727 7.60107 26.8787 7.60107 26.9816 7.69979C27.1876 7.69979 27.2906 7.89721 27.3936 7.99592C27.4966 8.09464 27.5995 8.29206 27.7025 8.39077C27.7025 8.5882 27.8055 8.68691 27.8055 8.88434C27.8055 9.08176 27.8055 9.18047 27.7025 9.3779Z" fill="black"/>
<path d="M38.619 19.94H36.0444H35.7355C35.7355 19.94 35.5295 19.7425 35.5295 19.6438L35.3236 18.8541C35.3236 18.8541 34.4997 19.5451 34.0877 19.8413C33.5728 20.0387 33.0579 20.2361 32.44 20.2361C31.9251 20.2361 31.5132 20.2361 31.1012 19.94C30.6893 19.7425 30.3803 19.4464 30.0714 19.0516C29.7624 18.6567 29.5565 18.2619 29.3505 17.6696C29.1445 17.0773 29.1445 16.485 29.1445 15.794C29.1445 15.1031 29.1445 14.5108 29.4535 14.0172C29.6594 13.4249 29.8654 13.0301 30.2774 12.6352C30.5863 12.2404 30.9982 11.9443 31.5132 11.6481C32.0281 11.4507 32.543 11.352 33.0579 11.352C33.5728 11.352 33.9848 11.352 34.3967 11.5494C34.7056 11.7468 35.0146 11.9443 35.3236 12.1417V9.27903C35.3236 9.27903 34.9116 9.27903 34.8086 9.27903C34.7057 9.27903 34.6027 9.27903 34.4997 9.27903C34.4997 9.27903 34.4997 9.27903 34.3967 9.27903C34.0877 9.27903 33.9848 9.0816 33.9848 8.78546V7.79834H37.4862V18.558C37.4862 18.558 37.7952 18.558 37.8981 18.558C38.0011 18.558 38.1041 18.558 38.1041 18.558C38.1041 18.558 38.1041 18.558 38.2071 18.558C38.516 18.558 38.619 18.7554 38.619 19.0516V20.0387V19.94ZM35.3236 13.5237C35.3236 13.5237 34.8086 13.0301 34.4997 12.9314C34.1907 12.8327 33.8818 12.734 33.5728 12.734C33.2639 12.734 32.9549 12.734 32.646 12.9314C32.337 13.0301 32.1311 13.2275 31.9251 13.4249C31.7191 13.6224 31.6161 14.0172 31.5132 14.3134C31.5132 14.7082 31.4102 15.1031 31.4102 15.5966C31.4102 16.0902 31.4102 16.485 31.5132 16.8799C31.5132 17.2747 31.7191 17.4722 31.9251 17.7683C32.1311 17.9657 32.234 18.1631 32.543 18.2619C32.749 18.3606 33.0579 18.4593 33.2639 18.4593C33.6758 18.4593 34.0877 18.4593 34.3967 18.1631C34.7056 17.9657 35.0146 17.7683 35.3236 17.3734V13.5237Z" fill="black"/>
<path d="M48.5053 19.94H45.9307H45.6217C45.6217 19.94 45.4157 19.7425 45.4157 19.6438L45.2098 18.8541C45.2098 18.8541 44.3859 19.5451 43.974 19.8413C43.4591 20.0387 42.9441 20.2361 42.3262 20.2361C41.8113 20.2361 41.3994 20.2361 40.9875 19.94C40.5755 19.7425 40.2666 19.4464 39.9576 19.0516C39.6487 18.6567 39.4427 18.2619 39.2367 17.6696C39.0308 17.0773 39.0308 16.485 39.0308 15.794C39.0308 15.1031 39.0308 14.5108 39.3397 14.0172C39.5457 13.4249 39.7516 13.0301 40.1636 12.6352C40.5755 12.2404 40.8845 11.9443 41.3994 11.6481C41.9143 11.4507 42.4292 11.352 42.9441 11.352C43.4591 11.352 43.871 11.352 44.2829 11.5494C44.5919 11.7468 45.0038 11.9443 45.2098 12.1417V9.27903C45.2098 9.27903 44.7978 9.27903 44.6949 9.27903C44.5919 9.27903 44.4889 9.27903 44.3859 9.27903C44.3859 9.27903 44.3859 9.27903 44.2829 9.27903C43.974 9.27903 43.871 9.0816 43.871 8.78546V7.79834H47.3724V18.558C47.3724 18.558 47.6814 18.558 47.7844 18.558C47.8874 18.558 47.9903 18.558 47.9903 18.558C47.9903 18.558 47.9903 18.558 48.0933 18.558C48.4023 18.558 48.5053 18.7554 48.5053 19.0516V20.0387V19.94ZM45.1068 13.5237C45.1068 13.5237 44.5919 13.0301 44.2829 12.9314C43.974 12.8327 43.665 12.734 43.3561 12.734C43.0471 12.734 42.7382 12.734 42.4292 12.9314C42.1203 13.0301 41.9143 13.2275 41.7083 13.4249C41.5024 13.6224 41.3994 14.0172 41.2964 14.3134C41.2964 14.7082 41.1934 15.1031 41.1934 15.5966C41.1934 16.0902 41.1934 16.485 41.2964 16.8799C41.2964 17.2747 41.5024 17.4722 41.7083 17.7683C41.9143 17.9657 42.0173 18.1631 42.3262 18.2619C42.5322 18.3606 42.8412 18.4593 43.0471 18.4593C43.4591 18.4593 43.871 18.4593 44.1799 18.1631C44.4889 17.9657 44.7978 17.7683 45.1068 17.3734V13.5237Z" fill="black"/>
<path d="M54.7871 11.4507C54.7871 11.4507 55.714 11.8455 56.023 12.2404C56.3319 12.5365 56.6409 13.0301 56.8468 13.4249C57.0528 13.9185 57.1558 14.412 57.1558 15.103C57.1558 15.3005 57.1558 15.3992 57.1558 15.4979C57.1558 15.5966 57.1558 15.6953 57.1558 15.6953C57.1558 15.6953 57.1558 15.794 57.0528 15.794C57.0528 15.794 56.9498 15.794 56.8468 15.794H51.2857C51.2857 16.6824 51.5947 17.3734 52.0066 17.7683C52.4185 18.1631 53.0364 18.3605 53.7573 18.3605C54.0663 18.3605 54.3752 18.3605 54.6842 18.2618C54.8901 18.2618 55.1991 18.0644 55.3021 17.9657C55.508 17.9657 55.611 17.7683 55.817 17.6696C55.92 17.6696 56.1259 17.5708 56.2289 17.5708H56.4349C56.4349 17.5708 56.5379 17.5708 56.6409 17.6696L57.2588 18.4593C57.2588 18.4593 56.7438 18.9528 56.4349 19.1502C56.1259 19.3477 55.817 19.4464 55.508 19.5451C55.1991 19.6438 54.8901 19.7425 54.4782 19.7425C54.1692 19.7425 53.8603 19.7425 53.5513 19.7425C52.9334 19.7425 52.3155 19.7425 51.8006 19.4464C51.2857 19.249 50.7708 18.9528 50.3588 18.558C49.9469 18.1631 49.638 17.6696 49.432 17.0773C49.226 16.485 49.123 15.794 49.123 15.103C49.123 14.5108 49.123 13.9185 49.432 13.4249C49.638 12.9314 49.9469 12.4378 50.2559 12.0429C50.6678 11.6481 51.0797 11.352 51.5947 11.1545C52.1096 10.9571 52.7275 10.8584 53.4484 10.8584C53.9633 10.8584 54.5812 10.8584 54.9931 11.1545L54.7871 11.4507ZM51.8006 13.2275C51.8006 13.2275 51.1827 14.0172 51.0797 14.7082H55.0961C55.0961 14.7082 55.0961 14.2146 54.9931 13.9185C54.9931 13.7211 54.7871 13.4249 54.6842 13.3262C54.4782 13.1288 54.3752 13.0301 54.0663 12.9314C53.8603 12.8326 53.5513 12.7339 53.2424 12.7339C52.6245 12.7339 52.1096 12.9314 51.8006 13.2275Z" fill="black"/>
<path d="M67.9692 18.9527V19.9398H64.4677V14.5106C64.4677 14.017 64.3647 13.6222 64.0558 13.3261C63.8498 13.0299 63.4379 12.9312 62.923 12.9312C62.511 12.9312 62.2021 12.9312 61.8931 13.1286C61.5842 13.3261 61.2752 13.5235 60.9663 13.8196V18.3604C60.9663 18.3604 61.3782 18.3604 61.4812 18.3604C61.5842 18.3604 61.6872 18.3604 61.7902 18.3604C61.7902 18.3604 61.7902 18.3604 61.8931 18.3604C62.2021 18.3604 62.3051 18.5578 62.3051 18.854V19.8411H57.4648V18.854C57.4648 18.854 57.5678 18.3604 57.8768 18.3604C57.8768 18.3604 57.8768 18.3604 57.9798 18.3604C57.9798 18.3604 58.0827 18.3604 58.2887 18.3604C58.3917 18.3604 58.5977 18.3604 58.8036 18.3604V13.1286C58.8036 13.1286 58.3917 13.1286 58.2887 13.1286C58.1857 13.1286 58.0827 13.1286 57.9798 13.1286C57.9798 13.1286 57.9798 13.1286 57.8768 13.1286C57.5678 13.1286 57.4648 12.9312 57.4648 12.6351V11.6479H60.1424C60.1424 11.6479 60.6573 11.7467 60.6573 12.0428V12.7338C60.6573 12.7338 61.1723 12.4376 61.3782 12.2402C61.5842 12.1415 61.7902 11.9441 61.9961 11.8454C62.2021 11.7467 62.511 11.6479 62.717 11.6479C62.923 11.6479 63.2319 11.6479 63.5409 11.6479C64.0558 11.6479 64.4677 11.648 64.8797 11.8454C65.2916 12.0428 65.6006 12.2402 65.8065 12.5364C66.0125 12.8325 66.2185 13.1286 66.4244 13.5235C66.5274 13.9183 66.6304 14.4119 66.6304 14.8067V18.6565C66.6304 18.6565 67.0423 18.6565 67.1453 18.6565C67.2483 18.6565 67.3513 18.6565 67.4543 18.6565C67.4543 18.6565 67.4543 18.6565 67.5572 18.6565C67.8662 18.6565 67.9692 18.854 67.9692 19.1501V18.9527Z" fill="black"/>
<path d="M74.869 7.79834V18.3606C74.869 18.3606 75.281 18.3606 75.384 18.3606C75.4869 18.3606 75.5899 18.3606 75.6929 18.3606C75.6929 18.3606 75.6929 18.3606 75.7959 18.3606C76.1048 18.3606 76.2078 18.558 76.2078 18.8541V19.8413H71.1616V18.8541C71.1616 18.8541 71.2646 18.3606 71.5736 18.3606C71.5736 18.3606 71.5736 18.3606 71.6765 18.3606C71.6765 18.3606 71.7795 18.3606 71.9855 18.3606C72.0885 18.3606 72.2944 18.3606 72.5004 18.3606V7.79834H74.869Z" fill="black"/>
<path d="M87.3303 18.953V19.9401H85.2706C85.2706 19.9401 84.8587 19.9401 84.7557 19.9401C84.6527 19.9401 84.5498 19.7427 84.4468 19.5453L84.2408 18.953C84.2408 18.953 83.8289 19.3478 83.5199 19.4466C83.3139 19.644 83.108 19.7427 82.799 19.8414C82.5931 19.9401 82.2841 20.0388 82.0781 20.0388C81.7692 20.0388 81.5632 20.0388 81.2543 20.0388C80.8423 20.0388 80.5334 20.0388 80.2244 19.9401C79.9155 19.9401 79.6065 19.7427 79.4006 19.5453C79.1946 19.3478 78.9886 19.1504 78.8857 18.8543C78.7827 18.5581 78.6797 18.262 78.6797 17.8672C78.6797 17.571 78.6797 17.1762 78.9886 16.88C79.1946 16.5839 79.5036 16.2878 79.9155 15.9916C80.3274 15.6955 80.8423 15.4981 81.5632 15.3993C82.2841 15.2019 83.108 15.1032 84.1378 15.1032V14.6096C84.1378 14.0174 84.0348 13.6225 83.7259 13.3264C83.5199 13.0302 83.108 12.9315 82.5931 12.9315C82.2841 12.9315 81.9752 12.9315 81.7692 13.0302C81.5632 13.0302 81.3573 13.2277 81.1513 13.3264C80.9453 13.3264 80.8423 13.5238 80.6364 13.6225C80.5334 13.6225 80.3274 13.7212 80.1215 13.7212C80.0185 13.7212 79.8125 13.7212 79.7095 13.6225C79.6065 13.6225 79.5036 13.4251 79.5036 13.3264L79.0916 12.6354C80.1215 11.747 81.3573 11.2534 82.799 11.2534C83.314 11.2534 83.8289 11.2534 84.2408 11.5496C84.6527 11.747 84.9617 11.9444 85.2706 12.2405C85.5796 12.5367 85.7856 12.9315 85.8885 13.3264C85.9915 13.7212 86.0945 14.2148 86.0945 14.7084V18.5581C86.0945 18.5581 86.4035 18.5581 86.5064 18.5581C86.6094 18.5581 86.7124 18.5581 86.7124 18.5581C87.0214 18.5581 87.1243 18.7556 87.1243 19.0517L87.3303 18.953ZM84.1378 16.2878C83.5199 16.2878 83.005 16.2878 82.5931 16.3865C82.1811 16.3865 81.8722 16.5839 81.5632 16.6826C81.3573 16.7813 81.1513 16.9787 81.0483 17.0775C80.9453 17.2749 80.8423 17.3736 80.8423 17.571C80.8423 17.9659 80.9453 18.1633 81.1513 18.3607C81.3573 18.5581 81.6662 18.5581 82.0781 18.5581C82.2841 18.5581 82.4901 18.5581 82.696 18.5581C82.902 18.5581 83.108 18.5581 83.211 18.3607C83.4169 18.3607 83.5199 18.1633 83.7259 18.0646C83.9319 17.9659 84.0348 17.8672 84.2408 17.6697V16.189L84.1378 16.2878Z" fill="black"/>
<path d="M92.6852 11.3517C92.6852 11.3517 93.3031 11.5491 93.6121 11.6479H96.1867V12.4376C96.1867 12.4376 96.1867 12.635 96.0837 12.7337C96.0837 12.7337 95.8777 12.8324 95.7747 12.9311H94.9509C94.9509 12.9311 95.0539 13.326 95.0539 13.5234C95.0539 13.7208 95.0539 13.8195 95.0539 14.017C95.0539 14.4118 95.0539 14.8067 94.7449 15.2015C94.5389 15.4976 94.333 15.7938 94.024 16.0899C93.7151 16.2873 93.3031 16.4848 92.8912 16.6822C92.4793 16.7809 91.9643 16.8796 91.4494 16.8796C91.1405 16.8796 90.8315 16.8796 90.4196 16.8796C90.1106 17.077 90.0077 17.1758 90.0077 17.4719C90.0077 17.6693 90.0077 17.768 90.2136 17.8667C90.4196 17.8667 90.6256 17.9655 90.8315 18.0642C91.1405 18.0642 91.4494 18.0642 91.7584 18.0642C92.0673 18.0642 92.4793 18.0642 92.7882 18.0642C93.2002 18.0642 93.5091 18.0642 93.818 18.1629C94.127 18.1629 94.436 18.3603 94.7449 18.459C95.0539 18.6564 95.2598 18.8539 95.3628 19.0513C95.5688 19.3474 95.5688 19.6436 95.5688 20.0384C95.5688 20.4333 95.5688 20.8281 95.2598 21.1243C95.0539 21.5191 94.7449 21.8152 94.436 22.1114C94.024 22.4075 93.6121 22.6049 93.0972 22.8024C92.5822 22.9998 91.9643 23.0985 91.2435 23.0985C90.5226 23.0985 90.0077 23.0985 89.4927 22.9011C88.9778 22.8024 88.5659 22.6049 88.2569 22.4075C87.948 22.2101 87.639 21.914 87.5361 21.7165C87.3301 21.4204 87.3301 21.1243 87.3301 20.8281C87.3301 20.4333 87.4331 20.0384 87.742 19.841C87.948 19.5449 88.3599 19.3474 88.7719 19.15C88.5659 19.0513 88.3599 18.8539 88.2569 18.6564C88.1539 18.459 88.051 18.1629 88.051 17.8667C88.051 17.768 88.051 17.5706 88.051 17.4719C88.051 17.3732 88.1539 17.1758 88.2569 17.077C88.2569 16.9783 88.4629 16.7809 88.6689 16.6822C88.7719 16.5835 88.9778 16.4848 89.1838 16.3861C88.7719 16.1886 88.3599 15.7938 88.154 15.3989C87.845 15.0041 87.742 14.5105 87.742 14.017C87.742 13.6221 87.742 13.2273 88.051 12.8324C88.2569 12.5363 88.4629 12.2401 88.7719 11.944C89.0808 11.7466 89.4927 11.5491 89.9047 11.3517C90.3166 11.253 90.8315 11.1543 91.3464 11.1543C91.7584 11.1543 92.0673 11.1543 92.4793 11.253L92.6852 11.3517ZM93.818 19.9397C93.818 19.9397 93.6121 19.7423 93.4061 19.7423C93.2001 19.7423 92.9942 19.6436 92.7882 19.6436C92.5823 19.6436 92.2733 19.6436 92.0673 19.6436C91.7584 19.6436 91.5524 19.6436 91.2435 19.6436C90.9345 19.6436 90.6256 19.6436 90.4196 19.6436C90.2136 19.7423 90.0077 19.9397 89.8017 20.1371C89.6987 20.3346 89.5957 20.532 89.5957 20.7294C89.5957 20.9268 89.5957 21.0255 89.6987 21.1243C89.6987 21.223 89.9047 21.3217 90.1106 21.4204C90.3166 21.4204 90.5226 21.6178 90.7285 21.6178C91.0375 21.6178 91.3464 21.6178 91.7584 21.6178C92.1703 21.6178 92.4793 21.6178 92.7882 21.6178C93.0972 21.6178 93.3031 21.5191 93.5091 21.4204C93.7151 21.3217 93.8181 21.223 93.921 21.0255C93.921 20.9268 94.024 20.7294 94.024 20.532C94.024 20.3346 94.024 20.2358 93.818 20.1371V19.9397ZM92.2733 15.3989C92.2733 15.3989 92.6852 15.2015 92.7882 15.1028C92.8912 15.0041 92.9942 14.8067 93.0972 14.6092C93.0972 14.4118 93.0972 14.2144 93.0972 14.017C93.0972 13.6221 92.9942 13.2273 92.6852 13.0298C92.3763 12.7337 92.0673 12.635 91.4494 12.635C90.8315 12.635 90.5226 12.7337 90.2136 13.0298C89.9047 13.326 89.8017 13.6221 89.8017 14.017C89.8017 14.2144 89.8017 14.4118 89.8017 14.6092C89.8017 14.8067 90.0077 14.9054 90.1106 15.1028C90.2136 15.2015 90.4196 15.3002 90.6256 15.3989C90.8315 15.3989 91.0375 15.4976 91.3464 15.4976C91.6554 15.4976 91.8614 15.4976 92.0673 15.3989H92.2733Z" fill="black"/>
<path d="M7.8267 3.55371H2.1626V5.52796H7.72371C7.72371 4.93569 7.72371 4.2447 7.72371 3.55371H7.8267Z" fill="black"/>
<path d="M14.9326 3.55371C14.9326 3.55371 14.9326 3.94856 14.9326 4.14599C14.9326 4.63955 14.9326 5.13311 14.9326 5.52796H20.4937C20.4937 4.93569 20.4937 4.2447 20.5967 3.55371H14.9326Z" fill="black"/>
<path d="M17.0953 7.20605H2.26562V9.1803H14.8296H20.3907C20.3907 8.58803 20.3907 7.89704 20.4937 7.20605H17.0953Z" fill="black"/>
<path d="M16.8893 10.8584H2.26562V12.8326H14.8296H20.3907C20.3907 12.2404 20.3907 11.5494 20.4937 10.8584H16.8893Z" fill="black"/>
<path d="M9.57747 0C7.62078 0 6.28199 0 5.56111 0C4.53127 0 3.0895 0 1.13281 0V1.38197C1.13281 1.38197 1.13281 1.67811 1.13281 1.87554H9.3715C9.3715 1.28326 9.47449 0.690987 9.57747 0Z" fill="black"/>
<path d="M22.4503 7.96393e-05C20.1847 7.96393e-05 18.7429 7.96393e-05 18.331 7.96393e-05H13.5938C13.5938 0.592354 13.5938 1.08592 13.5938 1.28334C13.5938 1.38205 13.5938 1.57948 13.5938 1.7769H22.2444C22.2444 1.18463 22.3474 0.592354 22.4503 -0.0986328V7.96393e-05Z" fill="black"/>
<path d="M7.31201 14.5107H1.64791L1.54492 16.485H7.31201V14.5107Z" fill="black"/>
<path d="M14.4179 14.5107C14.4179 15.2017 14.4179 15.8927 14.3149 16.485H19.979C19.979 15.794 19.979 15.103 19.979 14.5107H14.3149H14.4179Z" fill="black"/>
<path d="M12.564 19.94C15.0356 19.94 16.5803 19.94 17.1982 19.94H21.5235C21.5235 19.94 21.5235 18.558 21.6265 18.0645H12.8729C12.8729 18.558 12.6669 19.4464 12.564 19.94Z" fill="black"/>
<path d="M4.01636 19.94H8.44466L8.65063 18.0645H0.205967L0 19.94C2.16266 19.94 3.50144 19.94 4.01636 19.94Z" fill="black"/>
<path d="M80.7393 6.41652C80.7393 6.41652 80.5333 6.81137 80.3274 6.81137H69.72C69.72 6.81137 69.3081 6.61395 69.3081 6.41652V3.15901C69.3081 3.15901 69.5141 2.76416 69.72 2.76416H80.3274C80.3274 2.76416 80.7393 2.96158 80.7393 3.15901V6.41652Z" fill="black"/>
<path d="M67.1455 5.72554C67.1455 5.72554 67.3515 6.21911 67.5574 6.21911H68.4843C68.4843 6.21911 68.8962 6.02168 68.8962 5.72554V3.85001C68.8962 3.85001 68.6903 3.35645 68.4843 3.35645H67.5574C67.5574 3.35645 67.1455 3.55387 67.1455 3.85001V5.72554Z" fill="black"/>
<path d="M66.5276 7.30459C66.5276 7.30459 66.3216 7.69944 66.1156 7.69944H65.1888C65.1888 7.69944 64.7769 7.50202 64.7769 7.30459V2.36897C64.7769 2.36897 64.9828 1.97412 65.1888 1.97412H66.1156C66.1156 1.97412 66.5276 2.17155 66.5276 2.36897V7.30459Z" fill="black"/>
<path d="M97.7314 10.7594C97.7314 8.58777 99.2762 6.31738 102.366 6.31738C105.455 6.31738 107 8.58777 107 10.7594C107 12.9311 105.455 15.2015 102.366 15.2015C99.2762 15.2015 97.7314 13.0298 97.7314 10.7594ZM99.6881 8.48906C99.1732 9.18004 98.8643 9.96974 98.8643 10.7594C98.8643 11.6479 99.1732 12.635 99.8941 13.2273C99.8941 13.2273 99.8941 13.2273 100.1 13.2273C100.306 13.2273 100.306 13.0298 100.306 12.635V9.18004C100.306 9.18004 100.306 8.68648 100.1 8.58777C99.8941 8.58777 99.7911 8.48906 99.7911 8.39034L99.6881 8.48906ZM104.528 12.7337C104.528 12.7337 104.837 13.0298 105.043 13.1285C105.558 12.4376 105.867 11.6479 105.867 10.7594C105.867 9.08133 104.734 7.30451 102.366 7.30451C101.439 7.30451 100.718 7.60064 100.203 7.99549H102.675C103.602 7.99549 105.146 7.99549 105.146 9.57489C105.146 10.4633 104.322 11.0556 103.602 11.253L104.528 12.7337ZM104.116 13.8195C104.116 13.8195 103.807 13.6221 103.602 13.326L102.16 11.3517H101.439V12.635C101.439 12.635 101.439 13.1285 101.645 13.2273C102.263 13.326 102.16 13.9182 101.645 13.9182H100.821C100.821 13.9182 101.748 14.2144 102.366 14.2144C103.087 14.2144 103.602 14.017 104.116 13.8195ZM102.469 8.78519C102.469 8.78519 101.439 8.78519 101.439 9.08133V10.6607H102.366C103.293 10.6607 103.807 10.2659 103.807 9.67361C103.807 9.08133 103.293 8.88391 102.469 8.88391V8.78519Z" fill="black"/>
</g>
<defs>
<clipPath id="clip0_76_47957">
<rect width="107" height="23" fill="white"/>
</clipPath>
</defs>
</svg>
