<svg width="68" height="68" viewBox="0 0 68 68" fill="none" xmlns="http://www.w3.org/2000/svg">
<circle cx="34" cy="34" r="34" fill="#368AFE"/>
<mask id="mask0_388_31" style="mask-type:luminance" maskUnits="userSpaceOnUse" x="16" y="10" width="36" height="36">
<path d="M16.5854 10.2108H51.7086V45.334H16.5854V10.2108Z" fill="white"/>
</mask>
<g mask="url(#mask0_388_31)">
<path d="M34.1473 10.8973C27.8365 10.8973 22.5004 15.5686 21.6655 21.8239L20.8004 28.3059C19.697 30.2548 20.0394 32.7017 21.6353 34.2729C22.5772 35.2001 23.8458 35.7197 25.1674 35.7197H30.5972" stroke="white" stroke-width="2" stroke-miterlimit="10" stroke-linecap="round" stroke-linejoin="round"/>
<path d="M34.147 10.8973C40.4577 10.8973 45.7939 15.5686 46.6287 21.8239L47.4938 28.3059C48.5973 30.2548 48.2548 32.7017 46.6589 34.2729C45.717 35.2001 44.4485 35.7197 43.1268 35.7197H37.84" stroke="white" stroke-width="2" stroke-miterlimit="10" stroke-linecap="round" stroke-linejoin="round"/>
<path d="M25.7168 24.9711V28.0554C25.7168 32.7111 29.4911 36.4854 34.1468 36.4854C38.8026 36.4854 42.5768 32.7111 42.5768 28.0554V24.1685" stroke="white" stroke-width="2" stroke-miterlimit="10" stroke-linecap="round" stroke-linejoin="round"/>
<path d="M35.953 29.8931C36.4631 29.8931 36.8122 30.4085 36.6228 30.8821C36.23 31.8645 35.2695 32.5586 34.1469 32.5586C33.0242 32.5586 32.0637 31.8645 31.6709 30.8821C31.4815 30.4085 31.8306 29.8931 32.3408 29.8931H35.953Z" fill="white"/>
<path d="M32.1703 26.2188C31.377 25.4254 30.0907 25.4254 29.2974 26.2188" stroke="white" stroke-width="2" stroke-miterlimit="10" stroke-linecap="round" stroke-linejoin="round"/>
<path d="M36.124 26.2188C36.9173 25.4254 38.2036 25.4254 38.9969 26.2188" stroke="white" stroke-width="2" stroke-miterlimit="10" stroke-linecap="round" stroke-linejoin="round"/>
<path d="M30.5076 21.0011C29.6004 23.1822 27.449 24.7158 24.9395 24.7158" stroke="white" stroke-width="2" stroke-miterlimit="10" stroke-linecap="round" stroke-linejoin="round"/>
<path d="M30.0273 18.3725C30.0273 20.6168 31.4937 22.5976 33.6402 23.253L39.4631 25.0308C41.3987 25.6217 43.3547 24.1737 43.3547 22.1499" stroke="white" stroke-width="2" stroke-miterlimit="10" stroke-linecap="round" stroke-linejoin="round"/>
<path d="M31.243 36.0278L30.9676 37.301C30.7911 38.1174 30.0689 38.7001 29.2337 38.7001H27.3458C23.1553 38.7001 19.2961 40.9784 17.2715 44.6475H51.0226C48.998 40.9784 45.1388 38.7001 40.9483 38.7001H39.0605C38.2252 38.7001 37.503 38.1174 37.3265 37.301L37.0512 36.0278" stroke="white" stroke-width="2" stroke-miterlimit="10" stroke-linecap="round" stroke-linejoin="round"/>
<path d="M39.6316 38.701C38.5476 40.6137 36.4936 41.9043 34.1381 41.9043C31.7826 41.9043 29.7285 40.6137 28.6445 38.701" stroke="white" stroke-width="2" stroke-miterlimit="10" stroke-linecap="round" stroke-linejoin="round"/>
</g>
<line x1="9.12207" y1="44.7744" x2="58.0489" y2="44.7744" stroke="white" stroke-width="1.67"/>
<path d="M33.0894 52.7273V60H31.9175L28.4907 55.0462H28.4303V60H27.1128V52.7273H28.2918L31.7151 57.6847H31.779V52.7273H33.0894ZM39.9511 54.2649H40.7785C40.7785 54.6579 40.7217 54.9882 40.608 55.2557C40.4968 55.5208 40.3062 55.7209 40.0363 55.8558C39.7664 55.9908 39.3936 56.0582 38.9177 56.0582V55.4119C39.2349 55.4119 39.4658 55.3717 39.6102 55.2912C39.7546 55.2083 39.8469 55.0817 39.8872 54.9112C39.9274 54.7408 39.9487 54.5253 39.9511 54.2649ZM37.966 57.706V54.5455H39.2551V60H38.0051V59.0305H37.9482C37.8251 59.3359 37.6227 59.5857 37.341 59.7798C37.0616 59.974 36.7172 60.071 36.3076 60.071C35.9501 60.071 35.6341 59.9917 35.3595 59.8331C35.0872 59.6721 34.8741 59.4389 34.7203 59.1335C34.5664 58.8258 34.4894 58.4541 34.4894 58.0185V54.5455H35.7749V57.8196C35.7773 58.1652 35.872 58.4399 36.059 58.6435C36.2484 58.8471 36.497 58.9489 36.8048 58.9489C36.9942 58.9489 37.1776 58.9027 37.3552 58.8104C37.5351 58.718 37.6819 58.5807 37.7955 58.3984C37.9115 58.2138 37.9684 57.983 37.966 57.706ZM35.8353 53.8814L35.0576 53.8636C35.0576 53.4422 35.1665 53.112 35.3843 52.8729C35.6021 52.6338 35.8708 52.5142 36.1904 52.5142C36.3443 52.5142 36.4781 52.5402 36.5917 52.5923C36.7053 52.642 36.8095 52.7 36.9042 52.7663C37.0013 52.8326 37.096 52.8918 37.1883 52.9439C37.2806 52.9936 37.3824 53.0185 37.4937 53.0185C37.6286 53.0185 37.7352 52.9676 37.8133 52.8658C37.8938 52.764 37.9352 52.6338 37.9376 52.4751L38.7011 52.5071C38.6987 52.9309 38.5886 53.2599 38.3708 53.4943C38.153 53.7263 37.8855 53.8435 37.5683 53.8459C37.3978 53.8482 37.2546 53.8234 37.1386 53.7713C37.0226 53.7192 36.9208 53.66 36.8332 53.5938C36.748 53.5275 36.6615 53.4695 36.574 53.4197C36.4864 53.3677 36.3834 53.3416 36.265 53.3416C36.1395 53.3416 36.0365 53.3913 35.9561 53.4908C35.8756 53.5902 35.8353 53.7204 35.8353 53.8814Z" fill="white"/>
</svg>
