<svg width="82" height="82" viewBox="0 0 82 82" fill="none" xmlns="http://www.w3.org/2000/svg">
<circle cx="41" cy="41" r="41" fill="#367F76"/>
<line x1="11" y1="54.165" x2="70" y2="54.165" stroke="white" stroke-width="1.67"/>
<path d="M37.6608 60.62H38.9908V65.84H37.6608V60.62ZM38.6308 62.57H40.2208V63.66H38.6308V62.57ZM32.9708 66.26H38.9908V69.79H32.9708V66.26ZM37.7008 67.31H34.2808V68.74H37.7008V67.31ZM32.0808 61.06H33.4108V64.85H32.0808V61.06ZM32.0808 64.28H32.8508C33.4841 64.28 34.1408 64.2567 34.8208 64.21C35.5074 64.1567 36.2141 64.06 36.9408 63.92L37.0908 64.98C36.3441 65.1333 35.6141 65.24 34.9008 65.3C34.1941 65.3533 33.5108 65.38 32.8508 65.38H32.0808V64.28ZM43.06 61.11H44.16V61.93C44.16 62.55 44.0633 63.1333 43.87 63.68C43.6833 64.2267 43.3967 64.7033 43.01 65.11C42.6233 65.5167 42.1267 65.8233 41.52 66.03L40.82 64.96C41.3533 64.7933 41.7833 64.5533 42.11 64.24C42.4367 63.9267 42.6767 63.57 42.83 63.17C42.9833 62.77 43.06 62.3567 43.06 61.93V61.11ZM43.33 61.11H44.41V61.87C44.41 62.2767 44.48 62.67 44.62 63.05C44.76 63.4233 44.9833 63.7567 45.29 64.05C45.5967 64.3367 45.9933 64.56 46.48 64.72L45.79 65.76C45.2233 65.56 44.7567 65.27 44.39 64.89C44.03 64.51 43.7633 64.0633 43.59 63.55C43.4167 63.03 43.33 62.47 43.33 61.87V61.11ZM47.32 60.63H48.66V66.05H47.32V60.63ZM45.52 66.29C46.5 66.29 47.2733 66.45 47.84 66.77C48.4067 67.0833 48.69 67.52 48.69 68.08C48.69 68.6533 48.4067 69.0967 47.84 69.41C47.2733 69.73 46.5 69.89 45.52 69.89C44.54 69.89 43.7667 69.73 43.2 69.41C42.6333 69.0967 42.35 68.6533 42.35 68.08C42.35 67.52 42.6333 67.0833 43.2 66.77C43.7667 66.45 44.54 66.29 45.52 66.29ZM45.52 67.32C45.12 67.32 44.7833 67.3467 44.51 67.4C44.2367 67.4533 44.0267 67.54 43.88 67.66C43.74 67.7733 43.67 67.9133 43.67 68.08C43.67 68.2533 43.74 68.4 43.88 68.52C44.0267 68.6333 44.2367 68.72 44.51 68.78C44.7833 68.8333 45.12 68.86 45.52 68.86C45.92 68.86 46.2567 68.8333 46.53 68.78C46.8033 68.72 47.01 68.6333 47.15 68.52C47.29 68.4 47.36 68.2533 47.36 68.08C47.36 67.9133 47.29 67.7733 47.15 67.66C47.01 67.54 46.8033 67.4533 46.53 67.4C46.2567 67.3467 45.92 67.32 45.52 67.32ZM45.63 62.31H47.52V63.39H45.63V62.31Z" fill="white"/>
<mask id="mask0_116_119" style="mask-type:luminance" maskUnits="userSpaceOnUse" x="17" y="8" width="48" height="47">
<path d="M65 8H17V54.2208H65V8Z" fill="white"/>
</mask>
<g mask="url(#mask0_116_119)">
<path d="M35.7215 45.3585C37.4329 46.1679 39.3504 46.6245 41.371 46.6245C43.3916 46.6245 45.3092 46.1679 47.0205 45.3585V48.0773H51.7215L49.3298 47.3509V43.9887C52.3813 41.7056 54.4432 38.1773 54.7318 34.1302C56.3195 33.6528 57.4947 32.1585 57.4947 30.3943C57.4947 29.2528 56.9793 28.1736 56.1339 27.4471V19.4358C56.1339 17.2358 55.0205 15.1811 53.2267 13.9566C52.6288 11.6736 50.5875 10.0547 48.1751 10.0547H37.2886C31.3916 10.0547 26.6081 14.8698 26.6081 20.8056V27.4471C25.7628 28.1736 25.2473 29.2528 25.2473 30.3943C25.2473 32.1585 26.4226 33.6528 28.0102 34.1302C28.2989 38.1566 30.3607 41.7056 33.4123 43.9887V47.3509L31.0205 48.0773H35.7215V45.3585ZM30.2576 33.1132C30.2576 32.4698 29.7422 31.9509 29.103 31.9509C28.237 31.9509 27.536 31.2453 27.536 30.3736C27.536 29.8132 27.8246 29.2943 28.3195 29.0037C28.3401 29.0037 28.3607 28.9622 28.402 28.9622C28.6288 28.8585 28.8556 28.7962 29.103 28.7962H30.8349C31.9277 28.7962 32.8762 28.0905 33.2267 27.0736L34.0102 24.6868C36.7112 24.6245 45.2473 24.2509 50.0308 21.8434C50.6081 21.5528 50.8349 20.8679 50.5463 20.2868C50.2576 19.7056 49.5772 19.4773 48.9999 19.7679C43.8659 22.3622 33.2679 22.383 33.1648 22.383C32.67 22.383 32.237 22.6943 32.0721 23.1717L31.0205 26.3471C31.0205 26.3471 30.9174 26.4924 30.8143 26.4924H29.0824C29.0824 26.4924 28.938 26.4924 28.8762 26.4924V20.7849C28.8762 16.1358 32.6288 12.3377 37.2679 12.3377H48.1545C49.5978 12.3377 50.8143 13.3754 51.0411 14.8283C51.103 15.1811 51.3092 15.4924 51.6184 15.6585C52.9793 16.4264 53.8246 17.8585 53.8246 19.4151V28.0283C53.8246 28.4434 54.0514 28.817 54.402 29.0245C54.8968 29.3151 55.1855 29.8132 55.1855 30.3943C55.1855 31.266 54.4844 31.9717 53.6184 31.9717C52.9793 31.9717 52.4638 32.4905 52.4638 33.1339C52.4638 39.2981 47.4741 44.3207 41.3504 44.3207C35.2267 44.3207 30.237 39.2981 30.237 33.1339L30.2576 33.1132Z" fill="white"/>
<path d="M41.371 39.7545C42.7525 39.7545 44.0721 39.0904 44.9793 37.9489C45.371 37.4507 45.3092 36.7243 44.8143 36.3092C44.3195 35.9149 43.5978 35.9772 43.1855 36.4753C42.6906 37.0772 42.0514 37.4092 41.3504 37.4092C40.6494 37.4092 40.0102 37.0772 39.5154 36.4753C39.1236 35.9772 38.3813 35.8941 37.8865 36.3092C37.3917 36.7036 37.3092 37.4507 37.7216 37.9489C38.6494 39.0904 39.969 39.7545 41.3298 39.7545H41.371Z" fill="white"/>
<path d="M35.9278 32.9058C36.567 32.9058 37.0825 32.3869 37.0825 31.7435V30.3737C37.0825 29.7303 36.567 29.2114 35.9278 29.2114C35.2887 29.2114 34.7732 29.7303 34.7732 30.3737V31.7435C34.7732 32.3869 35.2887 32.9058 35.9278 32.9058Z" fill="white"/>
<path d="M46.8143 32.9058C47.4535 32.9058 47.9689 32.3869 47.9689 31.7435V30.3737C47.9689 29.7303 47.4535 29.2114 46.8143 29.2114C46.1751 29.2114 45.6597 29.7303 45.6597 30.3737V31.7435C45.6597 32.3869 46.1751 32.9058 46.8143 32.9058Z" fill="white"/>
<path d="M24.4844 51.2734C24.6287 51.7715 25.0823 52.1036 25.5772 52.1036C25.6803 52.1036 25.804 52.1036 25.9071 52.0621L28.4225 51.2941C29.0617 54.0545 30.5669 56.5658 32.7318 58.4338C35.1648 60.53 38.2576 61.6923 41.4741 61.6923C47.7215 61.6923 53.1236 57.2923 54.5256 51.2941L58.6493 52.5394C59.9071 52.913 60.7318 54.0545 60.7318 55.3621V67.5866H60.5256H54.8761V62.1696L57.4741 56.9394C57.7627 56.3583 57.5359 55.6734 56.9586 55.3828C56.3813 55.0923 55.7009 55.3206 55.4122 55.9017L52.6906 61.3809C52.6081 61.547 52.5669 61.713 52.5669 61.8998V83.8375C52.5669 84.4809 53.0823 84.9998 53.7215 84.9998C54.3607 84.9998 54.8761 84.4809 54.8761 83.8375V69.9111H59.3916V83.8375C59.3916 84.4809 59.9071 84.9998 60.5463 84.9998C61.1854 84.9998 61.7009 84.4809 61.7009 83.8375V69.9111H61.9071C62.5462 69.9111 63.0617 69.3923 63.0617 68.7489V55.3621C63.0617 53.0168 61.5566 50.9828 59.3298 50.3187L51.8452 48.0564H47.1442V48.2017C47.1442 51.3357 44.6081 53.8885 41.4947 53.8885C38.3813 53.8885 35.7421 51.2734 35.7421 48.1394V47.9941L31.1442 48.0564L25.2885 49.8206C24.67 50.0073 24.3401 50.6507 24.5256 51.2734H24.4844Z" fill="white"/>
<path d="M57.5979 49.8413L51.7422 48.0771H47.0412V48.2224C47.0412 51.3564 44.5051 53.9092 41.3917 53.9092C38.2783 53.9092 35.7422 51.3564 35.7422 48.2224V48.0771H31.0412L23.5567 50.3394C21.3299 51.0036 19.8247 53.0375 19.8247 55.3828V68.7696C19.8247 69.413 20.3402 69.9319 20.9793 69.9319H21.1855V83.8583C21.1855 84.5017 21.701 85.0206 22.3402 85.0206C22.9793 85.0206 23.4948 84.5017 23.4948 83.8583V69.9319H28.0103V83.8583C28.0103 84.5017 28.5257 85.0206 29.1649 85.0206C29.8041 85.0206 30.3196 84.5017 30.3196 83.8583V61.9205C30.3196 61.7338 30.2783 61.5677 30.1958 61.4017L27.4742 55.9224C27.1855 55.3413 26.5051 55.113 25.9278 55.4036C25.3505 55.6941 25.1237 56.379 25.4123 56.9602L28.0103 62.1904V67.6073H22.134V55.3828C22.134 54.0753 22.9793 52.9338 24.2165 52.5602L28.3402 51.3149C29.7422 57.3338 35.1443 61.713 41.3917 61.713C44.6082 61.713 47.701 60.5507 50.134 58.4545C52.2989 56.5866 53.8041 54.0753 54.4433 51.3149L56.9587 52.0828C57.0618 52.1243 57.1855 52.1243 57.2886 52.1243C57.7835 52.1243 58.2371 51.7922 58.3814 51.2941C58.567 50.6715 58.2165 50.0281 57.6185 49.8413H57.5979Z" fill="white"/>
</g>
</svg>
