<svg width="68" height="68" viewBox="0 0 68 68" fill="none" xmlns="http://www.w3.org/2000/svg">
<circle cx="34" cy="34" r="34" fill="black"/>
<line x1="9" y1="45.165" x2="58" y2="45.165" stroke="white" stroke-width="1.67"/>
<mask id="mask0_388_26" style="mask-type:luminance" maskUnits="userSpaceOnUse" x="14" y="6" width="40" height="39">
<path d="M53.9758 6.63379H14.1709V44.9632H53.9758V6.63379Z" fill="white"/>
</mask>
<g mask="url(#mask0_388_26)">
<path d="M29.6957 37.6142C31.1149 38.2854 32.705 38.6641 34.3806 38.6641C36.0563 38.6641 37.6464 38.2854 39.0656 37.6142V39.8689H42.964L40.9806 39.2665V36.4783C43.5111 34.585 45.221 31.6591 45.4604 28.3029C46.7769 27.9071 47.7515 26.6679 47.7515 25.2049C47.7515 24.2583 47.3241 23.3633 46.623 22.7609V16.1174C46.623 14.293 45.6997 12.5891 44.2122 11.5736C43.7163 9.68037 42.0236 8.33789 40.0231 8.33789H30.9952C26.1051 8.33789 22.1383 12.3309 22.1383 17.2533V22.7609C21.4372 23.3633 21.0098 24.2583 21.0098 25.2049C21.0098 26.6679 21.9844 27.9071 23.3009 28.3029C23.5403 31.6419 25.2501 34.585 27.7807 36.4783V39.2665L25.7973 39.8689H29.6957V37.6142ZM25.1647 27.4596C25.1647 26.926 24.7372 26.4957 24.2072 26.4957C23.489 26.4957 22.9077 25.9106 22.9077 25.1877C22.9077 24.723 23.1471 24.2927 23.5574 24.0517C23.5745 24.0517 23.5916 24.0173 23.6258 24.0173C23.8139 23.9313 24.002 23.8796 24.2072 23.8796H25.6434C26.5496 23.8796 27.3361 23.2944 27.6268 22.4511L28.2765 20.4718C30.5164 20.4202 37.5951 20.1104 41.5619 18.1139C42.0407 17.8729 42.2288 17.3049 41.9894 16.823C41.75 16.3411 41.1858 16.1518 40.707 16.3927C36.4495 18.5442 27.661 18.5614 27.5755 18.5614C27.1652 18.5614 26.8061 18.8195 26.6693 19.2154L25.7973 21.8487C25.7973 21.8487 25.7118 21.9692 25.6263 21.9692H24.1901C24.1901 21.9692 24.0704 21.9692 24.0191 21.9692V17.2361C24.0191 13.3808 27.131 10.2311 30.9781 10.2311H40.006C41.2029 10.2311 42.2117 11.0917 42.3998 12.2965C42.4511 12.5891 42.622 12.8472 42.8785 12.9849C44.007 13.6217 44.708 14.8093 44.708 16.1002V23.2428C44.708 23.587 44.8961 23.8968 45.1868 24.069C45.5971 24.3099 45.8365 24.723 45.8365 25.2049C45.8365 25.9278 45.2552 26.513 44.537 26.513C44.007 26.513 43.5795 26.9432 43.5795 27.4768C43.5795 32.5885 39.4417 36.7536 34.3636 36.7536C29.2854 36.7536 25.1476 32.5885 25.1476 27.4768L25.1647 27.4596Z" fill="white"/>
<path d="M34.3811 32.9671C35.5267 32.9671 36.621 32.4164 37.3733 31.4697C37.6982 31.0567 37.6469 30.4543 37.2365 30.11C36.8262 29.783 36.2277 29.8347 35.8857 30.2477C35.4754 30.7469 34.9453 31.0222 34.364 31.0222C33.7827 31.0222 33.2526 30.7469 32.8422 30.2477C32.5174 29.8347 31.9018 29.7658 31.4915 30.11C31.0811 30.4371 31.0127 31.0567 31.3547 31.4697C32.1241 32.4164 33.2184 32.9671 34.3469 32.9671H34.3811Z" fill="white"/>
<path d="M29.8667 27.2872C30.3967 27.2872 30.8242 26.8569 30.8242 26.3234V25.1875C30.8242 24.6539 30.3967 24.2236 29.8667 24.2236C29.3366 24.2236 28.9092 24.6539 28.9092 25.1875V26.3234C28.9092 26.8569 29.3366 27.2872 29.8667 27.2872Z" fill="white"/>
<path d="M38.895 27.2872C39.4251 27.2872 39.8525 26.8569 39.8525 26.3234V25.1875C39.8525 24.6539 39.4251 24.2236 38.895 24.2236C38.365 24.2236 37.9375 24.6539 37.9375 25.1875V26.3234C37.9375 26.8569 38.365 27.2872 38.895 27.2872Z" fill="white"/>
<path d="M20.3772 42.5192C20.4969 42.9322 20.873 43.2076 21.2834 43.2076C21.3689 43.2076 21.4715 43.2076 21.557 43.1732L23.643 42.5364C24.173 44.8255 25.4212 46.908 27.2165 48.4571C29.2341 50.1954 31.7988 51.1592 34.4662 51.1592C39.647 51.1592 44.1267 47.5104 45.2894 42.5364L48.7091 43.5691C49.7521 43.8789 50.436 44.8255 50.436 45.9098V56.0472H50.265H45.5801V51.5551L47.7345 47.2178C47.9739 46.7359 47.7858 46.168 47.307 45.927C46.8283 45.686 46.264 45.8754 46.0246 46.3573L43.7677 50.901C43.6993 51.0387 43.6651 51.1764 43.6651 51.3313V69.5236C43.6651 70.0571 44.0925 70.4874 44.6226 70.4874C45.1526 70.4874 45.5801 70.0571 45.5801 69.5236V57.9749H49.3246V69.5236C49.3246 70.0571 49.7521 70.4874 50.2821 70.4874C50.8122 70.4874 51.2396 70.0571 51.2396 69.5236V57.9749H51.4106C51.9407 57.9749 52.3681 57.5446 52.3681 57.011V45.9098C52.3681 43.9649 51.1199 42.2782 49.2733 41.7275L43.0666 39.8514H39.1682V39.9719C39.1682 42.5708 37.0651 44.6878 34.4833 44.6878C31.9014 44.6878 29.7129 42.5192 29.7129 39.9203V39.7998L25.8999 39.8514L21.044 41.3144C20.5311 41.4693 20.2575 42.0028 20.4114 42.5192H20.3772Z" fill="white"/>
<path d="M47.8373 41.3321L42.9814 39.8691H39.083V39.9896C39.083 42.5885 36.9799 44.7055 34.398 44.7055C31.8162 44.7055 29.7131 42.5885 29.7131 39.9896V39.8691H25.8147L19.608 41.7452C17.7614 42.2959 16.5132 43.9826 16.5132 45.9275V57.0287C16.5132 57.5623 16.9406 57.9926 17.4707 57.9926H17.6417V69.5413C17.6417 70.0748 18.0691 70.5051 18.5992 70.5051C19.1292 70.5051 19.5567 70.0748 19.5567 69.5413V57.9926H23.3012V69.5413C23.3012 70.0748 23.7287 70.5051 24.2587 70.5051C24.7888 70.5051 25.2162 70.0748 25.2162 69.5413V51.349C25.2162 51.1941 25.182 51.0564 25.1136 50.9188L22.8567 46.375C22.6173 45.8931 22.053 45.7037 21.5743 45.9447C21.0955 46.1857 20.9075 46.7536 21.1468 47.2355L23.3012 51.5728V56.0649H18.4282V45.9275C18.4282 44.8432 19.1292 43.8966 20.1551 43.5868L23.5748 42.5541C24.7375 47.5454 29.2172 51.1769 34.398 51.1769C37.0654 51.1769 39.6301 50.2131 41.6477 48.4748C43.443 46.9257 44.6912 44.8432 45.2213 42.5541L47.3072 43.1909C47.3927 43.2253 47.4953 43.2253 47.5808 43.2253C47.9912 43.2253 48.3673 42.95 48.487 42.5369C48.6409 42.0205 48.3502 41.487 47.8544 41.3321H47.8373Z" fill="white"/>
</g>
<path d="M24.0654 60V55.74C24.0654 55.4 24.1221 55.1333 24.2354 54.94C24.3554 54.7467 24.5188 54.6133 24.7254 54.54C24.9321 54.46 25.1688 54.42 25.4354 54.42C25.6221 54.42 25.7888 54.44 25.9354 54.48C26.0821 54.5133 26.2021 54.5533 26.2954 54.6L26.0954 55.58C26.0421 55.5667 25.9888 55.5567 25.9354 55.55C25.8821 55.5433 25.8388 55.54 25.8054 55.54C25.6788 55.54 25.5888 55.5733 25.5354 55.64C25.4888 55.7067 25.4654 55.8033 25.4654 55.93V56.86C25.4654 57.0267 25.4588 57.2267 25.4454 57.46C25.4321 57.6867 25.4088 57.9733 25.3754 58.32H25.4254C25.5588 58.0067 25.6754 57.7567 25.7754 57.57C25.8821 57.3767 25.9754 57.2067 26.0554 57.06L26.4254 56.39H26.9854L27.3554 57.06C27.4488 57.22 27.5288 57.3667 27.5954 57.5C27.6621 57.6267 27.7254 57.7533 27.7854 57.88C27.8454 58.0067 27.9121 58.1533 27.9854 58.32H28.0354C28.0021 57.9733 27.9788 57.6867 27.9654 57.46C27.9521 57.2267 27.9454 57.0267 27.9454 56.86V54.52H29.3454V60H27.9154L26.7254 57.82H26.6854L25.4954 60H24.0654ZM27.8116 62.65C27.2783 62.65 26.8883 62.57 26.6416 62.41C26.3949 62.25 26.2716 62.04 26.2716 61.78V61.61C26.2716 61.4967 26.2416 61.4267 26.1816 61.4C26.1216 61.38 26.0416 61.3833 25.9416 61.41L25.8716 60.74C25.9649 60.7 26.0849 60.6733 26.2316 60.66C26.3783 60.6467 26.4983 60.64 26.5916 60.64C26.8849 60.64 27.0983 60.6933 27.2316 60.8C27.3583 60.9067 27.4216 61.0567 27.4216 61.25V61.48C27.4216 61.5933 27.4483 61.68 27.5016 61.74C27.5483 61.8067 27.6383 61.84 27.7716 61.84C27.9116 61.84 28.0083 61.8067 28.0616 61.74C28.1149 61.68 28.1416 61.5933 28.1416 61.48V60.67H29.3616V61.64C29.3616 61.9667 29.2383 62.2167 28.9916 62.39C28.7449 62.5633 28.3516 62.65 27.8116 62.65ZM26.3316 53.77V53.27C26.4249 53.2433 26.5283 53.2067 26.6416 53.16C26.7549 53.1133 26.8549 53.05 26.9416 52.97C27.0283 52.89 27.0716 52.79 27.0716 52.67C27.0716 52.5767 27.0449 52.5033 26.9916 52.45C26.9383 52.3967 26.8716 52.37 26.7916 52.37C26.7383 52.37 26.6816 52.38 26.6216 52.4C26.5616 52.42 26.5083 52.44 26.4616 52.46L26.2716 51.79C26.4049 51.6767 26.5716 51.6033 26.7716 51.57C26.9649 51.53 27.1283 51.51 27.2616 51.51C27.5616 51.51 27.7983 51.58 27.9716 51.72C28.1383 51.86 28.2216 52.0667 28.2216 52.34C28.2216 52.4867 28.1849 52.6233 28.1116 52.75C28.0316 52.8767 27.9116 52.98 27.7516 53.06L27.7116 52.8H29.6016V53.77H26.3316ZM33.1618 60.13C32.4018 60.13 31.8252 59.9633 31.4318 59.63C31.0452 59.29 30.8518 58.8033 30.8518 58.17V57.78C30.8518 57.5067 30.8818 57.28 30.9418 57.1C31.0085 56.92 31.0952 56.7567 31.2018 56.61C31.3085 56.4633 31.3952 56.3333 31.4618 56.22C31.5352 56.1 31.5718 55.9767 31.5718 55.85C31.5718 55.73 31.5418 55.6467 31.4818 55.6C31.4285 55.5467 31.3552 55.52 31.2618 55.52C31.1952 55.52 31.1252 55.53 31.0518 55.55C30.9852 55.57 30.9085 55.6 30.8218 55.64L30.5818 54.7C30.7685 54.6 30.9685 54.5333 31.1818 54.5C31.4018 54.46 31.5952 54.44 31.7618 54.44C32.0552 54.44 32.2885 54.4867 32.4618 54.58C32.6418 54.6733 32.7718 54.8067 32.8518 54.98C32.9318 55.1533 32.9718 55.36 32.9718 55.6C32.9718 55.8067 32.9418 55.99 32.8818 56.15C32.8218 56.3033 32.7452 56.4633 32.6518 56.63C32.5652 56.7833 32.4885 56.9267 32.4218 57.06C32.3618 57.1933 32.3318 57.3867 32.3318 57.64V58.02C32.3318 58.24 32.3618 58.42 32.4218 58.56C32.4885 58.7 32.5852 58.8033 32.7118 58.87C32.8385 58.93 32.9885 58.96 33.1618 58.96C33.4485 58.96 33.6518 58.8833 33.7718 58.73C33.8985 58.57 33.9618 58.3567 33.9618 58.09V57.12C33.9618 56.92 33.9152 56.7633 33.8218 56.65C33.7352 56.53 33.5852 56.47 33.3718 56.47H33.3218V55.68H33.3818C33.5885 55.68 33.7418 55.6233 33.8418 55.51C33.9418 55.3967 34.0052 55.2533 34.0318 55.08C34.0652 54.9 34.0818 54.7133 34.0818 54.52H35.5718C35.5718 54.9267 35.5185 55.2633 35.4118 55.53C35.3052 55.7967 35.1185 55.9767 34.8518 56.07V56.11C35.0118 56.1567 35.1352 56.23 35.2218 56.33C35.3085 56.4233 35.3685 56.5367 35.4018 56.67C35.4352 56.8033 35.4518 56.95 35.4518 57.11V58.13C35.4518 58.79 35.2585 59.29 34.8718 59.63C34.4852 59.9633 33.9152 60.13 33.1618 60.13ZM38.2682 60V56.38C38.2682 56.1 38.2015 55.8967 38.0682 55.77C37.9415 55.6433 37.7315 55.58 37.4382 55.58C37.2182 55.58 37.0148 55.61 36.8282 55.67C36.6482 55.73 36.4782 55.8033 36.3182 55.89V54.69C36.4648 54.6233 36.6715 54.5567 36.9382 54.49C37.2048 54.4233 37.5182 54.39 37.8782 54.39C38.2448 54.39 38.5682 54.4433 38.8482 54.55C39.1348 54.6567 39.3582 54.8367 39.5182 55.09C39.6848 55.3367 39.7682 55.6767 39.7682 56.11V60H38.2682ZM43.4839 60.13C42.8839 60.13 42.4039 60.06 42.0439 59.92C41.6839 59.7733 41.4205 59.57 41.2539 59.31C41.0939 59.05 41.0139 58.75 41.0139 58.41C41.0139 58.1167 41.0572 57.88 41.1439 57.7C41.2372 57.52 41.3539 57.3833 41.4939 57.29C41.6405 57.19 41.7872 57.1233 41.9339 57.09V57.03C41.7805 56.9767 41.6339 56.9033 41.4939 56.81C41.3539 56.7167 41.2372 56.59 41.1439 56.43C41.0572 56.27 41.0139 56.07 41.0139 55.83C41.0139 55.5833 41.0705 55.3533 41.1839 55.14C41.3039 54.9267 41.4939 54.7567 41.7539 54.63C42.0139 54.4967 42.3572 54.43 42.7839 54.43C42.9905 54.43 43.1905 54.4467 43.3839 54.48C43.5772 54.5067 43.7272 54.5467 43.8339 54.6L43.6039 55.61C43.5505 55.5967 43.4772 55.5833 43.3839 55.57C43.2972 55.55 43.2072 55.54 43.1139 55.54C42.9072 55.54 42.7539 55.59 42.6539 55.69C42.5539 55.7833 42.5039 55.9067 42.5039 56.06C42.5039 56.22 42.5472 56.3433 42.6339 56.43C42.7205 56.5167 42.8305 56.5767 42.9639 56.61C43.1039 56.6433 43.2472 56.66 43.3939 56.66H43.6039V57.59H43.3939C43.1072 57.59 42.8905 57.64 42.7439 57.74C42.6039 57.84 42.5339 58.0033 42.5339 58.23C42.5339 58.35 42.5605 58.47 42.6139 58.59C42.6739 58.7033 42.7739 58.8 42.9139 58.88C43.0539 58.9533 43.2539 58.99 43.5139 58.99C43.7605 58.99 43.9539 58.9533 44.0939 58.88C44.2339 58.8067 44.3339 58.71 44.3939 58.59C44.4539 58.4633 44.4839 58.3233 44.4839 58.17V54.52H45.9839V58.12C45.9839 58.8067 45.7805 59.3133 45.3739 59.64C44.9739 59.9667 44.3439 60.13 43.4839 60.13Z" fill="white"/>
</svg>
