<svg width="68" height="68" viewBox="0 0 68 68" fill="none" xmlns="http://www.w3.org/2000/svg">
<circle cx="34" cy="34" r="34" fill="#020000"/>
<line x1="9" y1="45.165" x2="58" y2="45.165" stroke="white" stroke-width="1.67"/>
<mask id="mask0_390_43" style="mask-type:luminance" maskUnits="userSpaceOnUse" x="14" y="6" width="40" height="39">
<path d="M53.9758 6.63379H14.1709V44.9632H53.9758V6.63379Z" fill="white"/>
</mask>
<g mask="url(#mask0_390_43)">
<path d="M29.6957 37.6142C31.1149 38.2854 32.705 38.6641 34.3806 38.6641C36.0563 38.6641 37.6464 38.2854 39.0656 37.6142V39.8689H42.964L40.9806 39.2665V36.4783C43.5111 34.585 45.221 31.6591 45.4604 28.3029C46.7769 27.9071 47.7515 26.6679 47.7515 25.2049C47.7515 24.2583 47.3241 23.3633 46.623 22.7609V16.1174C46.623 14.293 45.6997 12.5891 44.2122 11.5736C43.7163 9.68037 42.0236 8.33789 40.0231 8.33789H30.9952C26.1051 8.33789 22.1383 12.3309 22.1383 17.2533V22.7609C21.4372 23.3633 21.0098 24.2583 21.0098 25.2049C21.0098 26.6679 21.9844 27.9071 23.3009 28.3029C23.5403 31.6419 25.2501 34.585 27.7807 36.4783V39.2665L25.7973 39.8689H29.6957V37.6142ZM25.1647 27.4596C25.1647 26.926 24.7372 26.4957 24.2072 26.4957C23.489 26.4957 22.9077 25.9106 22.9077 25.1877C22.9077 24.723 23.1471 24.2927 23.5574 24.0517C23.5745 24.0517 23.5916 24.0173 23.6258 24.0173C23.8139 23.9313 24.002 23.8796 24.2072 23.8796H25.6434C26.5496 23.8796 27.3361 23.2944 27.6268 22.4511L28.2765 20.4718C30.5164 20.4202 37.5951 20.1104 41.5619 18.1139C42.0407 17.8729 42.2288 17.3049 41.9894 16.823C41.75 16.3411 41.1858 16.1518 40.707 16.3927C36.4495 18.5442 27.661 18.5614 27.5755 18.5614C27.1652 18.5614 26.8061 18.8195 26.6693 19.2154L25.7973 21.8487C25.7973 21.8487 25.7118 21.9692 25.6263 21.9692H24.1901C24.1901 21.9692 24.0704 21.9692 24.0191 21.9692V17.2361C24.0191 13.3808 27.131 10.2311 30.9781 10.2311H40.006C41.2029 10.2311 42.2117 11.0917 42.3998 12.2965C42.4511 12.5891 42.622 12.8472 42.8785 12.9849C44.007 13.6217 44.708 14.8093 44.708 16.1002V23.2428C44.708 23.587 44.8961 23.8968 45.1868 24.069C45.5971 24.3099 45.8365 24.723 45.8365 25.2049C45.8365 25.9278 45.2552 26.513 44.537 26.513C44.007 26.513 43.5795 26.9432 43.5795 27.4768C43.5795 32.5885 39.4417 36.7536 34.3636 36.7536C29.2854 36.7536 25.1476 32.5885 25.1476 27.4768L25.1647 27.4596Z" fill="white"/>
<path d="M34.3811 32.9671C35.5267 32.9671 36.621 32.4164 37.3733 31.4697C37.6982 31.0567 37.6469 30.4543 37.2365 30.11C36.8262 29.783 36.2277 29.8347 35.8857 30.2477C35.4754 30.7469 34.9453 31.0222 34.364 31.0222C33.7827 31.0222 33.2526 30.7469 32.8422 30.2477C32.5174 29.8347 31.9018 29.7658 31.4915 30.11C31.0811 30.4371 31.0127 31.0567 31.3547 31.4697C32.1241 32.4164 33.2184 32.9671 34.3469 32.9671H34.3811Z" fill="white"/>
<path d="M29.8667 27.2872C30.3967 27.2872 30.8242 26.8569 30.8242 26.3234V25.1875C30.8242 24.6539 30.3967 24.2236 29.8667 24.2236C29.3366 24.2236 28.9092 24.6539 28.9092 25.1875V26.3234C28.9092 26.8569 29.3366 27.2872 29.8667 27.2872Z" fill="white"/>
<path d="M38.895 27.2872C39.4251 27.2872 39.8525 26.8569 39.8525 26.3234V25.1875C39.8525 24.6539 39.4251 24.2236 38.895 24.2236C38.365 24.2236 37.9375 24.6539 37.9375 25.1875V26.3234C37.9375 26.8569 38.365 27.2872 38.895 27.2872Z" fill="white"/>
<path d="M20.3772 42.5192C20.4969 42.9322 20.873 43.2076 21.2834 43.2076C21.3689 43.2076 21.4715 43.2076 21.557 43.1732L23.643 42.5364C24.173 44.8255 25.4212 46.908 27.2165 48.4571C29.2341 50.1954 31.7988 51.1592 34.4662 51.1592C39.647 51.1592 44.1267 47.5104 45.2894 42.5364L48.7091 43.5691C49.7521 43.8789 50.436 44.8255 50.436 45.9098V56.0472H50.265H45.5801V51.5551L47.7345 47.2178C47.9739 46.7359 47.7858 46.168 47.307 45.927C46.8283 45.686 46.264 45.8754 46.0246 46.3573L43.7677 50.901C43.6993 51.0387 43.6651 51.1764 43.6651 51.3313V69.5236C43.6651 70.0571 44.0925 70.4874 44.6226 70.4874C45.1526 70.4874 45.5801 70.0571 45.5801 69.5236V57.9749H49.3246V69.5236C49.3246 70.0571 49.7521 70.4874 50.2821 70.4874C50.8122 70.4874 51.2396 70.0571 51.2396 69.5236V57.9749H51.4106C51.9407 57.9749 52.3681 57.5446 52.3681 57.011V45.9098C52.3681 43.9649 51.1199 42.2782 49.2733 41.7275L43.0666 39.8514H39.1682V39.9719C39.1682 42.5708 37.0651 44.6878 34.4833 44.6878C31.9014 44.6878 29.7129 42.5192 29.7129 39.9203V39.7998L25.8999 39.8514L21.044 41.3144C20.5311 41.4693 20.2575 42.0028 20.4114 42.5192H20.3772Z" fill="white"/>
<path d="M47.8373 41.3321L42.9814 39.8691H39.083V39.9896C39.083 42.5885 36.9799 44.7055 34.398 44.7055C31.8162 44.7055 29.7131 42.5885 29.7131 39.9896V39.8691H25.8147L19.608 41.7452C17.7614 42.2959 16.5132 43.9826 16.5132 45.9275V57.0287C16.5132 57.5623 16.9406 57.9926 17.4707 57.9926H17.6417V69.5413C17.6417 70.0748 18.0691 70.5051 18.5992 70.5051C19.1292 70.5051 19.5567 70.0748 19.5567 69.5413V57.9926H23.3012V69.5413C23.3012 70.0748 23.7287 70.5051 24.2587 70.5051C24.7888 70.5051 25.2162 70.0748 25.2162 69.5413V51.349C25.2162 51.1941 25.182 51.0564 25.1136 50.9188L22.8567 46.375C22.6173 45.8931 22.053 45.7037 21.5743 45.9447C21.0955 46.1857 20.9075 46.7536 21.1468 47.2355L23.3012 51.5728V56.0649H18.4282V45.9275C18.4282 44.8432 19.1292 43.8966 20.1551 43.5868L23.5748 42.5541C24.7375 47.5454 29.2172 51.1769 34.398 51.1769C37.0654 51.1769 39.6301 50.2131 41.6477 48.4748C43.443 46.9257 44.6912 44.8432 45.2213 42.5541L47.3072 43.1909C47.3927 43.2253 47.4953 43.2253 47.5808 43.2253C47.9912 43.2253 48.3673 42.95 48.487 42.5369C48.6409 42.0205 48.3502 41.487 47.8544 41.3321H47.8373Z" fill="white"/>
</g>
<path d="M18.4034 52.13C18.3634 52.27 18.32 52.4367 18.2734 52.63C18.2334 52.8167 18.2034 52.9667 18.1834 53.08C18.1367 53.3067 18.0767 53.5833 18.0034 53.91C17.9367 54.2367 17.8634 54.5833 17.7834 54.95C17.7034 55.31 17.62 55.66 17.5334 56C17.44 56.3467 17.33 56.7267 17.2034 57.14C17.0834 57.5533 16.95 57.97 16.8034 58.39C16.6634 58.81 16.52 59.2133 16.3734 59.6C16.2267 59.9867 16.0834 60.33 15.9434 60.63L14.5434 60.16C14.6967 59.9067 14.8534 59.5967 15.0134 59.23C15.18 58.8633 15.3434 58.4733 15.5034 58.06C15.6634 57.64 15.81 57.2233 15.9434 56.81C16.0767 56.39 16.19 56.0067 16.2834 55.66C16.3434 55.42 16.4034 55.1767 16.4634 54.93C16.5234 54.6833 16.5767 54.4433 16.6234 54.21C16.6767 53.9767 16.72 53.76 16.7534 53.56C16.7934 53.3533 16.8234 53.1767 16.8434 53.03C16.8634 52.8433 16.8767 52.6567 16.8834 52.47C16.89 52.2833 16.8867 52.13 16.8734 52.01L18.4034 52.13ZM15.8534 53.63C16.26 53.63 16.6834 53.61 17.1234 53.57C17.5634 53.53 18.0067 53.4733 18.4534 53.4C18.9 53.32 19.3434 53.23 19.7834 53.13V54.38C19.37 54.48 18.93 54.5633 18.4634 54.63C17.9967 54.6967 17.5367 54.75 17.0834 54.79C16.63 54.8233 16.2134 54.84 15.8334 54.84C15.5934 54.84 15.3767 54.8367 15.1834 54.83C14.99 54.8167 14.8034 54.8067 14.6234 54.8L14.5934 53.55C14.8534 53.5767 15.0767 53.5967 15.2634 53.61C15.45 53.6233 15.6467 53.63 15.8534 53.63ZM18.9934 55.16C19.2734 55.1267 19.5834 55.1033 19.9234 55.09C20.2634 55.07 20.5934 55.06 20.9134 55.06C21.2 55.06 21.49 55.0667 21.7834 55.08C22.0834 55.0933 22.38 55.1167 22.6734 55.15L22.6434 56.35C22.3967 56.3167 22.1234 56.2867 21.8234 56.26C21.53 56.2333 21.23 56.22 20.9234 56.22C20.5767 56.22 20.2467 56.23 19.9334 56.25C19.62 56.2633 19.3067 56.29 18.9934 56.33V55.16ZM19.5334 57.67C19.4934 57.81 19.46 57.9567 19.4334 58.11C19.4067 58.2633 19.3934 58.3933 19.3934 58.5C19.3934 58.6133 19.4167 58.7167 19.4634 58.81C19.51 58.9033 19.5834 58.9867 19.6834 59.06C19.7834 59.1267 19.92 59.18 20.0934 59.22C20.2734 59.2533 20.4967 59.27 20.7634 59.27C21.0967 59.27 21.4367 59.2533 21.7834 59.22C22.13 59.1867 22.4834 59.1367 22.8434 59.07L22.7934 60.34C22.5134 60.38 22.2034 60.4133 21.8634 60.44C21.5234 60.4733 21.1534 60.49 20.7534 60.49C19.9134 60.49 19.27 60.35 18.8234 60.07C18.3834 59.79 18.1634 59.4 18.1634 58.9C18.1634 58.6667 18.18 58.4333 18.2134 58.2C18.2534 57.9667 18.2934 57.7533 18.3334 57.56L19.5334 57.67ZM21.6034 52.42C21.69 52.54 21.78 52.6833 21.8734 52.85C21.9734 53.0167 22.07 53.1833 22.1634 53.35C22.2567 53.5167 22.3334 53.6633 22.3934 53.79L21.5934 54.14C21.5267 54 21.45 53.8467 21.3634 53.68C21.2767 53.5133 21.1867 53.3467 21.0934 53.18C21 53.0133 20.9067 52.87 20.8134 52.75L21.6034 52.42ZM22.7834 51.97C22.8767 52.09 22.9734 52.2367 23.0734 52.41C23.1734 52.5767 23.27 52.7433 23.3634 52.91C23.4634 53.07 23.54 53.21 23.5934 53.33L22.8034 53.67C22.6967 53.4567 22.57 53.22 22.4234 52.96C22.2767 52.7 22.1334 52.4767 21.9934 52.29L22.7834 51.97ZM29.7334 52.57C29.6867 52.6367 29.6334 52.7133 29.5734 52.8C29.52 52.88 29.4667 52.96 29.4134 53.04C29.2934 53.22 29.16 53.43 29.0134 53.67C28.8734 53.9033 28.7267 54.1533 28.5734 54.42C28.42 54.68 28.27 54.94 28.1234 55.2C27.9834 55.46 27.85 55.7 27.7234 55.92C27.91 55.8133 28.1 55.7367 28.2934 55.69C28.4867 55.6433 28.68 55.62 28.8734 55.62C29.2467 55.62 29.54 55.7333 29.7534 55.96C29.9734 56.18 30.0934 56.5 30.1134 56.92C30.12 57.0667 30.1234 57.2433 30.1234 57.45C30.1234 57.6567 30.1234 57.8633 30.1234 58.07C30.13 58.2767 30.14 58.45 30.1534 58.59C30.1734 58.7833 30.2434 58.9233 30.3634 59.01C30.49 59.09 30.6367 59.13 30.8034 59.13C31.0167 59.13 31.21 59.0667 31.3834 58.94C31.5634 58.8133 31.7234 58.64 31.8634 58.42C32.0034 58.1933 32.1234 57.94 32.2234 57.66C32.33 57.3733 32.42 57.0767 32.4934 56.77L33.5734 57.65C33.4 58.2167 33.18 58.7167 32.9134 59.15C32.6467 59.5767 32.32 59.9067 31.9334 60.14C31.5534 60.38 31.1067 60.5 30.5934 60.5C30.2267 60.5 29.92 60.4333 29.6734 60.3C29.4267 60.1733 29.2434 60.0067 29.1234 59.8C29.0034 59.5867 28.9367 59.3567 28.9234 59.11C28.91 58.93 28.9 58.73 28.8934 58.51C28.8934 58.29 28.89 58.0767 28.8834 57.87C28.8834 57.6567 28.8767 57.4833 28.8634 57.35C28.85 57.1767 28.7934 57.04 28.6934 56.94C28.5934 56.84 28.4534 56.79 28.2734 56.79C28.0534 56.79 27.8434 56.86 27.6434 57C27.4434 57.14 27.26 57.3233 27.0934 57.55C26.9334 57.7767 26.7934 58.0267 26.6734 58.3C26.6067 58.4467 26.5367 58.62 26.4634 58.82C26.39 59.02 26.32 59.2267 26.2534 59.44C26.1867 59.6533 26.1234 59.8533 26.0634 60.04C26.0034 60.2333 25.9534 60.3967 25.9134 60.53L24.5034 60.05C24.63 59.7167 24.7834 59.3367 24.9634 58.91C25.15 58.4767 25.3534 58.0233 25.5734 57.55C25.7934 57.0767 26.0167 56.6067 26.2434 56.14C26.47 55.6733 26.6867 55.2333 26.8934 54.82C27.1 54.4 27.2834 54.0367 27.4434 53.73C27.61 53.4167 27.7367 53.18 27.8234 53.02C27.89 52.8867 27.9667 52.7367 28.0534 52.57C28.14 52.4033 28.2267 52.2133 28.3134 52L29.7334 52.57ZM41.6134 52.15C41.6067 52.2033 41.6 52.2833 41.5934 52.39C41.5867 52.49 41.58 52.5967 41.5734 52.71C41.5667 52.8233 41.56 52.9267 41.5534 53.02C41.5534 53.24 41.55 53.4533 41.5434 53.66C41.5434 53.8667 41.54 54.0633 41.5334 54.25C41.5334 54.43 41.53 54.6067 41.5234 54.78C41.5167 55.0733 41.5067 55.38 41.4934 55.7C41.48 56.02 41.4634 56.3167 41.4434 56.59C41.4234 56.8633 41.3967 57.0867 41.3634 57.26C41.31 57.52 41.2167 57.6967 41.0834 57.79C40.95 57.8767 40.7534 57.92 40.4934 57.92C40.38 57.92 40.2234 57.9133 40.0234 57.9C39.83 57.88 39.6367 57.8567 39.4434 57.83C39.2567 57.8033 39.1034 57.7833 38.9834 57.77L39.0134 56.66C39.1667 56.6933 39.3334 56.7233 39.5134 56.75C39.7 56.7767 39.84 56.79 39.9334 56.79C40.0334 56.79 40.1067 56.7767 40.1534 56.75C40.2067 56.7167 40.2367 56.6533 40.2434 56.56C40.2634 56.4333 40.2767 56.2733 40.2834 56.08C40.2967 55.8867 40.3067 55.6767 40.3134 55.45C40.3267 55.2167 40.3367 54.99 40.3434 54.77C40.3434 54.59 40.3434 54.41 40.3434 54.23C40.3434 54.0433 40.3434 53.8533 40.3434 53.66C40.3434 53.46 40.3434 53.2633 40.3434 53.07C40.3434 52.9833 40.3367 52.8833 40.3234 52.77C40.3167 52.65 40.31 52.5333 40.3034 52.42C40.2967 52.3067 40.2867 52.2167 40.2734 52.15H41.6134ZM37.6834 52.45C37.6567 52.6167 37.64 52.78 37.6334 52.94C37.6267 53.0933 37.6234 53.2767 37.6234 53.49C37.6234 53.67 37.62 53.91 37.6134 54.21C37.6134 54.51 37.61 54.8367 37.6034 55.19C37.6034 55.5367 37.6 55.8867 37.5934 56.24C37.5934 56.5867 37.5934 56.9033 37.5934 57.19C37.5934 57.4767 37.5967 57.7033 37.6034 57.87C37.61 58.1167 37.6267 58.32 37.6534 58.48C37.6867 58.6333 37.7534 58.7533 37.8534 58.84C37.9534 58.9267 38.11 58.9867 38.3234 59.02C38.5434 59.0533 38.84 59.07 39.2134 59.07C39.54 59.07 39.8867 59.06 40.2534 59.04C40.62 59.0133 40.9734 58.98 41.3134 58.94C41.6534 58.9 41.95 58.86 42.2034 58.82L42.1534 60.18C41.9334 60.2067 41.66 60.23 41.3334 60.25C41.0067 60.2767 40.6667 60.2967 40.3134 60.31C39.96 60.33 39.6234 60.34 39.3034 60.34C38.6567 60.34 38.14 60.3033 37.7534 60.23C37.3667 60.1567 37.0734 60.0333 36.8734 59.86C36.6734 59.6867 36.54 59.4533 36.4734 59.16C36.4067 58.8667 36.3667 58.5033 36.3534 58.07C36.3534 57.9233 36.35 57.7267 36.3434 57.48C36.3434 57.2333 36.3434 56.96 36.3434 56.66C36.3434 56.3533 36.3434 56.04 36.3434 55.72C36.3434 55.4 36.3434 55.0967 36.3434 54.81C36.35 54.5167 36.3534 54.26 36.3534 54.04C36.3534 53.82 36.3534 53.66 36.3534 53.56C36.3534 53.3533 36.3467 53.16 36.3334 52.98C36.32 52.8 36.3 52.6233 36.2734 52.45H37.6834ZM34.3334 54.71C34.48 54.71 34.6634 54.7033 34.8834 54.69C35.1034 54.6767 35.34 54.66 35.5934 54.64C35.7934 54.62 36.09 54.5933 36.4834 54.56C36.8767 54.52 37.3234 54.4767 37.8234 54.43C38.3234 54.3833 38.8434 54.3367 39.3834 54.29C39.93 54.2367 40.4534 54.19 40.9534 54.15C41.4534 54.11 41.8967 54.0767 42.2834 54.05C42.4234 54.0367 42.58 54.0267 42.7534 54.02C42.9334 54.0067 43.0967 53.9933 43.2434 53.98V55.21C43.19 55.2033 43.1034 55.2 42.9834 55.2C42.8634 55.2 42.7367 55.2033 42.6034 55.21C42.4767 55.21 42.37 55.2133 42.2834 55.22C42.0234 55.2267 41.7067 55.2433 41.3334 55.27C40.96 55.29 40.56 55.32 40.1334 55.36C39.7067 55.3933 39.27 55.4333 38.8234 55.48C38.3834 55.52 37.96 55.5633 37.5534 55.61C37.1467 55.6567 36.78 55.6967 36.4534 55.73C36.1267 55.7633 35.8667 55.79 35.6734 55.81C35.5667 55.8233 35.4367 55.8433 35.2834 55.87C35.13 55.89 34.9767 55.9133 34.8234 55.94C34.6767 55.96 34.56 55.9767 34.4734 55.99L34.3334 54.71ZM46.5634 52.85C46.5367 52.97 46.5134 53.1067 46.4934 53.26C46.48 53.4133 46.4667 53.5633 46.4534 53.71C46.4467 53.8567 46.4434 53.9767 46.4434 54.07C46.4367 54.29 46.4334 54.5167 46.4334 54.75C46.44 54.9833 46.4467 55.2233 46.4534 55.47C46.4667 55.71 46.4834 55.95 46.5034 56.19C46.55 56.67 46.6167 57.0933 46.7034 57.46C46.79 57.8267 46.9034 58.1133 47.0434 58.32C47.1834 58.52 47.36 58.62 47.5734 58.62C47.6867 58.62 47.7967 58.5567 47.9034 58.43C48.0167 58.3033 48.1167 58.14 48.2034 57.94C48.2967 57.7333 48.3767 57.5167 48.4434 57.29C48.5167 57.0633 48.58 56.85 48.6334 56.65L49.6334 57.87C49.4134 58.45 49.1934 58.9133 48.9734 59.26C48.76 59.6 48.5367 59.8467 48.3034 60C48.07 60.1467 47.8167 60.22 47.5434 60.22C47.1834 60.22 46.84 60.1 46.5134 59.86C46.1934 59.62 45.92 59.2333 45.6934 58.7C45.4667 58.16 45.3067 57.4433 45.2134 56.55C45.18 56.2433 45.1534 55.92 45.1334 55.58C45.12 55.24 45.11 54.9167 45.1034 54.61C45.1034 54.3033 45.1034 54.05 45.1034 53.85C45.1034 53.71 45.0967 53.5433 45.0834 53.35C45.07 53.1567 45.05 52.9833 45.0234 52.83L46.5634 52.85ZM51.5634 53.08C51.75 53.3067 51.93 53.5833 52.1034 53.91C52.2767 54.2367 52.4367 54.5867 52.5834 54.96C52.73 55.3333 52.86 55.7167 52.9734 56.11C53.0867 56.4967 53.1767 56.8767 53.2434 57.25C53.3167 57.6167 53.3634 57.9533 53.3834 58.26L52.0634 58.77C52.03 58.3633 51.97 57.92 51.8834 57.44C51.7967 56.96 51.68 56.4767 51.5334 55.99C51.3867 55.5033 51.21 55.0433 51.0034 54.61C50.8034 54.1767 50.5667 53.8033 50.2934 53.49L51.5634 53.08Z" fill="white"/>
</svg>
