<svg width="68" height="68" viewBox="0 0 68 68" fill="none" xmlns="http://www.w3.org/2000/svg">
<circle cx="34" cy="34" r="34" fill="#020000"/>
<mask id="mask0_382_25" style="mask-type:luminance" maskUnits="userSpaceOnUse" x="16" y="10" width="36" height="36">
<path d="M16.5854 10.2108H51.7086V45.334H16.5854V10.2108Z" fill="white"/>
</mask>
<g mask="url(#mask0_382_25)">
<path d="M34.147 10.8973C27.8363 10.8973 22.5001 15.5686 21.6653 21.8239L20.8002 28.3059C19.6967 30.2548 20.0391 32.7017 21.6351 34.2729C22.5769 35.2001 23.8455 35.7197 25.1672 35.7197H30.5969" stroke="white" stroke-width="2" stroke-miterlimit="10" stroke-linecap="round" stroke-linejoin="round"/>
<path d="M34.147 10.8973C40.4577 10.8973 45.7939 15.5686 46.6287 21.8239L47.4938 28.3059C48.5973 30.2548 48.2548 32.7017 46.6589 34.2729C45.717 35.2001 44.4485 35.7197 43.1268 35.7197H37.84" stroke="white" stroke-width="2" stroke-miterlimit="10" stroke-linecap="round" stroke-linejoin="round"/>
<path d="M25.717 24.9711V28.0554C25.717 32.7111 29.4913 36.4854 34.1471 36.4854C38.8028 36.4854 42.577 32.7111 42.577 28.0554V24.1685" stroke="white" stroke-width="2" stroke-miterlimit="10" stroke-linecap="round" stroke-linejoin="round"/>
<path d="M35.9532 29.8931C36.4633 29.8931 36.8124 30.4085 36.6231 30.8821C36.2303 31.8645 35.2697 32.5586 34.1471 32.5586C33.0245 32.5586 32.0639 31.8645 31.6711 30.8821C31.4817 30.4085 31.8309 29.8931 32.341 29.8931H35.9532Z" fill="white"/>
<path d="M32.17 26.2188C31.3767 25.4254 30.0905 25.4254 29.2971 26.2188" stroke="white" stroke-width="2" stroke-miterlimit="10" stroke-linecap="round" stroke-linejoin="round"/>
<path d="M36.124 26.2188C36.9173 25.4254 38.2036 25.4254 38.9969 26.2188" stroke="white" stroke-width="2" stroke-miterlimit="10" stroke-linecap="round" stroke-linejoin="round"/>
<path d="M30.5076 21.0011C29.6004 23.1822 27.449 24.7158 24.9395 24.7158" stroke="white" stroke-width="2" stroke-miterlimit="10" stroke-linecap="round" stroke-linejoin="round"/>
<path d="M30.0273 18.3725C30.0273 20.6168 31.4937 22.5976 33.6402 23.253L39.4631 25.0308C41.3987 25.6217 43.3547 24.1737 43.3547 22.1499" stroke="white" stroke-width="2" stroke-miterlimit="10" stroke-linecap="round" stroke-linejoin="round"/>
<path d="M31.243 36.0278L30.9676 37.301C30.7911 38.1174 30.0689 38.7001 29.2337 38.7001H27.3458C23.1553 38.7001 19.2961 40.9784 17.2715 44.6475H51.0226C48.998 40.9784 45.1388 38.7001 40.9483 38.7001H39.0605C38.2252 38.7001 37.503 38.1174 37.3265 37.301L37.0512 36.0278" stroke="white" stroke-width="2" stroke-miterlimit="10" stroke-linecap="round" stroke-linejoin="round"/>
<path d="M39.6319 38.701C38.5479 40.6137 36.4938 41.9043 34.1383 41.9043C31.7828 41.9043 29.7288 40.6137 28.6448 38.701" stroke="white" stroke-width="2" stroke-miterlimit="10" stroke-linecap="round" stroke-linejoin="round"/>
</g>
<line x1="9.12207" y1="44.7744" x2="58.0489" y2="44.7744" stroke="white" stroke-width="1.67"/>
<path d="M23.9866 53.77H33.1166V54.99H23.9866V53.77ZM27.5666 51.5L28.8866 51.74C28.6866 52.28 28.47 52.8433 28.2366 53.43C28.01 54.0167 27.7766 54.6 27.5366 55.18C27.2966 55.76 27.06 56.3167 26.8266 56.85C26.6 57.3833 26.3866 57.8667 26.1866 58.3L24.9666 57.87C25.16 57.4567 25.37 56.9933 25.5966 56.48C25.83 55.96 26.0633 55.4167 26.2966 54.85C26.53 54.2767 26.7566 53.7067 26.9766 53.14C27.1966 52.5667 27.3933 52.02 27.5666 51.5ZM30.3666 54.37L31.6866 54.66C31.4866 55.7 31.2133 56.5833 30.8666 57.31C30.52 58.03 30.0733 58.63 29.5266 59.11C28.98 59.5833 28.31 59.96 27.5166 60.24C26.73 60.5267 25.7933 60.7533 24.7066 60.92C24.6533 60.7267 24.5666 60.5167 24.4466 60.29C24.3266 60.0633 24.2033 59.8733 24.0766 59.72C25.0833 59.6067 25.9466 59.4367 26.6666 59.21C27.3866 58.9767 27.99 58.6567 28.4766 58.25C28.97 57.8433 29.3666 57.3267 29.6666 56.7C29.9733 56.0667 30.2066 55.29 30.3666 54.37ZM25.6266 57.66L26.4266 56.73C26.9666 56.9033 27.5366 57.1133 28.1366 57.36C28.7366 57.6 29.3366 57.86 29.9366 58.14C30.5366 58.4133 31.0966 58.6933 31.6166 58.98C32.1366 59.2667 32.58 59.5467 32.9466 59.82L32.0366 60.95C31.7033 60.6767 31.2866 60.39 30.7866 60.09C30.2866 59.79 29.7433 59.4933 29.1566 59.2C28.5766 58.9067 27.98 58.63 27.3666 58.37C26.76 58.1033 26.18 57.8667 25.6266 57.66ZM35.0266 51.5H36.2266V60.89H35.0266V51.5ZM34.1866 53.43L35.0366 53.55C35.0233 53.8367 34.9966 54.15 34.9566 54.49C34.9166 54.83 34.8633 55.1633 34.7966 55.49C34.7366 55.8167 34.6666 56.11 34.5866 56.37L33.6966 56.05C33.7766 55.83 33.8466 55.5667 33.9066 55.26C33.9733 54.9533 34.03 54.64 34.0766 54.32C34.13 54 34.1666 53.7033 34.1866 53.43ZM35.9966 53.5L36.8066 53.16C36.9466 53.4133 37.08 53.6933 37.2066 54C37.3333 54.3067 37.4233 54.5667 37.4766 54.78L36.6066 55.18C36.58 55.0333 36.5333 54.8667 36.4666 54.68C36.4 54.4867 36.3266 54.2867 36.2466 54.08C36.1666 53.8733 36.0833 53.68 35.9966 53.5ZM37.8866 51.96L39.0566 52.14C38.99 52.6333 38.9 53.1233 38.7866 53.61C38.68 54.09 38.5533 54.54 38.4066 54.96C38.2666 55.3733 38.11 55.7367 37.9366 56.05C37.8633 55.9967 37.76 55.9333 37.6266 55.86C37.4933 55.7867 37.3566 55.72 37.2166 55.66C37.0833 55.5933 36.9666 55.54 36.8666 55.5C37.0466 55.22 37.2033 54.89 37.3366 54.51C37.47 54.13 37.58 53.7233 37.6666 53.29C37.76 52.85 37.8333 52.4067 37.8866 51.96ZM38.2466 53.53H42.8666V54.66H37.8966L38.2466 53.53ZM39.6166 51.56H40.8166V60.09H39.6166V51.56ZM37.6666 56.31H42.6466V57.43H37.6666V56.31ZM36.9166 59.43H43.1766V60.58H36.9166V59.43Z" fill="white"/>
</svg>
