<svg width="68" height="68" viewBox="0 0 68 68" fill="none" xmlns="http://www.w3.org/2000/svg">
<circle cx="34" cy="34" r="34" fill="#368AFE"/>
<mask id="mask0_388_23" style="mask-type:luminance" maskUnits="userSpaceOnUse" x="16" y="10" width="36" height="36">
<path d="M50.7085 44.334V11.2109H17.5854V44.334H50.7085Z" fill="white" stroke="white" stroke-width="2"/>
</mask>
<g mask="url(#mask0_388_23)">
<path d="M34.1473 10.8973C27.8365 10.8973 22.5004 15.5686 21.6655 21.8239L20.8004 28.3059C19.697 30.2548 20.0394 32.7017 21.6353 34.2729C22.5772 35.2001 23.8458 35.7197 25.1674 35.7197H30.5972" stroke="white" stroke-width="2" stroke-miterlimit="10" stroke-linecap="round" stroke-linejoin="round"/>
<path d="M34.147 10.8973C40.4577 10.8973 45.7939 15.5686 46.6287 21.8239L47.4938 28.3059C48.5973 30.2548 48.2548 32.7017 46.6589 34.2729C45.717 35.2001 44.4485 35.7197 43.1268 35.7197H37.84" stroke="white" stroke-width="2" stroke-miterlimit="10" stroke-linecap="round" stroke-linejoin="round"/>
<path d="M25.7168 24.9711V28.0554C25.7168 32.7111 29.4911 36.4854 34.1468 36.4854C38.8026 36.4854 42.5768 32.7111 42.5768 28.0554V24.1685" stroke="white" stroke-width="2" stroke-miterlimit="10" stroke-linecap="round" stroke-linejoin="round"/>
<path d="M34.147 31.5586C34.6899 31.5586 35.1725 31.2977 35.4771 30.8936H32.8159C33.1204 31.2979 33.6038 31.5586 34.147 31.5586Z" fill="black" stroke="white" stroke-width="2"/>
<path d="M32.1703 26.2188C31.377 25.4254 30.0907 25.4254 29.2974 26.2188" stroke="white" stroke-width="2" stroke-miterlimit="10" stroke-linecap="round" stroke-linejoin="round"/>
<path d="M36.124 26.2188C36.9173 25.4254 38.2036 25.4254 38.9969 26.2188" stroke="white" stroke-width="2" stroke-miterlimit="10" stroke-linecap="round" stroke-linejoin="round"/>
<path d="M30.5076 21.0011C29.6004 23.1822 27.449 24.7158 24.9395 24.7158" stroke="white" stroke-width="2" stroke-miterlimit="10" stroke-linecap="round" stroke-linejoin="round"/>
<path d="M30.0273 18.3725C30.0273 20.6168 31.4937 22.5976 33.6402 23.253L39.4631 25.0308C41.3987 25.6217 43.3547 24.1737 43.3547 22.1499" stroke="white" stroke-width="2" stroke-miterlimit="10" stroke-linecap="round" stroke-linejoin="round"/>
<path d="M31.243 36.0278L30.9676 37.301C30.7911 38.1174 30.0689 38.7001 29.2337 38.7001H27.3458C23.1553 38.7001 19.2961 40.9784 17.2715 44.6475H51.0226C48.998 40.9784 45.1388 38.7001 40.9483 38.7001H39.0605C38.2252 38.7001 37.503 38.1174 37.3265 37.301L37.0512 36.0278" stroke="white" stroke-width="2" stroke-miterlimit="10" stroke-linecap="round" stroke-linejoin="round"/>
<path d="M39.6316 38.701C38.5476 40.6137 36.4936 41.9043 34.1381 41.9043C31.7826 41.9043 29.7285 40.6137 28.6445 38.701" stroke="white" stroke-width="2" stroke-miterlimit="10" stroke-linecap="round" stroke-linejoin="round"/>
</g>
<line x1="9.12207" y1="44.7744" x2="58.0489" y2="44.7744" stroke="white" stroke-width="1.67"/>
<path d="M21.1924 60V55.74C21.1924 55.4 21.249 55.1333 21.3624 54.94C21.4824 54.7467 21.6457 54.6133 21.8524 54.54C22.059 54.46 22.2957 54.42 22.5624 54.42C22.749 54.42 22.9157 54.44 23.0624 54.48C23.209 54.5133 23.329 54.5533 23.4224 54.6L23.2224 55.58C23.169 55.5667 23.1157 55.5567 23.0624 55.55C23.009 55.5433 22.9657 55.54 22.9324 55.54C22.8057 55.54 22.7157 55.5733 22.6624 55.64C22.6157 55.7067 22.5924 55.8033 22.5924 55.93V56.86C22.5924 57.0267 22.5857 57.2267 22.5724 57.46C22.559 57.6867 22.5357 57.9733 22.5024 58.32H22.5524C22.6857 58.0067 22.8024 57.7567 22.9024 57.57C23.009 57.3767 23.1024 57.2067 23.1824 57.06L23.5524 56.39H24.1124L24.4824 57.06C24.5757 57.22 24.6557 57.3667 24.7224 57.5C24.789 57.6267 24.8524 57.7533 24.9124 57.88C24.9724 58.0067 25.039 58.1533 25.1124 58.32H25.1624C25.129 57.9733 25.1057 57.6867 25.0924 57.46C25.079 57.2267 25.0724 57.0267 25.0724 56.86V54.52H26.4724V60H25.0424L23.8524 57.82H23.8124L22.6224 60H21.1924ZM24.9386 62.65C24.4052 62.65 24.0152 62.57 23.7686 62.41C23.5219 62.25 23.3986 62.04 23.3986 61.78V61.61C23.3986 61.4967 23.3686 61.4267 23.3086 61.4C23.2486 61.38 23.1686 61.3833 23.0686 61.41L22.9986 60.74C23.0919 60.7 23.2119 60.6733 23.3586 60.66C23.5052 60.6467 23.6252 60.64 23.7186 60.64C24.0119 60.64 24.2252 60.6933 24.3586 60.8C24.4852 60.9067 24.5486 61.0567 24.5486 61.25V61.48C24.5486 61.5933 24.5752 61.68 24.6286 61.74C24.6752 61.8067 24.7652 61.84 24.8986 61.84C25.0386 61.84 25.1352 61.8067 25.1886 61.74C25.2419 61.68 25.2686 61.5933 25.2686 61.48V60.67H26.4886V61.64C26.4886 61.9667 26.3652 62.2167 26.1186 62.39C25.8719 62.5633 25.4786 62.65 24.9386 62.65ZM23.4586 53.77V53.27C23.5519 53.2433 23.6552 53.2067 23.7686 53.16C23.8819 53.1133 23.9819 53.05 24.0686 52.97C24.1552 52.89 24.1986 52.79 24.1986 52.67C24.1986 52.5767 24.1719 52.5033 24.1186 52.45C24.0652 52.3967 23.9986 52.37 23.9186 52.37C23.8652 52.37 23.8086 52.38 23.7486 52.4C23.6886 52.42 23.6352 52.44 23.5886 52.46L23.3986 51.79C23.5319 51.6767 23.6986 51.6033 23.8986 51.57C24.0919 51.53 24.2552 51.51 24.3886 51.51C24.6886 51.51 24.9252 51.58 25.0986 51.72C25.2652 51.86 25.3486 52.0667 25.3486 52.34C25.3486 52.4867 25.3119 52.6233 25.2386 52.75C25.1586 52.8767 25.0386 52.98 24.8786 53.06L24.8386 52.8H26.7286V53.77H23.4586ZM28.0488 60V54.52H29.5288V56.57H29.5688L31.2688 54.52H32.9188V54.57L29.5288 58.33V60H28.0488ZM31.3988 60V58.19C31.3988 57.8367 31.2955 57.5833 31.0888 57.43C30.8888 57.27 30.5955 57.19 30.2088 57.19L31.0888 56.15C31.4888 56.15 31.8221 56.23 32.0888 56.39C32.3555 56.55 32.5555 56.7667 32.6888 57.04C32.8288 57.3067 32.8988 57.6133 32.8988 57.96V60H31.3988ZM39.4495 61.96C39.1495 61.96 38.8495 61.93 38.5495 61.87C38.2495 61.8167 37.9728 61.7333 37.7195 61.62V60.35C37.8928 60.4567 38.1128 60.55 38.3795 60.63C38.6528 60.7167 38.9395 60.76 39.2395 60.76C39.5262 60.76 39.7695 60.7167 39.9695 60.63C40.1762 60.5433 40.3328 60.41 40.4395 60.23C40.5528 60.05 40.6095 59.82 40.6095 59.54V59.25H40.5395C40.4128 59.4367 40.2295 59.5967 39.9895 59.73C39.7562 59.8633 39.4528 59.93 39.0795 59.93C38.7462 59.93 38.4528 59.87 38.1995 59.75C37.9528 59.63 37.7595 59.4433 37.6195 59.19C37.4795 58.93 37.4095 58.5967 37.4095 58.19V56.51C37.4095 56.2767 37.3662 56.0933 37.2795 55.96C37.1995 55.82 37.0895 55.72 36.9495 55.66C36.8095 55.6 36.6495 55.57 36.4695 55.57C36.2162 55.57 36.0062 55.6267 35.8395 55.74C35.6728 55.8467 35.5828 56.01 35.5695 56.23L36.4395 56.65L36.3395 57.3C36.0928 57.3067 35.9062 57.3667 35.7795 57.48C35.6528 57.5867 35.5895 57.7767 35.5895 58.05V58.66C35.5895 58.8067 35.6195 58.9133 35.6795 58.98C35.7462 59.04 35.8495 59.07 35.9895 59.07C36.0495 59.07 36.1095 59.0667 36.1695 59.06C36.2362 59.0467 36.2928 59.03 36.3395 59.01L36.4795 59.9C36.3528 59.9667 36.2095 60.0167 36.0495 60.05C35.8895 60.0833 35.7195 60.1 35.5395 60.1C35.2528 60.1 35.0028 60.0533 34.7895 59.96C34.5828 59.8667 34.4195 59.7267 34.2995 59.54C34.1862 59.3467 34.1295 59.1067 34.1295 58.82V58.17C34.1295 57.7767 34.2162 57.4867 34.3895 57.3C34.5628 57.1133 34.8028 56.9733 35.1095 56.88L35.1195 56.84L34.0295 56.45V56.19C34.0295 55.85 34.1228 55.5467 34.3095 55.28C34.5028 55.0067 34.7828 54.79 35.1495 54.63C35.5162 54.47 35.9628 54.39 36.4895 54.39C36.9828 54.39 37.4062 54.4667 37.7595 54.62C38.1195 54.7667 38.3962 54.99 38.5895 55.29C38.7828 55.5833 38.8795 55.9533 38.8795 56.4V57.74C38.8795 58.06 38.9495 58.29 39.0895 58.43C39.2295 58.57 39.4028 58.64 39.6095 58.64C39.8028 58.64 39.9695 58.5867 40.1095 58.48C40.2495 58.3667 40.3595 58.2133 40.4395 58.02C40.5195 57.82 40.5595 57.5867 40.5595 57.32V54.52H42.0595V59.33C42.0595 59.9233 41.9595 60.4133 41.7595 60.8C41.5662 61.1933 41.2762 61.4833 40.8895 61.67C40.5028 61.8633 40.0228 61.96 39.4495 61.96ZM37.4845 53.76V53.13L38.4945 52.71H42.0645V53.76H37.4845ZM44.4847 60L42.8947 54.52H44.4047L45.6147 58.79H45.6747C45.7814 58.79 45.8814 58.76 45.9747 58.7C46.0681 58.64 46.1481 58.56 46.2147 58.46C46.3481 58.2733 46.4481 58.0533 46.5147 57.8C46.5814 57.54 46.6147 57.2833 46.6147 57.03C46.6147 56.5833 46.5281 56.24 46.3547 56C46.1881 55.76 45.9547 55.64 45.6547 55.64C45.5947 55.64 45.5381 55.6433 45.4847 55.65C45.4381 55.6567 45.3947 55.67 45.3547 55.69L45.0747 54.54C45.2281 54.4933 45.3714 54.4667 45.5047 54.46C45.6447 54.4467 45.7581 54.44 45.8447 54.44C46.1981 54.44 46.5047 54.4867 46.7647 54.58C47.0247 54.6733 47.2481 54.8133 47.4347 55C47.6681 55.2267 47.8414 55.51 47.9547 55.85C48.0747 56.19 48.1347 56.5733 48.1347 57C48.1347 57.54 48.0481 58.0133 47.8747 58.42C47.7081 58.82 47.5047 59.1367 47.2647 59.37C47.0647 59.5633 46.8114 59.7167 46.5047 59.83C46.2047 59.9433 45.7914 60 45.2647 60H44.4847Z" fill="white"/>
</svg>
