<svg width="68" height="68" viewBox="0 0 68 68" fill="none" xmlns="http://www.w3.org/2000/svg">
<circle cx="34" cy="34" r="34" fill="#367F76"/>
<line x1="9" y1="45.165" x2="58" y2="45.165" stroke="white" stroke-width="1.67"/>
<mask id="mask0_388_32" style="mask-type:luminance" maskUnits="userSpaceOnUse" x="14" y="6" width="40" height="39">
<path d="M53.9758 6.63379H14.1709V44.9632H53.9758V6.63379Z" fill="white"/>
</mask>
<g mask="url(#mask0_388_32)">
<path d="M29.6957 37.6142C31.1149 38.2854 32.705 38.6641 34.3806 38.6641C36.0563 38.6641 37.6464 38.2854 39.0656 37.6142V39.8689H42.964L40.9806 39.2665V36.4783C43.5111 34.585 45.221 31.6591 45.4604 28.3029C46.7769 27.9071 47.7515 26.6679 47.7515 25.2049C47.7515 24.2583 47.3241 23.3633 46.623 22.7609V16.1174C46.623 14.293 45.6997 12.5891 44.2122 11.5736C43.7163 9.68037 42.0236 8.33789 40.0231 8.33789H30.9952C26.1051 8.33789 22.1383 12.3309 22.1383 17.2533V22.7609C21.4372 23.3633 21.0098 24.2583 21.0098 25.2049C21.0098 26.6679 21.9844 27.9071 23.3009 28.3029C23.5403 31.6419 25.2501 34.585 27.7807 36.4783V39.2665L25.7973 39.8689H29.6957V37.6142ZM25.1647 27.4596C25.1647 26.926 24.7372 26.4957 24.2072 26.4957C23.489 26.4957 22.9077 25.9106 22.9077 25.1877C22.9077 24.723 23.1471 24.2927 23.5574 24.0517C23.5745 24.0517 23.5916 24.0173 23.6258 24.0173C23.8139 23.9313 24.002 23.8796 24.2072 23.8796H25.6434C26.5496 23.8796 27.3361 23.2944 27.6268 22.4511L28.2765 20.4718C30.5164 20.4202 37.5951 20.1104 41.5619 18.1139C42.0407 17.8729 42.2288 17.3049 41.9894 16.823C41.75 16.3411 41.1858 16.1518 40.707 16.3927C36.4495 18.5442 27.661 18.5614 27.5755 18.5614C27.1652 18.5614 26.8061 18.8195 26.6693 19.2154L25.7973 21.8487C25.7973 21.8487 25.7118 21.9692 25.6263 21.9692H24.1901C24.1901 21.9692 24.0704 21.9692 24.0191 21.9692V17.2361C24.0191 13.3808 27.131 10.2311 30.9781 10.2311H40.006C41.2029 10.2311 42.2117 11.0917 42.3998 12.2965C42.4511 12.5891 42.622 12.8472 42.8785 12.9849C44.007 13.6217 44.708 14.8093 44.708 16.1002V23.2428C44.708 23.587 44.8961 23.8968 45.1868 24.069C45.5971 24.3099 45.8365 24.723 45.8365 25.2049C45.8365 25.9278 45.2552 26.513 44.537 26.513C44.007 26.513 43.5795 26.9432 43.5795 27.4768C43.5795 32.5885 39.4417 36.7536 34.3636 36.7536C29.2854 36.7536 25.1476 32.5885 25.1476 27.4768L25.1647 27.4596Z" fill="white"/>
<path d="M34.3811 32.9671C35.5267 32.9671 36.621 32.4164 37.3733 31.4697C37.6982 31.0567 37.6469 30.4543 37.2365 30.11C36.8262 29.783 36.2277 29.8347 35.8857 30.2477C35.4754 30.7469 34.9453 31.0222 34.364 31.0222C33.7827 31.0222 33.2526 30.7469 32.8422 30.2477C32.5174 29.8347 31.9018 29.7658 31.4915 30.11C31.0811 30.4371 31.0127 31.0567 31.3547 31.4697C32.1241 32.4164 33.2184 32.9671 34.3469 32.9671H34.3811Z" fill="white"/>
<path d="M29.8667 27.2872C30.3967 27.2872 30.8242 26.8569 30.8242 26.3234V25.1875C30.8242 24.6539 30.3967 24.2236 29.8667 24.2236C29.3366 24.2236 28.9092 24.6539 28.9092 25.1875V26.3234C28.9092 26.8569 29.3366 27.2872 29.8667 27.2872Z" fill="white"/>
<path d="M38.895 27.2872C39.4251 27.2872 39.8525 26.8569 39.8525 26.3234V25.1875C39.8525 24.6539 39.4251 24.2236 38.895 24.2236C38.365 24.2236 37.9375 24.6539 37.9375 25.1875V26.3234C37.9375 26.8569 38.365 27.2872 38.895 27.2872Z" fill="white"/>
<path d="M20.3772 42.5192C20.4969 42.9322 20.873 43.2076 21.2834 43.2076C21.3689 43.2076 21.4715 43.2076 21.557 43.1732L23.643 42.5364C24.173 44.8255 25.4212 46.908 27.2165 48.4571C29.2341 50.1954 31.7988 51.1592 34.4662 51.1592C39.647 51.1592 44.1267 47.5104 45.2894 42.5364L48.7091 43.5691C49.7521 43.8789 50.436 44.8255 50.436 45.9098V56.0472H50.265H45.5801V51.5551L47.7345 47.2178C47.9739 46.7359 47.7858 46.168 47.307 45.927C46.8283 45.686 46.264 45.8754 46.0246 46.3573L43.7677 50.901C43.6993 51.0387 43.6651 51.1764 43.6651 51.3313V69.5236C43.6651 70.0571 44.0925 70.4874 44.6226 70.4874C45.1526 70.4874 45.5801 70.0571 45.5801 69.5236V57.9749H49.3246V69.5236C49.3246 70.0571 49.7521 70.4874 50.2821 70.4874C50.8122 70.4874 51.2396 70.0571 51.2396 69.5236V57.9749H51.4106C51.9407 57.9749 52.3681 57.5446 52.3681 57.011V45.9098C52.3681 43.9649 51.1199 42.2782 49.2733 41.7275L43.0666 39.8514H39.1682V39.9719C39.1682 42.5708 37.0651 44.6878 34.4833 44.6878C31.9014 44.6878 29.7129 42.5192 29.7129 39.9203V39.7998L25.8999 39.8514L21.044 41.3144C20.5311 41.4693 20.2575 42.0028 20.4114 42.5192H20.3772Z" fill="white"/>
<path d="M47.8373 41.3321L42.9814 39.8691H39.083V39.9896C39.083 42.5885 36.9799 44.7055 34.398 44.7055C31.8162 44.7055 29.7131 42.5885 29.7131 39.9896V39.8691H25.8147L19.608 41.7452C17.7614 42.2959 16.5132 43.9826 16.5132 45.9275V57.0287C16.5132 57.5623 16.9406 57.9926 17.4707 57.9926H17.6417V69.5413C17.6417 70.0748 18.0691 70.5051 18.5992 70.5051C19.1292 70.5051 19.5567 70.0748 19.5567 69.5413V57.9926H23.3012V69.5413C23.3012 70.0748 23.7287 70.5051 24.2587 70.5051C24.7888 70.5051 25.2162 70.0748 25.2162 69.5413V51.349C25.2162 51.1941 25.182 51.0564 25.1136 50.9188L22.8567 46.375C22.6173 45.8931 22.053 45.7037 21.5743 45.9447C21.0955 46.1857 20.9075 46.7536 21.1468 47.2355L23.3012 51.5728V56.0649H18.4282V45.9275C18.4282 44.8432 19.1292 43.8966 20.1551 43.5868L23.5748 42.5541C24.7375 47.5454 29.2172 51.1769 34.398 51.1769C37.0654 51.1769 39.6301 50.2131 41.6477 48.4748C43.443 46.9257 44.6912 44.8432 45.2213 42.5541L47.3072 43.1909C47.3927 43.2253 47.4953 43.2253 47.5808 43.2253C47.9912 43.2253 48.3673 42.95 48.487 42.5369C48.6409 42.0205 48.3502 41.487 47.8544 41.3321H47.8373Z" fill="white"/>
</g>
<path d="M29.5928 52.7273V60H28.4209L24.9941 55.0462H24.9337V60H23.6163V52.7273H24.7952L28.2185 57.6847H28.2824V52.7273H29.5928ZM32.5411 60.1101C32.1955 60.1101 31.8842 60.0485 31.6072 59.9254C31.3326 59.8 31.1148 59.6153 30.9538 59.3714C30.7952 59.1276 30.7159 58.8269 30.7159 58.4695C30.7159 58.1617 30.7727 57.9072 30.8863 57.706C31 57.5047 31.155 57.3438 31.3515 57.223C31.548 57.1023 31.7694 57.0111 32.0156 56.9496C32.2642 56.8857 32.521 56.8395 32.7862 56.8111C33.1058 56.7779 33.365 56.7483 33.5639 56.7223C33.7627 56.6939 33.9072 56.6513 33.9971 56.5945C34.0894 56.5353 34.1356 56.4441 34.1356 56.321V56.2997C34.1356 56.0322 34.0563 55.825 33.8977 55.6783C33.7391 55.5315 33.5106 55.4581 33.2123 55.4581C32.8974 55.4581 32.6477 55.5268 32.463 55.6641C32.2807 55.8014 32.1576 55.9635 32.0937 56.1506L30.8934 55.9801C30.9881 55.6487 31.1444 55.3717 31.3622 55.1491C31.58 54.9242 31.8463 54.7562 32.1612 54.6449C32.476 54.5312 32.8241 54.4744 33.2052 54.4744C33.468 54.4744 33.7296 54.5052 33.99 54.5668C34.2504 54.6283 34.4884 54.7301 34.7038 54.8722C34.9192 55.0118 35.092 55.2024 35.2223 55.4439C35.3548 55.6854 35.4211 55.9872 35.4211 56.3494V60H34.1853V59.2507H34.1427C34.0646 59.4022 33.9545 59.5443 33.8125 59.6768C33.6728 59.8071 33.4964 59.9124 33.2833 59.9929C33.0726 60.071 32.8252 60.1101 32.5411 60.1101ZM32.875 59.1655C33.133 59.1655 33.3567 59.1146 33.5461 59.0128C33.7355 58.9086 33.8811 58.7713 33.9829 58.6009C34.0871 58.4304 34.1392 58.2446 34.1392 58.0433V57.4006C34.0989 57.4337 34.0303 57.4645 33.9332 57.4929C33.8385 57.5213 33.732 57.5462 33.6136 57.5675C33.4952 57.5888 33.378 57.6077 33.262 57.6243C33.146 57.6409 33.0454 57.6551 32.9602 57.6669C32.7684 57.6929 32.5968 57.7356 32.4453 57.7947C32.2938 57.8539 32.1742 57.9368 32.0866 58.0433C31.999 58.1475 31.9552 58.2824 31.9552 58.4482C31.9552 58.6849 32.0416 58.8636 32.2144 58.9844C32.3873 59.1051 32.6074 59.1655 32.875 59.1655ZM36.7137 60V54.5455H37.9424V55.4723H38.0063C38.12 55.1598 38.3082 54.916 38.571 54.7408C38.8338 54.5632 39.1474 54.4744 39.512 54.4744C39.8813 54.4744 40.1927 54.5644 40.446 54.7443C40.7017 54.9219 40.8816 55.1645 40.9858 55.4723H41.0426C41.1633 55.1693 41.3669 54.9278 41.6534 54.7479C41.9422 54.5656 42.2843 54.4744 42.6796 54.4744C43.1815 54.4744 43.5911 54.633 43.9083 54.9503C44.2256 55.2675 44.3842 55.7304 44.3842 56.3388V60H43.0951V56.5376C43.0951 56.1991 43.0052 55.9517 42.8252 55.7955C42.6453 55.6368 42.4251 55.5575 42.1647 55.5575C41.8546 55.5575 41.6119 55.6546 41.4367 55.8487C41.2639 56.0405 41.1775 56.2902 41.1775 56.598V60H39.9169V56.4844C39.9169 56.2027 39.8316 55.9777 39.6612 55.8097C39.4931 55.6416 39.2729 55.5575 39.0007 55.5575C38.816 55.5575 38.6479 55.6049 38.4964 55.6996C38.3449 55.7919 38.2242 55.9233 38.1342 56.0938C38.0442 56.2618 37.9992 56.4583 37.9992 56.6832V60H36.7137Z" fill="white"/>
</svg>
