<svg width="68" height="68" viewBox="0 0 68 68" fill="none" xmlns="http://www.w3.org/2000/svg">
<circle cx="34" cy="34" r="34" fill="#EBEBEB"/>
<mask id="mask0_365_3" style="mask-type:luminance" maskUnits="userSpaceOnUse" x="16" y="10" width="36" height="36">
<path d="M16.5854 10.2108H51.7086V45.334H16.5854V10.2108Z" fill="white"/>
</mask>
<g mask="url(#mask0_365_3)">
<path d="M34.147 10.8973C27.8363 10.8973 22.5001 15.5686 21.6653 21.8239L20.8002 28.3059C19.6967 30.2548 20.0391 32.7017 21.6351 34.2729C22.5769 35.2001 23.8455 35.7197 25.1672 35.7197H30.5969" stroke="black" stroke-width="2" stroke-miterlimit="10" stroke-linecap="round" stroke-linejoin="round"/>
<path d="M34.147 10.8973C40.4577 10.8973 45.7939 15.5686 46.6287 21.8239L47.4938 28.3059C48.5973 30.2548 48.2548 32.7017 46.6589 34.2729C45.717 35.2001 44.4485 35.7197 43.1268 35.7197H37.84" stroke="black" stroke-width="2" stroke-miterlimit="10" stroke-linecap="round" stroke-linejoin="round"/>
<path d="M25.717 24.9711V28.0554C25.717 32.7111 29.4913 36.4854 34.1471 36.4854C38.8028 36.4854 42.577 32.7111 42.577 28.0554V24.1685" stroke="black" stroke-width="2" stroke-miterlimit="10" stroke-linecap="round" stroke-linejoin="round"/>
<path d="M35.9532 29.8931C36.4633 29.8931 36.8124 30.4085 36.6231 30.8821C36.2303 31.8645 35.2697 32.5586 34.1471 32.5586C33.0245 32.5586 32.0639 31.8645 31.6711 30.8821C31.4817 30.4085 31.8309 29.8931 32.341 29.8931H35.9532Z" fill="black"/>
<path d="M32.17 26.2188C31.3767 25.4254 30.0905 25.4254 29.2971 26.2188" stroke="black" stroke-width="2" stroke-miterlimit="10" stroke-linecap="round" stroke-linejoin="round"/>
<path d="M36.124 26.2188C36.9173 25.4254 38.2036 25.4254 38.9969 26.2188" stroke="black" stroke-width="2" stroke-miterlimit="10" stroke-linecap="round" stroke-linejoin="round"/>
<path d="M30.5076 21.0011C29.6004 23.1822 27.449 24.7158 24.9395 24.7158" stroke="black" stroke-width="2" stroke-miterlimit="10" stroke-linecap="round" stroke-linejoin="round"/>
<path d="M30.0273 18.3725C30.0273 20.6168 31.4937 22.5976 33.6402 23.253L39.4631 25.0308C41.3987 25.6217 43.3547 24.1737 43.3547 22.1499" stroke="black" stroke-width="2" stroke-miterlimit="10" stroke-linecap="round" stroke-linejoin="round"/>
<path d="M31.243 36.0278L30.9676 37.301C30.7911 38.1174 30.0689 38.7001 29.2337 38.7001H27.3458C23.1553 38.7001 19.2961 40.9784 17.2715 44.6475H51.0226C48.998 40.9784 45.1388 38.7001 40.9483 38.7001H39.0605C38.2252 38.7001 37.503 38.1174 37.3265 37.301L37.0512 36.0278" stroke="black" stroke-width="2" stroke-miterlimit="10" stroke-linecap="round" stroke-linejoin="round"/>
<path d="M39.6319 38.701C38.5479 40.6137 36.4938 41.9043 34.1383 41.9043C31.7828 41.9043 29.7288 40.6137 28.6448 38.701" stroke="black" stroke-width="2" stroke-miterlimit="10" stroke-linecap="round" stroke-linejoin="round"/>
</g>
<line x1="9.12207" y1="44.7744" x2="58.0489" y2="44.7744" stroke="black" stroke-width="1.67"/>
<path d="M17.898 60V52.7273H22.5571V53.8317H19.2155V55.8061H22.2375V56.9105H19.2155V60H17.898ZM25.7149 60.1065C25.1681 60.1065 24.6958 59.9929 24.298 59.7656C23.9027 59.536 23.5985 59.2116 23.3854 58.7926C23.1723 58.3712 23.0658 57.8752 23.0658 57.3047C23.0658 56.7436 23.1723 56.2512 23.3854 55.8274C23.6008 55.4013 23.9015 55.0698 24.2874 54.8331C24.6733 54.594 25.1266 54.4744 25.6475 54.4744C25.9836 54.4744 26.3009 54.5289 26.5992 54.6378C26.8998 54.7443 27.165 54.91 27.3946 55.1349C27.6266 55.3598 27.8089 55.6463 27.9415 55.9943C28.0741 56.34 28.1404 56.7519 28.1404 57.2301V57.6243H23.6695V56.7578H26.9081C26.9057 56.5116 26.8525 56.2926 26.7483 56.1009C26.6441 55.9067 26.4986 55.754 26.3115 55.6428C26.1269 55.5315 25.9114 55.4759 25.6652 55.4759C25.4024 55.4759 25.1716 55.5398 24.9727 55.6676C24.7739 55.7931 24.6188 55.9588 24.5075 56.1648C24.3986 56.3684 24.343 56.5921 24.3406 56.8359V57.5923C24.3406 57.9096 24.3986 58.1818 24.5146 58.4091C24.6307 58.634 24.7928 58.8068 25.0012 58.9276C25.2095 59.0459 25.4533 59.1051 25.7327 59.1051C25.9197 59.1051 26.089 59.0791 26.2405 59.027C26.392 58.9725 26.5234 58.8932 26.6347 58.7891C26.7459 58.6849 26.83 58.5559 26.8868 58.402L28.0871 58.5369C28.0113 58.8542 27.8669 59.1312 27.6539 59.3679C27.4432 59.6023 27.1733 59.7846 26.8442 59.9148C26.5151 60.0426 26.1387 60.1065 25.7149 60.1065ZM29.2279 60V54.5455H30.4566V55.4723H30.5205C30.6341 55.1598 30.8224 54.916 31.0851 54.7408C31.3479 54.5632 31.6616 54.4744 32.0262 54.4744C32.3955 54.4744 32.7068 54.5644 32.9601 54.7443C33.2158 54.9219 33.3957 55.1645 33.4999 55.4723H33.5567C33.6775 55.1693 33.8811 54.9278 34.1675 54.7479C34.4564 54.5656 34.7984 54.4744 35.1938 54.4744C35.6957 54.4744 36.1053 54.633 36.4225 54.9503C36.7397 55.2675 36.8983 55.7304 36.8983 56.3388V60H35.6093V56.5376C35.6093 56.1991 35.5193 55.9517 35.3394 55.7955C35.1595 55.6368 34.9393 55.5575 34.6789 55.5575C34.3688 55.5575 34.1261 55.6546 33.9509 55.8487C33.7781 56.0405 33.6917 56.2902 33.6917 56.598V60H32.431V56.4844C32.431 56.2027 32.3458 55.9777 32.1753 55.8097C32.0073 55.6416 31.7871 55.5575 31.5148 55.5575C31.3302 55.5575 31.1621 55.6049 31.0106 55.6996C30.859 55.7919 30.7383 55.9233 30.6483 56.0938C30.5584 56.2618 30.5134 56.4583 30.5134 56.6832V60H29.2279ZM39.7721 60.1101C39.4265 60.1101 39.1151 60.0485 38.8382 59.9254C38.5635 59.8 38.3457 59.6153 38.1847 59.3714C38.0261 59.1276 37.9468 58.8269 37.9468 58.4695C37.9468 58.1617 38.0036 57.9072 38.1173 57.706C38.2309 57.5047 38.386 57.3438 38.5825 57.223C38.779 57.1023 39.0003 57.0111 39.2465 56.9496C39.4951 56.8857 39.752 56.8395 40.0171 56.8111C40.3367 56.7779 40.596 56.7483 40.7948 56.7223C40.9937 56.6939 41.1381 56.6513 41.2281 56.5945C41.3204 56.5353 41.3666 56.4441 41.3666 56.321V56.2997C41.3666 56.0322 41.2873 55.825 41.1286 55.6783C40.97 55.5315 40.7416 55.4581 40.4433 55.4581C40.1284 55.4581 39.8786 55.5268 39.694 55.6641C39.5117 55.8014 39.3886 55.9635 39.3247 56.1506L38.1244 55.9801C38.2191 55.6487 38.3753 55.3717 38.5931 55.1491C38.8109 54.9242 39.0773 54.7562 39.3921 54.6449C39.707 54.5312 40.055 54.4744 40.4362 54.4744C40.699 54.4744 40.9606 54.5052 41.221 54.5668C41.4814 54.6283 41.7193 54.7301 41.9347 54.8722C42.1502 55.0118 42.323 55.2024 42.4532 55.4439C42.5858 55.6854 42.6521 55.9872 42.6521 56.3494V60H41.4163V59.2507H41.3737C41.2955 59.4022 41.1855 59.5443 41.0434 59.6768C40.9037 59.8071 40.7274 59.9124 40.5143 59.9929C40.3036 60.071 40.0562 60.1101 39.7721 60.1101ZM40.1059 59.1655C40.364 59.1655 40.5877 59.1146 40.7771 59.0128C40.9665 58.9086 41.1121 58.7713 41.2139 58.6009C41.318 58.4304 41.3701 58.2446 41.3701 58.0433V57.4006C41.3299 57.4337 41.2612 57.4645 41.1642 57.4929C41.0695 57.5213 40.9629 57.5462 40.8445 57.5675C40.7262 57.5888 40.609 57.6077 40.493 57.6243C40.377 57.6409 40.2764 57.6551 40.1911 57.6669C39.9994 57.6929 39.8277 57.7356 39.6762 57.7947C39.5247 57.8539 39.4052 57.9368 39.3176 58.0433C39.23 58.1475 39.1862 58.2824 39.1862 58.4482C39.1862 58.6849 39.2726 58.8636 39.4454 58.9844C39.6182 59.1051 39.8384 59.1655 40.1059 59.1655ZM45.2302 52.7273V60H43.9447V52.7273H45.2302ZM48.9669 60.1065C48.42 60.1065 47.9477 59.9929 47.55 59.7656C47.1546 59.536 46.8504 59.2116 46.6373 58.7926C46.4243 58.3712 46.3177 57.8752 46.3177 57.3047C46.3177 56.7436 46.4243 56.2512 46.6373 55.8274C46.8528 55.4013 47.1534 55.0698 47.5393 54.8331C47.9252 54.594 48.3786 54.4744 48.8994 54.4744C49.2356 54.4744 49.5528 54.5289 49.8511 54.6378C50.1518 54.7443 50.4169 54.91 50.6466 55.1349C50.8786 55.3598 51.0609 55.6463 51.1934 55.9943C51.326 56.34 51.3923 56.7519 51.3923 57.2301V57.6243H46.9214V56.7578H50.1601C50.1577 56.5116 50.1044 56.2926 50.0003 56.1009C49.8961 55.9067 49.7505 55.754 49.5635 55.6428C49.3788 55.5315 49.1634 55.4759 48.9172 55.4759C48.6544 55.4759 48.4236 55.5398 48.2247 55.6676C48.0258 55.7931 47.8708 55.9588 47.7595 56.1648C47.6506 56.3684 47.595 56.5921 47.5926 56.8359V57.5923C47.5926 57.9096 47.6506 58.1818 47.7666 58.4091C47.8826 58.634 48.0448 58.8068 48.2531 58.9276C48.4614 59.0459 48.7053 59.1051 48.9846 59.1051C49.1717 59.1051 49.3409 59.0791 49.4925 59.027C49.644 58.9725 49.7754 58.8932 49.8866 58.7891C49.9979 58.6849 50.0819 58.5559 50.1388 58.402L51.339 58.5369C51.2633 58.8542 51.1189 59.1312 50.9058 59.3679C50.6951 59.6023 50.4252 59.7846 50.0961 59.9148C49.7671 60.0426 49.3907 60.1065 48.9669 60.1065Z" fill="black"/>
</svg>
