<svg width="68" height="68" viewBox="0 0 68 68" fill="none" xmlns="http://www.w3.org/2000/svg">
<circle cx="34" cy="34" r="34" fill="#020000"/>
<line x1="9" y1="45.165" x2="58" y2="45.165" stroke="white" stroke-width="1.67"/>
<mask id="mask0_365_8" style="mask-type:luminance" maskUnits="userSpaceOnUse" x="14" y="6" width="40" height="39">
<path d="M53.9755 6.63379H14.1707V44.9632H53.9755V6.63379Z" fill="white"/>
</mask>
<g mask="url(#mask0_365_8)">
<path d="M29.696 37.6142C31.1151 38.2854 32.7053 38.6641 34.3809 38.6641C36.0565 38.6641 37.6467 38.2854 39.0658 37.6142V39.8689H42.9642L40.9808 39.2665V36.4783C43.5114 34.585 45.2212 31.6591 45.4606 28.3029C46.7772 27.9071 47.7518 26.6679 47.7518 25.2049C47.7518 24.2583 47.3243 23.3633 46.6233 22.7609V16.1174C46.6233 14.293 45.7 12.5891 44.2124 11.5736C43.7166 9.68037 42.0238 8.33789 40.0233 8.33789H30.9954C26.1053 8.33789 22.1385 12.3309 22.1385 17.2533V22.7609C21.4375 23.3633 21.01 24.2583 21.01 25.2049C21.01 26.6679 21.9846 27.9071 23.3012 28.3029C23.5406 31.6419 25.2504 34.585 27.7809 36.4783V39.2665L25.7975 39.8689H29.696V37.6142ZM25.1649 27.4596C25.1649 26.926 24.7374 26.4957 24.2074 26.4957C23.4893 26.4957 22.9079 25.9106 22.9079 25.1877C22.9079 24.723 23.1473 24.2927 23.5577 24.0517C23.5748 24.0517 23.5919 24.0173 23.6261 24.0173C23.8141 23.9313 24.0022 23.8796 24.2074 23.8796H25.6437C26.5499 23.8796 27.3364 23.2944 27.6271 22.4511L28.2768 20.4718C30.5167 20.4202 37.5954 20.1104 41.5622 18.1139C42.0409 17.8729 42.229 17.3049 41.9896 16.823C41.7503 16.3411 41.186 16.1518 40.7073 16.3927C36.4498 18.5442 27.6613 18.5614 27.5758 18.5614C27.1654 18.5614 26.8063 18.8195 26.6696 19.2154L25.7975 21.8487C25.7975 21.8487 25.712 21.9692 25.6266 21.9692H24.1903C24.1903 21.9692 24.0706 21.9692 24.0193 21.9692V17.2361C24.0193 13.3808 27.1312 10.2311 30.9783 10.2311H40.0062C41.2031 10.2311 42.2119 11.0917 42.4 12.2965C42.4513 12.5891 42.6223 12.8472 42.8788 12.9849C44.0072 13.6217 44.7083 14.8093 44.7083 16.1002V23.2428C44.7083 23.587 44.8964 23.8968 45.187 24.069C45.5974 24.3099 45.8368 24.723 45.8368 25.2049C45.8368 25.9278 45.2554 26.513 44.5373 26.513C44.0072 26.513 43.5798 26.9432 43.5798 27.4768C43.5798 32.5885 39.442 36.7536 34.3638 36.7536C29.2856 36.7536 25.1478 32.5885 25.1478 27.4768L25.1649 27.4596Z" fill="white"/>
<path d="M34.3809 32.9671C35.5264 32.9671 36.6207 32.4164 37.3731 31.4697C37.6979 31.0567 37.6466 30.4543 37.2363 30.11C36.8259 29.783 36.2275 29.8347 35.8855 30.2477C35.4751 30.7469 34.9451 31.0222 34.3638 31.0222C33.7824 31.0222 33.2524 30.7469 32.842 30.2477C32.5171 29.8347 31.9016 29.7658 31.4912 30.11C31.0809 30.4371 31.0125 31.0567 31.3545 31.4697C32.1239 32.4164 33.2182 32.9671 34.3467 32.9671H34.3809Z" fill="white"/>
<path d="M29.8669 27.2872C30.397 27.2872 30.8244 26.8569 30.8244 26.3234V25.1875C30.8244 24.6539 30.397 24.2236 29.8669 24.2236C29.3369 24.2236 28.9094 24.6539 28.9094 25.1875V26.3234C28.9094 26.8569 29.3369 27.2872 29.8669 27.2872Z" fill="white"/>
<path d="M38.8948 27.2872C39.4248 27.2872 39.8523 26.8569 39.8523 26.3234V25.1875C39.8523 24.6539 39.4248 24.2236 38.8948 24.2236C38.3647 24.2236 37.9373 24.6539 37.9373 25.1875V26.3234C37.9373 26.8569 38.3647 27.2872 38.8948 27.2872Z" fill="white"/>
<path d="M20.3774 42.5192C20.4971 42.9322 20.8733 43.2076 21.2836 43.2076C21.3691 43.2076 21.4717 43.2076 21.5572 43.1732L23.6432 42.5364C24.1732 44.8255 25.4214 46.908 27.2167 48.4571C29.2343 50.1954 31.7991 51.1592 34.4664 51.1592C39.6472 51.1592 44.127 47.5104 45.2897 42.5364L48.7093 43.5691C49.7523 43.8789 50.4363 44.8255 50.4363 45.9098V56.0472H50.2653H45.5803V51.5551L47.7347 47.2178C47.9741 46.7359 47.786 46.168 47.3073 45.927C46.8285 45.686 46.2643 45.8754 46.0249 46.3573L43.7679 50.901C43.6995 51.0387 43.6653 51.1764 43.6653 51.3313V69.5236C43.6653 70.0571 44.0928 70.4874 44.6228 70.4874C45.1529 70.4874 45.5803 70.0571 45.5803 69.5236V57.9749H49.3249V69.5236C49.3249 70.0571 49.7523 70.4874 50.2824 70.4874C50.8124 70.4874 51.2399 70.0571 51.2399 69.5236V57.9749H51.4109C51.9409 57.9749 52.3684 57.5446 52.3684 57.011V45.9098C52.3684 43.9649 51.1202 42.2782 49.2736 41.7275L43.0669 39.8514H39.1685V39.9719C39.1685 42.5708 37.0654 44.6878 34.4835 44.6878C31.9017 44.6878 29.7131 42.5192 29.7131 39.9203V39.7998L25.9002 39.8514L21.0443 41.3144C20.5313 41.4693 20.2577 42.0028 20.4116 42.5192H20.3774Z" fill="white"/>
<path d="M47.8373 41.3321L42.9814 39.8691H39.083V39.9896C39.083 42.5885 36.9799 44.7055 34.398 44.7055C31.8162 44.7055 29.7131 42.5885 29.7131 39.9896V39.8691H25.8147L19.608 41.7452C17.7614 42.2959 16.5132 43.9826 16.5132 45.9275V57.0287C16.5132 57.5623 16.9406 57.9926 17.4707 57.9926H17.6417V69.5413C17.6417 70.0748 18.0691 70.5051 18.5992 70.5051C19.1292 70.5051 19.5567 70.0748 19.5567 69.5413V57.9926H23.3012V69.5413C23.3012 70.0748 23.7287 70.5051 24.2587 70.5051C24.7888 70.5051 25.2162 70.0748 25.2162 69.5413V51.349C25.2162 51.1941 25.182 51.0564 25.1136 50.9188L22.8567 46.375C22.6173 45.8931 22.053 45.7037 21.5743 45.9447C21.0955 46.1857 20.9075 46.7536 21.1468 47.2355L23.3012 51.5728V56.0649H18.4282V45.9275C18.4282 44.8432 19.1292 43.8966 20.1551 43.5868L23.5748 42.5541C24.7375 47.5454 29.2172 51.1769 34.398 51.1769C37.0654 51.1769 39.6301 50.2131 41.6477 48.4748C43.443 46.9257 44.6912 44.8432 45.2213 42.5541L47.3072 43.1909C47.3927 43.2253 47.4953 43.2253 47.5808 43.2253C47.9912 43.2253 48.3673 42.95 48.487 42.5369C48.6409 42.0205 48.3502 41.487 47.8544 41.3321H47.8373Z" fill="white"/>
</g>
<path d="M23.0108 52.7273H24.623L26.7821 57.9972H26.8673L29.0264 52.7273H30.6386V60H29.3744V55.0036H29.307L27.297 59.9787H26.3524L24.3425 54.9929H24.275V60H23.0108V52.7273ZM33.5861 60.1101C33.2404 60.1101 32.9291 60.0485 32.6521 59.9254C32.3775 59.8 32.1597 59.6153 31.9987 59.3714C31.8401 59.1276 31.7608 58.8269 31.7608 58.4695C31.7608 58.1617 31.8176 57.9072 31.9312 57.706C32.0449 57.5047 32.1999 57.3438 32.3964 57.223C32.5929 57.1023 32.8143 57.0111 33.0605 56.9496C33.3091 56.8857 33.5659 56.8395 33.8311 56.8111C34.1507 56.7779 34.4099 56.7483 34.6088 56.7223C34.8077 56.6939 34.9521 56.6513 35.042 56.5945C35.1344 56.5353 35.1805 56.4441 35.1805 56.321V56.2997C35.1805 56.0322 35.1012 55.825 34.9426 55.6783C34.784 55.5315 34.5555 55.4581 34.2572 55.4581C33.9424 55.4581 33.6926 55.5268 33.5079 55.6641C33.3257 55.8014 33.2025 55.9635 33.1386 56.1506L31.9383 55.9801C32.033 55.6487 32.1893 55.3717 32.4071 55.1491C32.6249 54.9242 32.8912 54.7562 33.2061 54.6449C33.521 54.5312 33.869 54.4744 34.2501 54.4744C34.5129 54.4744 34.7745 54.5052 35.0349 54.5668C35.2954 54.6283 35.5333 54.7301 35.7487 54.8722C35.9641 55.0118 36.137 55.2024 36.2672 55.4439C36.3998 55.6854 36.466 55.9872 36.466 56.3494V60H35.2302V59.2507H35.1876C35.1095 59.4022 34.9994 59.5443 34.8574 59.6768C34.7177 59.8071 34.5413 59.9124 34.3283 59.9929C34.1176 60.071 33.8702 60.1101 33.5861 60.1101ZM33.9199 59.1655C34.1779 59.1655 34.4016 59.1146 34.591 59.0128C34.7804 58.9086 34.926 58.7713 35.0278 58.6009C35.132 58.4304 35.1841 58.2446 35.1841 58.0433V57.4006C35.1438 57.4337 35.0752 57.4645 34.9781 57.4929C34.8834 57.5213 34.7769 57.5462 34.6585 57.5675C34.5401 57.5888 34.423 57.6077 34.307 57.6243C34.1909 57.6409 34.0903 57.6551 34.0051 57.6669C33.8133 57.6929 33.6417 57.7356 33.4902 57.7947C33.3387 57.8539 33.2191 57.9368 33.1315 58.0433C33.0439 58.1475 33.0001 58.2824 33.0001 58.4482C33.0001 58.6849 33.0865 58.8636 33.2594 58.9844C33.4322 59.1051 33.6524 59.1655 33.9199 59.1655ZM39.0442 52.7273V60H37.7587V52.7273H39.0442ZM42.7809 60.1065C42.234 60.1065 41.7617 59.9929 41.3639 59.7656C40.9686 59.536 40.6644 59.2116 40.4513 58.7926C40.2382 58.3712 40.1317 57.8752 40.1317 57.3047C40.1317 56.7436 40.2382 56.2512 40.4513 55.8274C40.6667 55.4013 40.9674 55.0698 41.3533 54.8331C41.7392 54.594 42.1925 54.4744 42.7134 54.4744C43.0496 54.4744 43.3668 54.5289 43.6651 54.6378C43.9657 54.7443 44.2309 54.91 44.4605 55.1349C44.6925 55.3598 44.8748 55.6463 45.0074 55.9943C45.14 56.34 45.2063 56.7519 45.2063 57.2301V57.6243H40.7354V56.7578H43.974C43.9717 56.5116 43.9184 56.2926 43.8142 56.1009C43.7101 55.9067 43.5645 55.754 43.3774 55.6428C43.1928 55.5315 42.9773 55.4759 42.7311 55.4759C42.4684 55.4759 42.2375 55.5398 42.0387 55.6676C41.8398 55.7931 41.6847 55.9588 41.5735 56.1648C41.4646 56.3684 41.4089 56.5921 41.4066 56.8359V57.5923C41.4066 57.9096 41.4646 58.1818 41.5806 58.4091C41.6966 58.634 41.8587 58.8068 42.0671 58.9276C42.2754 59.0459 42.5193 59.1051 42.7986 59.1051C42.9856 59.1051 43.1549 59.0791 43.3064 59.027C43.4579 58.9725 43.5893 58.8932 43.7006 58.7891C43.8119 58.6849 43.8959 58.5559 43.9527 58.402L45.153 58.5369C45.0773 58.8542 44.9328 59.1312 44.7198 59.3679C44.5091 59.6023 44.2392 59.7846 43.9101 59.9148C43.581 60.0426 43.2046 60.1065 42.7809 60.1065Z" fill="white"/>
</svg>
