<svg width="82" height="82" viewBox="0 0 82 82" fill="none" xmlns="http://www.w3.org/2000/svg">
<circle cx="41" cy="41" r="40.5" fill="#EBEBEB" stroke="black"/>
<mask id="mask0_72_3531" style="mask-type:luminance" maskUnits="userSpaceOnUse" x="20" y="12" width="43" height="43">
<path d="M20 12.3121H62.3544V54.6665H20V12.3121Z" fill="white"/>
</mask>
<g mask="url(#mask0_72_3531)">
<path d="M41.1773 13.1393C33.5672 13.1393 27.1325 18.7723 26.1257 26.3156L25.0825 34.1321C23.7519 36.4822 24.1648 39.4329 26.0893 41.3275C27.2251 42.4456 28.7549 43.0723 30.3486 43.0723H36.8962" stroke="black" stroke-width="2" stroke-miterlimit="10" stroke-linecap="round" stroke-linejoin="round"/>
<path d="M41.1772 13.1393C48.7872 13.1393 55.222 18.7723 56.2287 26.3156L57.2719 34.1321C58.6026 36.4822 58.1896 39.4329 56.2652 41.3275C55.1294 42.4456 53.5997 43.0723 52.0059 43.0723H45.6306" stroke="black" stroke-width="2" stroke-miterlimit="10" stroke-linecap="round" stroke-linejoin="round"/>
<path d="M31.0116 30.1122V33.8315C31.0116 39.4458 35.563 43.9971 41.1772 43.9971C46.7915 43.9971 51.3428 39.4458 51.3428 33.8315V29.1444" stroke="black" stroke-width="2" stroke-miterlimit="10" stroke-linecap="round" stroke-linejoin="round"/>
<path d="M43.3552 36.0465C43.9703 36.0465 44.3913 36.6679 44.163 37.2391C43.6893 38.4237 42.531 39.2607 41.1773 39.2607C39.8235 39.2607 38.6652 38.4237 38.1915 37.2391C37.9631 36.6679 38.3842 36.0465 38.9993 36.0465H43.3552Z" fill="black"/>
<path d="M38.7933 31.6162C37.8367 30.6595 36.2856 30.6595 35.3289 31.6162" stroke="black" stroke-width="2" stroke-miterlimit="10" stroke-linecap="round" stroke-linejoin="round"/>
<path d="M43.5612 31.6162C44.5178 30.6595 46.0689 30.6595 47.0256 31.6162" stroke="black" stroke-width="2" stroke-miterlimit="10" stroke-linecap="round" stroke-linejoin="round"/>
<path d="M36.7884 25.3242C35.6944 27.9543 33.1002 29.8037 30.0739 29.8037" stroke="black" stroke-width="2" stroke-miterlimit="10" stroke-linecap="round" stroke-linejoin="round"/>
<path d="M36.2094 22.1544C36.2094 24.8607 37.9776 27.2494 40.566 28.0397L47.5877 30.1835C49.9219 30.8961 52.2806 29.15 52.2806 26.7095" stroke="black" stroke-width="2" stroke-miterlimit="10" stroke-linecap="round" stroke-linejoin="round"/>
<path d="M37.6752 43.4451L37.3432 44.9804C37.1303 45.9649 36.2595 46.6676 35.2523 46.6676H32.9757C27.9225 46.6676 23.2687 49.4149 20.8273 53.8394H61.5272C59.0858 49.4149 54.432 46.6676 49.3788 46.6676H47.1022C46.095 46.6676 45.2242 45.9649 45.0113 44.9804L44.6793 43.4451" stroke="black" stroke-width="2" stroke-miterlimit="10" stroke-linecap="round" stroke-linejoin="round"/>
<path d="M47.7913 46.6674C46.4841 48.9739 44.0072 50.5303 41.1667 50.5303C38.3263 50.5303 35.8494 48.9739 34.5422 46.6674" stroke="black" stroke-width="2" stroke-miterlimit="10" stroke-linecap="round" stroke-linejoin="round"/>
</g>
<line x1="11" y1="54.165" x2="70" y2="54.165" stroke="black" stroke-width="1.67"/>
<path d="M35.8508 62.51H38.3708V63.58H35.8508V62.51ZM35.8508 65.39H38.3708V66.46H35.8508V65.39ZM34.2408 61.26C34.7008 61.26 35.1108 61.3967 35.4708 61.67C35.8374 61.9367 36.1208 62.32 36.3208 62.82C36.5274 63.3133 36.6308 63.8967 36.6308 64.57C36.6308 65.25 36.5274 65.84 36.3208 66.34C36.1208 66.8333 35.8374 67.2167 35.4708 67.49C35.1108 67.7567 34.7008 67.89 34.2408 67.89C33.7808 67.89 33.3708 67.7567 33.0108 67.49C32.6508 67.2167 32.3674 66.8333 32.1608 66.34C31.9541 65.84 31.8508 65.25 31.8508 64.57C31.8508 63.8967 31.9541 63.3133 32.1608 62.82C32.3674 62.32 32.6508 61.9367 33.0108 61.67C33.3708 61.3967 33.7808 61.26 34.2408 61.26ZM34.2408 62.47C34.0208 62.47 33.8241 62.55 33.6508 62.71C33.4841 62.87 33.3508 63.1067 33.2508 63.42C33.1574 63.7267 33.1108 64.11 33.1108 64.57C33.1108 65.0233 33.1574 65.41 33.2508 65.73C33.3508 66.0433 33.4841 66.28 33.6508 66.44C33.8241 66.6 34.0208 66.68 34.2408 66.68C34.4741 66.68 34.6741 66.6 34.8408 66.44C35.0074 66.28 35.1374 66.0433 35.2308 65.73C35.3241 65.41 35.3708 65.0233 35.3708 64.57C35.3708 64.11 35.3241 63.7267 35.2308 63.42C35.1374 63.1067 35.0074 62.87 34.8408 62.71C34.6741 62.55 34.4741 62.47 34.2408 62.47ZM38.1508 60.61H39.4808V69.9H38.1508V60.61ZM43.06 61.11H44.16V61.93C44.16 62.55 44.0633 63.1333 43.87 63.68C43.6833 64.2267 43.3967 64.7033 43.01 65.11C42.6233 65.5167 42.1267 65.8233 41.52 66.03L40.82 64.96C41.3533 64.7933 41.7833 64.5533 42.11 64.24C42.4367 63.9267 42.6767 63.57 42.83 63.17C42.9833 62.77 43.06 62.3567 43.06 61.93V61.11ZM43.33 61.11H44.41V61.87C44.41 62.2767 44.48 62.67 44.62 63.05C44.76 63.4233 44.9833 63.7567 45.29 64.05C45.5967 64.3367 45.9933 64.56 46.48 64.72L45.79 65.76C45.2233 65.56 44.7567 65.27 44.39 64.89C44.03 64.51 43.7633 64.0633 43.59 63.55C43.4167 63.03 43.33 62.47 43.33 61.87V61.11ZM47.32 60.63H48.66V66.05H47.32V60.63ZM45.52 66.29C46.5 66.29 47.2733 66.45 47.84 66.77C48.4067 67.0833 48.69 67.52 48.69 68.08C48.69 68.6533 48.4067 69.0967 47.84 69.41C47.2733 69.73 46.5 69.89 45.52 69.89C44.54 69.89 43.7667 69.73 43.2 69.41C42.6333 69.0967 42.35 68.6533 42.35 68.08C42.35 67.52 42.6333 67.0833 43.2 66.77C43.7667 66.45 44.54 66.29 45.52 66.29ZM45.52 67.32C45.12 67.32 44.7833 67.3467 44.51 67.4C44.2367 67.4533 44.0267 67.54 43.88 67.66C43.74 67.7733 43.67 67.9133 43.67 68.08C43.67 68.2533 43.74 68.4 43.88 68.52C44.0267 68.6333 44.2367 68.72 44.51 68.78C44.7833 68.8333 45.12 68.86 45.52 68.86C45.92 68.86 46.2567 68.8333 46.53 68.78C46.8033 68.72 47.01 68.6333 47.15 68.52C47.29 68.4 47.36 68.2533 47.36 68.08C47.36 67.9133 47.29 67.7733 47.15 67.66C47.01 67.54 46.8033 67.4533 46.53 67.4C46.2567 67.3467 45.92 67.32 45.52 67.32ZM45.63 62.31H47.52V63.39H45.63V62.31Z" fill="black"/>
</svg>
