<svg width="68" height="68" viewBox="0 0 68 68" fill="none" xmlns="http://www.w3.org/2000/svg">
<circle cx="34" cy="34" r="34" fill="#EBEBEB"/>
<mask id="mask0_390_38" style="mask-type:luminance" maskUnits="userSpaceOnUse" x="16" y="10" width="36" height="36">
<path d="M16.5854 10.2108H51.7086V45.334H16.5854V10.2108Z" fill="white"/>
</mask>
<g mask="url(#mask0_390_38)">
<path d="M34.1473 10.8973C27.8365 10.8973 22.5004 15.5686 21.6655 21.8239L20.8004 28.3059C19.697 30.2548 20.0394 32.7017 21.6353 34.2729C22.5772 35.2001 23.8458 35.7197 25.1674 35.7197H30.5972" stroke="black" stroke-width="2" stroke-miterlimit="10" stroke-linecap="round" stroke-linejoin="round"/>
<path d="M34.147 10.8973C40.4577 10.8973 45.7939 15.5686 46.6287 21.8239L47.4938 28.3059C48.5973 30.2548 48.2548 32.7017 46.6589 34.2729C45.717 35.2001 44.4485 35.7197 43.1268 35.7197H37.84" stroke="black" stroke-width="2" stroke-miterlimit="10" stroke-linecap="round" stroke-linejoin="round"/>
<path d="M25.7168 24.9711V28.0554C25.7168 32.7111 29.4911 36.4854 34.1468 36.4854C38.8026 36.4854 42.5768 32.7111 42.5768 28.0554V24.1685" stroke="black" stroke-width="2" stroke-miterlimit="10" stroke-linecap="round" stroke-linejoin="round"/>
<path d="M35.953 29.8931C36.4631 29.8931 36.8122 30.4085 36.6228 30.8821C36.23 31.8645 35.2695 32.5586 34.1469 32.5586C33.0242 32.5586 32.0637 31.8645 31.6709 30.8821C31.4815 30.4085 31.8306 29.8931 32.3408 29.8931H35.953Z" fill="black"/>
<path d="M32.1703 26.2188C31.377 25.4254 30.0907 25.4254 29.2974 26.2188" stroke="black" stroke-width="2" stroke-miterlimit="10" stroke-linecap="round" stroke-linejoin="round"/>
<path d="M36.124 26.2188C36.9173 25.4254 38.2036 25.4254 38.9969 26.2188" stroke="black" stroke-width="2" stroke-miterlimit="10" stroke-linecap="round" stroke-linejoin="round"/>
<path d="M30.5076 21.0011C29.6004 23.1822 27.449 24.7158 24.9395 24.7158" stroke="black" stroke-width="2" stroke-miterlimit="10" stroke-linecap="round" stroke-linejoin="round"/>
<path d="M30.0273 18.3725C30.0273 20.6168 31.4937 22.5976 33.6402 23.253L39.4631 25.0308C41.3987 25.6217 43.3547 24.1737 43.3547 22.1499" stroke="black" stroke-width="2" stroke-miterlimit="10" stroke-linecap="round" stroke-linejoin="round"/>
<path d="M31.243 36.0278L30.9676 37.301C30.7911 38.1174 30.0689 38.7001 29.2337 38.7001H27.3458C23.1553 38.7001 19.2961 40.9784 17.2715 44.6475H51.0226C48.998 40.9784 45.1388 38.7001 40.9483 38.7001H39.0605C38.2252 38.7001 37.503 38.1174 37.3265 37.301L37.0512 36.0278" stroke="black" stroke-width="2" stroke-miterlimit="10" stroke-linecap="round" stroke-linejoin="round"/>
<path d="M39.6316 38.701C38.5476 40.6137 36.4936 41.9043 34.1381 41.9043C31.7826 41.9043 29.7285 40.6137 28.6445 38.701" stroke="black" stroke-width="2" stroke-miterlimit="10" stroke-linecap="round" stroke-linejoin="round"/>
</g>
<line x1="9.12207" y1="44.7744" x2="58.0489" y2="44.7744" stroke="black" stroke-width="1.67"/>
<path d="M19.64 52.93C19.7333 53.07 19.8367 53.2367 19.95 53.43C20.07 53.6167 20.1867 53.81 20.3 54.01C20.4133 54.2033 20.5067 54.38 20.58 54.54L19.69 54.93C19.59 54.7167 19.49 54.52 19.39 54.34C19.2967 54.1533 19.2 53.9767 19.1 53.81C19.0067 53.6367 18.8967 53.4667 18.77 53.3L19.64 52.93ZM20.98 52.38C21.08 52.5133 21.19 52.6767 21.31 52.87C21.43 53.0567 21.5467 53.2467 21.66 53.44C21.78 53.6267 21.8767 53.7967 21.95 53.95L21.08 54.37C20.98 54.1567 20.8767 53.9633 20.77 53.79C20.67 53.61 20.5667 53.4367 20.46 53.27C20.36 53.1033 20.2467 52.94 20.12 52.78L20.98 52.38ZM17.06 52.13C17.0267 52.3433 17 52.57 16.98 52.81C16.96 53.0433 16.9433 53.26 16.93 53.46C16.9167 53.7267 16.9033 54.0567 16.89 54.45C16.8767 54.8367 16.8633 55.2467 16.85 55.68C16.8367 56.1067 16.8233 56.5267 16.81 56.94C16.8033 57.3467 16.8 57.7067 16.8 58.02C16.8 58.3533 16.86 58.62 16.98 58.82C17.1067 59.0133 17.2733 59.1533 17.48 59.24C17.6933 59.32 17.93 59.36 18.19 59.36C18.5967 59.36 18.97 59.3067 19.31 59.2C19.6567 59.0867 19.9667 58.9367 20.24 58.75C20.52 58.5567 20.7733 58.3367 21 58.09C21.2267 57.8433 21.43 57.5833 21.61 57.31L22.52 58.42C22.3533 58.66 22.14 58.9133 21.88 59.18C21.62 59.4467 21.31 59.6967 20.95 59.93C20.5967 60.1633 20.1867 60.35 19.72 60.49C19.2533 60.6367 18.7367 60.71 18.17 60.71C17.63 60.71 17.1567 60.6267 16.75 60.46C16.3433 60.2933 16.03 60.0333 15.81 59.68C15.59 59.32 15.48 58.8567 15.48 58.29C15.48 58.0167 15.4833 57.7067 15.49 57.36C15.4967 57.0067 15.5033 56.64 15.51 56.26C15.5233 55.88 15.5333 55.51 15.54 55.15C15.5467 54.7833 15.5533 54.4533 15.56 54.16C15.5667 53.86 15.57 53.6267 15.57 53.46C15.57 53.22 15.56 52.9867 15.54 52.76C15.52 52.5267 15.49 52.31 15.45 52.11L17.06 52.13ZM29.18 53.66C29.1667 53.7533 29.15 53.8967 29.13 54.09C29.11 54.2767 29.1 54.4567 29.1 54.63C29.1 54.7433 29.1 54.89 29.1 55.07C29.1 55.25 29.1 55.44 29.1 55.64C29.1 55.8333 29.1 56.0067 29.1 56.16C29.1 56.3667 29.1067 56.62 29.12 56.92C29.14 57.2133 29.1567 57.52 29.17 57.84C29.19 58.1533 29.2067 58.45 29.22 58.73C29.24 59.0033 29.25 59.22 29.25 59.38C29.25 59.6267 29.1967 59.8567 29.09 60.07C28.9833 60.2833 28.8033 60.4567 28.55 60.59C28.2967 60.7233 27.9467 60.79 27.5 60.79C27.1 60.79 26.73 60.7333 26.39 60.62C26.0567 60.5067 25.79 60.3333 25.59 60.1C25.3967 59.8667 25.3 59.5767 25.3 59.23C25.3 58.75 25.4967 58.3667 25.89 58.08C26.2833 57.7867 26.8433 57.64 27.57 57.64C28.01 57.64 28.43 57.6967 28.83 57.81C29.23 57.9167 29.6033 58.0567 29.95 58.23C30.2967 58.3967 30.61 58.58 30.89 58.78C31.17 58.98 31.41 59.17 31.61 59.35L30.92 60.44C30.7267 60.24 30.5033 60.0333 30.25 59.82C29.9967 59.6067 29.72 59.4133 29.42 59.24C29.1267 59.06 28.81 58.9133 28.47 58.8C28.1367 58.6867 27.7867 58.63 27.42 58.63C27.1 58.63 26.8533 58.68 26.68 58.78C26.5133 58.8733 26.43 59.0033 26.43 59.17C26.43 59.3167 26.5133 59.44 26.68 59.54C26.8467 59.6333 27.07 59.68 27.35 59.68C27.5767 59.68 27.7433 59.6233 27.85 59.51C27.9633 59.39 28.02 59.2133 28.02 58.98C28.02 58.8 28.0133 58.5867 28 58.34C27.9933 58.0933 27.98 57.8367 27.96 57.57C27.9467 57.2967 27.9333 57.03 27.92 56.77C27.9133 56.51 27.91 56.2733 27.91 56.06C27.91 55.9333 27.91 55.7833 27.91 55.61C27.91 55.43 27.91 55.2533 27.91 55.08C27.91 54.9067 27.91 54.7633 27.91 54.65C27.91 54.4567 27.9 54.2667 27.88 54.08C27.8667 53.8933 27.85 53.7533 27.83 53.66H29.18ZM28.56 55.11C28.6733 55.11 28.8433 55.1067 29.07 55.1C29.2967 55.0933 29.5467 55.0867 29.82 55.08C30.1 55.0667 30.38 55.05 30.66 55.03C30.94 55.01 31.19 54.9867 31.41 54.96L31.44 56.07C31.22 56.09 30.97 56.11 30.69 56.13C30.41 56.1433 30.13 56.1567 29.85 56.17C29.57 56.1767 29.3167 56.1833 29.09 56.19C28.8633 56.19 28.69 56.19 28.57 56.19L28.56 55.11ZM41.15 52.15C41.1433 52.2033 41.1367 52.2833 41.13 52.39C41.1233 52.49 41.1167 52.5967 41.11 52.71C41.1033 52.8233 41.0967 52.9267 41.09 53.02C41.09 53.24 41.0867 53.4533 41.08 53.66C41.08 53.8667 41.0767 54.0633 41.07 54.25C41.07 54.43 41.0667 54.6067 41.06 54.78C41.0533 55.0733 41.0433 55.38 41.03 55.7C41.0167 56.02 41 56.3167 40.98 56.59C40.96 56.8633 40.9333 57.0867 40.9 57.26C40.8467 57.52 40.7533 57.6967 40.62 57.79C40.4867 57.8767 40.29 57.92 40.03 57.92C39.9167 57.92 39.76 57.9133 39.56 57.9C39.3667 57.88 39.1733 57.8567 38.98 57.83C38.7933 57.8033 38.64 57.7833 38.52 57.77L38.55 56.66C38.7033 56.6933 38.87 56.7233 39.05 56.75C39.2367 56.7767 39.3767 56.79 39.47 56.79C39.57 56.79 39.6433 56.7767 39.69 56.75C39.7433 56.7167 39.7733 56.6533 39.78 56.56C39.8 56.4333 39.8133 56.2733 39.82 56.08C39.8333 55.8867 39.8433 55.6767 39.85 55.45C39.8633 55.2167 39.8733 54.99 39.88 54.77C39.88 54.59 39.88 54.41 39.88 54.23C39.88 54.0433 39.88 53.8533 39.88 53.66C39.88 53.46 39.88 53.2633 39.88 53.07C39.88 52.9833 39.8733 52.8833 39.86 52.77C39.8533 52.65 39.8467 52.5333 39.84 52.42C39.8333 52.3067 39.8233 52.2167 39.81 52.15H41.15ZM37.22 52.45C37.1933 52.6167 37.1767 52.78 37.17 52.94C37.1633 53.0933 37.16 53.2767 37.16 53.49C37.16 53.67 37.1567 53.91 37.15 54.21C37.15 54.51 37.1467 54.8367 37.14 55.19C37.14 55.5367 37.1367 55.8867 37.13 56.24C37.13 56.5867 37.13 56.9033 37.13 57.19C37.13 57.4767 37.1333 57.7033 37.14 57.87C37.1467 58.1167 37.1633 58.32 37.19 58.48C37.2233 58.6333 37.29 58.7533 37.39 58.84C37.49 58.9267 37.6467 58.9867 37.86 59.02C38.08 59.0533 38.3767 59.07 38.75 59.07C39.0767 59.07 39.4233 59.06 39.79 59.04C40.1567 59.0133 40.51 58.98 40.85 58.94C41.19 58.9 41.4867 58.86 41.74 58.82L41.69 60.18C41.47 60.2067 41.1967 60.23 40.87 60.25C40.5433 60.2767 40.2033 60.2967 39.85 60.31C39.4967 60.33 39.16 60.34 38.84 60.34C38.1933 60.34 37.6767 60.3033 37.29 60.23C36.9033 60.1567 36.61 60.0333 36.41 59.86C36.21 59.6867 36.0767 59.4533 36.01 59.16C35.9433 58.8667 35.9033 58.5033 35.89 58.07C35.89 57.9233 35.8867 57.7267 35.88 57.48C35.88 57.2333 35.88 56.96 35.88 56.66C35.88 56.3533 35.88 56.04 35.88 55.72C35.88 55.4 35.88 55.0967 35.88 54.81C35.8867 54.5167 35.89 54.26 35.89 54.04C35.89 53.82 35.89 53.66 35.89 53.56C35.89 53.3533 35.8833 53.16 35.87 52.98C35.8567 52.8 35.8367 52.6233 35.81 52.45H37.22ZM33.87 54.71C34.0167 54.71 34.2 54.7033 34.42 54.69C34.64 54.6767 34.8767 54.66 35.13 54.64C35.33 54.62 35.6267 54.5933 36.02 54.56C36.4133 54.52 36.86 54.4767 37.36 54.43C37.86 54.3833 38.38 54.3367 38.92 54.29C39.4667 54.2367 39.99 54.19 40.49 54.15C40.99 54.11 41.4333 54.0767 41.82 54.05C41.96 54.0367 42.1167 54.0267 42.29 54.02C42.47 54.0067 42.6333 53.9933 42.78 53.98V55.21C42.7267 55.2033 42.64 55.2 42.52 55.2C42.4 55.2 42.2733 55.2033 42.14 55.21C42.0133 55.21 41.9067 55.2133 41.82 55.22C41.56 55.2267 41.2433 55.2433 40.87 55.27C40.4967 55.29 40.0967 55.32 39.67 55.36C39.2433 55.3933 38.8067 55.4333 38.36 55.48C37.92 55.52 37.4967 55.5633 37.09 55.61C36.6833 55.6567 36.3167 55.6967 35.99 55.73C35.6633 55.7633 35.4033 55.79 35.21 55.81C35.1033 55.8233 34.9733 55.8433 34.82 55.87C34.6667 55.89 34.5133 55.9133 34.36 55.94C34.2133 55.96 34.0967 55.9767 34.01 55.99L33.87 54.71ZM46.1 52.85C46.0733 52.97 46.05 53.1067 46.03 53.26C46.0167 53.4133 46.0033 53.5633 45.99 53.71C45.9833 53.8567 45.98 53.9767 45.98 54.07C45.9733 54.29 45.97 54.5167 45.97 54.75C45.9767 54.9833 45.9833 55.2233 45.99 55.47C46.0033 55.71 46.02 55.95 46.04 56.19C46.0867 56.67 46.1533 57.0933 46.24 57.46C46.3267 57.8267 46.44 58.1133 46.58 58.32C46.72 58.52 46.8967 58.62 47.11 58.62C47.2233 58.62 47.3333 58.5567 47.44 58.43C47.5533 58.3033 47.6533 58.14 47.74 57.94C47.8333 57.7333 47.9133 57.5167 47.98 57.29C48.0533 57.0633 48.1167 56.85 48.17 56.65L49.17 57.87C48.95 58.45 48.73 58.9133 48.51 59.26C48.2967 59.6 48.0733 59.8467 47.84 60C47.6067 60.1467 47.3533 60.22 47.08 60.22C46.72 60.22 46.3767 60.1 46.05 59.86C45.73 59.62 45.4567 59.2333 45.23 58.7C45.0033 58.16 44.8433 57.4433 44.75 56.55C44.7167 56.2433 44.69 55.92 44.67 55.58C44.6567 55.24 44.6467 54.9167 44.64 54.61C44.64 54.3033 44.64 54.05 44.64 53.85C44.64 53.71 44.6333 53.5433 44.62 53.35C44.6067 53.1567 44.5867 52.9833 44.56 52.83L46.1 52.85ZM51.1 53.08C51.2867 53.3067 51.4667 53.5833 51.64 53.91C51.8133 54.2367 51.9733 54.5867 52.12 54.96C52.2667 55.3333 52.3967 55.7167 52.51 56.11C52.6233 56.4967 52.7133 56.8767 52.78 57.25C52.8533 57.6167 52.9 57.9533 52.92 58.26L51.6 58.77C51.5667 58.3633 51.5067 57.92 51.42 57.44C51.3333 56.96 51.2167 56.4767 51.07 55.99C50.9233 55.5033 50.7467 55.0433 50.54 54.61C50.34 54.1767 50.1033 53.8033 49.83 53.49L51.1 53.08Z" fill="black"/>
</svg>
